SplineFontDB: 3.2
FontName: MakiSansV2
FullName: MakiSansV2
FamilyName: MakiSansV2
Weight: Regular
Copyright: Copyright (c) 2023, FEERUS23
UComments: "2023-4-27: Created with FontForge (http://fontforge.org)"
Version: 1.000
ItalicAngle: 0
UnderlinePosition: -100
UnderlineWidth: 50
Ascent: 800
Descent: 200
InvalidEm: 0
LayerCount: 2
Layer: 0 0 "Back" 1
Layer: 1 0 "Fore" 0
XUID: [1021 350 1750556329 21575]
StyleMap: 0x0000
FSType: 0
OS2Version: 0
OS2_WeightWidthSlopeOnly: 0
OS2_UseTypoMetrics: 1
CreationTime: 1682542807
ModificationTime: 1682544697
OS2TypoAscent: 0
OS2TypoAOffset: 1
OS2TypoDescent: 0
OS2TypoDOffset: 1
OS2TypoLinegap: 90
OS2WinAscent: 0
OS2WinAOffset: 1
OS2WinDescent: 0
OS2WinDOffset: 1
HheadAscent: 0
HheadAOffset: 1
HheadDescent: 0
HheadDOffset: 1
Lookup: 258 0 0 "'kern' Horizontal Kerning lookup 1" { "'kern' Horizontal Kerning lookup 1-1" [150,15,2] "'kern' Horizontal Kerning lookup 1-2" [150,15,2] } ['kern' ('DFLT' <'dflt' > 'cyrl' <'dflt' > 'latn' <'dflt' > ) ]
MarkAttachClasses: 1
DEI: 91125
Encoding: ISO8859-1
UnicodeInterp: none
NameList: AGL For New Fonts
DisplaySize: -48
AntiAlias: 1
FitToEm: 0
WidthSeparation: 150
WinInfo: 0 38 14
BeginPrivate: 0
EndPrivate
BeginChars: 328 164

StartChar: d
Encoding: 100 100 0
Width: 633
Flags: W
LayerCount: 2
Fore
SplineSet
563.225585938 401.142578125 m 1
 547.797851562 322.857421875 600.940429688 -22.5712890625 482.940429688 -0.2861328125 c 0
 355.51171875 8.857421875 224.940429688 -24.857421875 123.51171875 83.142578125 c 0
 -90.48828125 270.571289062 194.654296875 636.286132812 428.654296875 474 c 0
 471.225585938 484.571289062 430.654296875 648.857421875 449.225585938 694.286132812 c 0
 454.654296875 725.713867188 490.940429688 738 519.797851562 730.571289062 c 0
 602.083007812 705.428710938 546.654296875 478 562.083007812 400.857421875 c 2
 563.225585938 400.857421875 l 1
 563.225585938 401.142578125 l 1
442.940429688 221.713867188 m 0
 456.369140625 306.286132812 360.369140625 418.571289062 270.369140625 394.286132812 c 0
 185.51171875 362.571289062 124.654296875 250.286132812 196.369140625 175.713867188 c 0
 259.51171875 100.571289062 472.369140625 64.857421875 442.940429688 221.713867188 c 0
EndSplineSet
EndChar

StartChar: e
Encoding: 101 101 1
Width: 700
Flags: W
HStem: 178.571 125.715<213.145 377.587>
LayerCount: 2
Fore
SplineSet
188.758789062 178.571289062 m 2
 217.616210938 95.7138671875 368.1875 106.286132812 440.1875 126 c 0
 508.47265625 129.713867188 545.330078125 229.142578125 613.043945312 202 c 0
 659.043945312 181.713867188 647.901367188 120.857421875 614.47265625 93.4287109375 c 0
 506.758789062 -7.4287109375 346.47265625 -22.857421875 209.330078125 18.5712890625 c 0
 33.0439453125 66 0.1875 285.428710938 125.043945312 402.286132812 c 0
 504.1875 741.428710938 974.758789062 206.286132812 188.47265625 178.571289062 c 1
 188.758789062 178.571289062 l 2
487.330078125 366.286132812 m 1
 403.330078125 424.857421875 280.1875 400.571289062 213.330078125 324 c 0
 209.330078125 317.713867188 208.1875 303.713867188 219.901367188 304.286132812 c 0
 309.043945312 306 415.330078125 310.857421875 487.330078125 366.286132812 c 1
EndSplineSet
EndChar

StartChar: f
Encoding: 102 102 2
Width: 513
Flags: W
HStem: 411.714 20G<74.9404 126.798>
LayerCount: 2
Fore
SplineSet
126.797851562 431.428710938 m 1
 203.369140625 929.428710938 578.2265625 637.142578125 444.2265625 537.713867188 c 0
 373.369140625 497.713867188 366.797851562 620 308.2265625 588.571289062 c 0
 269.655273438 555.142578125 260.2265625 500.286132812 259.369140625 451.428710938 c 0
 298.797851562 418 402.2265625 462.857421875 415.369140625 387.428710938 c 0
 428.2265625 274 285.083007812 352.857421875 249.369140625 304.286132812 c 0
 237.940429688 226 255.655273438 -110.286132812 109.655273438 25.4287109375 c 0
 98.7978515625 113.713867188 149.083007812 211.142578125 122.2265625 303.713867188 c 0
 13.9404296875 309.713867188 23.369140625 428.857421875 126.51171875 431.713867188 c 2
 126.797851562 431.428710938 l 1
EndSplineSet
EndChar

StartChar: glyph3
Encoding: 256 1025 3
Width: 716
VWidth: 0
Flags: W
HStem: 36 108.571<383.237 610.702> 282.286 127.143<236.5 449.378> 591.429 104.857<232.502 535.309>
VStem: 206.232 117.339<786.872 838.027> 399.393 114.178<783.361 838.762>
LayerCount: 2
Fore
SplineSet
380.143554688 136 m 1
 446.143554688 138.286132812 512.143554688 146.857421875 578.143554688 144.571289062 c 0
 592.143554688 142.857421875 603.571289062 135.428710938 611.857421875 123.428710938 c 0
 633.857421875 91.7138671875 616.428710938 43.142578125 579 36 c 0
 431.571289062 1.142578125 275.571289062 45.4287109375 130.143554688 -0.857421875 c 0
 99.5712890625 -12 61.857421875 10 57 42 c 0
 69.857421875 248.571289062 88.1435546875 456.571289062 109.857421875 662.571289062 c 0
 133 744.286132812 216.71484375 676.286132812 271.857421875 696.286132812 c 0
 361.857421875 696.286132812 682.428710938 759.142578125 676.71484375 622 c 0
 673.286132812 582.286132812 626.428710938 563.428710938 593.571289062 581.428710938 c 0
 544.143554688 600.571289062 489.286132812 590.857421875 437.571289062 591.428710938 c 0
 384.71484375 578 206.143554688 609.142578125 212.143554688 535.142578125 c 0
 218.71484375 498.857421875 179.286132812 405.713867188 234.143554688 403.428710938 c 0
 284.428710938 404.857421875 334.428710938 407.142578125 384.71484375 409.428710938 c 0
 422.71484375 414.571289062 468.143554688 423.428710938 486.143554688 379.428710938 c 0
 499 354 489 322.571289062 464.71484375 308.571289062 c 0
 383.571289062 280 291.571289062 296 207.286132812 282.286132812 c 0
 201.857421875 280.857421875 195.286132812 274.286132812 193.857421875 268.857421875 c 0
 182.71484375 228.857421875 180.143554688 188 183.286132812 146.857421875 c 0
 183.571289062 142 190.71484375 135.713867188 195.857421875 133.428710938 c 0
 256.428710938 131.713867188 319 139.428710938 380.143554688 141.142578125 c 1
 380.143554688 139.428710938 380.143554688 137.713867188 380.143554688 136.286132812 c 2
 380.143554688 136 l 1
513.571289062 810 m 0
 514.71484375 736.571289062 394.143554688 734 399.571289062 815.428710938 c 0
 401.857421875 887.142578125 516.428710938 882.571289062 513.571289062 810 c 0
323.571289062 808.571289062 m 0
 321.286132812 731.142578125 200.71484375 744 206.428710938 816.286132812 c 0
 207 892.857421875 329.286132812 881.142578125 323.571289062 808.571289062 c 0
EndSplineSet
EndChar

StartChar: g
Encoding: 103 103 4
Width: 671
Flags: W
LayerCount: 2
Fore
SplineSet
413.208984375 90.5712890625 m 1
 316.06640625 -34 150.923828125 -29.142578125 119.78125 141.428710938 c 0
 86.6376953125 312.857421875 239.78125 602.857421875 441.208984375 492.857421875 c 0
 486.637695312 499.142578125 515.495117188 519.142578125 524.923828125 566 c 0
 632.637695312 676.571289062 693.208984375 462.286132812 524.923828125 391.713867188 c 0
 528.352539062 338.857421875 505.208984375 289.142578125 509.208984375 236.857421875 c 0
 512.06640625 152.857421875 562.06640625 81.7138671875 574.352539062 0.2861328125 c 0
 561.78125 -234 222.923828125 -235.142578125 65.4951171875 -144.857421875 c 0
 -9.93359375 -85.142578125 80.6376953125 -6.2861328125 149.208984375 -56.5712890625 c 0
 263.78125 -112.857421875 568.637695312 -87.142578125 412.923828125 90.5712890625 c 1
 413.208984375 90.5712890625 l 1
392.637695312 333.713867188 m 2
 391.495117188 355.428710938 396.637695312 364.857421875 387.495117188 380 c 0
 304.06640625 458.286132812 232.637695312 262.571289062 230.352539062 197.428710938 c 0
 235.78125 0.857421875 409.78125 261.713867188 392.923828125 333.713867188 c 2
 392.637695312 333.713867188 l 2
EndSplineSet
EndChar

StartChar: h
Encoding: 104 104 5
Width: 618
Flags: W
HStem: 8.85742 102.571<480.162 544.881>
VStem: 62 122.572<23.5906 335.11>
LayerCount: 2
Fore
SplineSet
208.286132812 506.286132812 m 0
 267.71484375 508 321.428710938 552.857421875 383.143554688 531.142578125 c 0
 566 480.857421875 475.428710938 268.286132812 479.71484375 134.857421875 c 0
 482.286132812 109.142578125 512.286132812 117.428710938 529.71484375 111.428710938 c 0
 575.71484375 100.857421875 577.143554688 25.7138671875 536.857421875 8.857421875 c 0
 264 -63.7138671875 402.286132812 259.142578125 378.857421875 393.713867188 c 0
 327.428710938 469.142578125 174.572265625 348 184.572265625 272.857421875 c 0
 166.857421875 199.428710938 221.143554688 5.7138671875 118.857421875 -1.142578125 c 0
 89.71484375 -1.142578125 64.857421875 19.4287109375 62 47.7138671875 c 0
 69.4287109375 264 70 490 112.286132812 701.142578125 c 0
 123.428710938 718.857421875 147.143554688 729.428710938 165.143554688 725.428710938 c 0
 261.428710938 695.428710938 187.428710938 576.286132812 208.286132812 506.286132812 c 0
EndSplineSet
EndChar

StartChar: glyph6
Encoding: 257 1040 6
Width: 763
VWidth: 0
Flags: W
HStem: 195.143 122.857<258.403 399.097>
LayerCount: 2
Fore
SplineSet
47.400390625 57.142578125 m 2
 74.2568359375 291.713867188 208.54296875 500.857421875 341.400390625 690.571289062 c 0
 352.256835938 708.286132812 370.829101562 719.713867188 390.829101562 723.428710938 c 0
 435.685546875 727.713867188 473.685546875 686 475.685546875 643.713867188 c 0
 521.971679688 437.713867188 628.829101562 253.713867188 702.829101562 58 c 0
 716.829101562 1.7138671875 636.54296875 -33.142578125 603.685546875 13.142578125 c 0
 449.114257812 333.713867188 553.971679688 204.571289062 219.971679688 195.142578125 c 0
 135.114257812 168.571289062 209.685546875 -17.4287109375 93.9716796875 -7.4287109375 c 0
 62.8291015625 -1.4287109375 43.9716796875 26 47.400390625 56.857421875 c 2
 47.400390625 57.142578125 l 2
292.829101562 318 m 0
 325.114257812 324 463.114257812 320.571289062 442.54296875 370.857421875 c 0
 419.971679688 420.857421875 410.54296875 484.571289062 380.829101562 527.713867188 c 0
 370.829101562 529.713867188 365.114257812 520 360.256835938 512.286132812 c 0
 330.256835938 463.713867188 300.54296875 415.142578125 271.114257812 366.286132812 c 0
 251.971679688 332.286132812 246.829101562 317.142578125 292.829101562 318 c 0
EndSplineSet
EndChar

StartChar: glyph7
Encoding: 258 1041 7
Width: 715
VWidth: 0
Flags: W
HStem: 580.286 112<329.85 520.239>
LayerCount: 2
Fore
SplineSet
244.094726562 692.286132812 m 2
 324.666992188 712.571289062 668.952148438 751.428710938 658.094726562 626 c 0
 654.666992188 600.857421875 631.809570312 579.428710938 606.094726562 580.286132812 c 0
 493.23828125 594 378.094726562 611.428710938 266.952148438 576 c 0
 224.094726562 565.428710938 235.5234375 516 231.23828125 482.286132812 c 0
 231.23828125 477.428710938 241.5234375 470.571289062 246.666992188 472 c 0
 635.809570312 622.857421875 846.380859375 138.571289062 432.094726562 10.2861328125 c 0
 330.952148438 -25.4287109375 221.809570312 11.142578125 120.666992188 -6 c 0
 75.5234375 -19.7138671875 42.380859375 25.142578125 51.5234375 68 c 0
 72.9521484375 212.571289062 93.8095703125 357.142578125 113.23828125 502 c 0
 128.952148438 582.286132812 108.666992188 770.286132812 243.809570312 692.286132812 c 2
 244.094726562 692.286132812 l 2
277.809570312 109.713867188 m 1
 556.666992188 83.4287109375 666.094726562 388.571289062 358.952148438 379.142578125 c 0
 206.952148438 365.428710938 191.809570312 262.571289062 180.094726562 135.142578125 c 0
 184.952148438 99.142578125 249.809570312 118 278.094726562 109.713867188 c 1
 277.809570312 109.713867188 l 1
EndSplineSet
EndChar

StartChar: glyph8
Encoding: 259 1042 8
Width: 736
VWidth: 0
Flags: W
HStem: 338.857 256.856<385.939 470.226>
LayerCount: 2
Fore
SplineSet
579.939453125 425.428710938 m 1
 709.368164062 343.428710938 711.654296875 146.857421875 594.510742188 66.857421875 c 0
 471.939453125 -17.4287109375 312.796875 -22.857421875 171.08203125 14.857421875 c 0
 79.08203125 -40.2861328125 46.2255859375 19.4287109375 61.654296875 108.857421875 c 0
 76.5107421875 290.571289062 83.939453125 473.713867188 109.08203125 654.286132812 c 0
 125.08203125 723.713867188 196.796875 680.571289062 243.368164062 699.713867188 c 0
 435.368164062 753.713867188 688.510742188 660.857421875 579.939453125 425.428710938 c 1
332.796875 110.286132812 m 2
 396.796875 112.286132812 466.796875 115.428710938 520.796875 156 c 0
 597.939453125 206.857421875 567.368164062 332.857421875 474.225585938 338.857421875 c 0
 385.939453125 338.857421875 299.368164062 308.857421875 210.796875 302.286132812 c 0
 202.796875 300.571289062 193.08203125 291.428710938 192.510742188 284 c 0
 172.225585938 143.713867188 179.939453125 108.857421875 332.510742188 110.571289062 c 2
 332.796875 110.286132812 l 2
262.796875 426 m 1
 262.796875 426.857421875 l 2
 325.08203125 436 391.368164062 440.857421875 447.08203125 472.857421875 c 0
 535.939453125 526.286132812 470.225585938 594.571289062 391.368164062 595.713867188 c 0
 332.225585938 594 231.939453125 607.428710938 212.510742188 534.286132812 c 0
 207.08203125 500.571289062 203.368164062 466.571289062 207.368164062 432.286132812 c 0
 216.796875 411.428710938 245.368164062 426.857421875 263.08203125 425.713867188 c 1
 262.796875 426 l 1
EndSplineSet
EndChar

StartChar: glyph9
Encoding: 260 1043 9
Width: 696
VWidth: 0
Flags: W
HStem: 586.571 106.571<352.926 628.813>
LayerCount: 2
Fore
SplineSet
53.3447265625 51.142578125 m 1
 76.7734375 239.142578125 95.3447265625 429.428710938 104.7734375 619.142578125 c 0
 102.7734375 662 119.344726562 711.142578125 176.487304688 702.857421875 c 0
 203.05859375 692.571289062 227.630859375 684.857421875 255.916015625 694 c 0
 376.487304688 717.713867188 502.487304688 722.286132812 622.202148438 693.142578125 c 0
 693.05859375 660.857421875 646.7734375 562.857421875 572.202148438 586.571289062 c 0
 491.630859375 600 268.202148438 613.713867188 217.630859375 549.428710938 c 0
 197.344726562 373.142578125 197.916015625 192.857421875 160.202148438 19.4287109375 c 0
 137.344726562 -38 44.4873046875 -13.7138671875 53.630859375 51.4287109375 c 1
 53.3447265625 51.142578125 l 1
EndSplineSet
PairPos2: "'kern' Horizontal Kerning lookup 1-1" { dx=0 dy=0 dh=-120 dv=0 dx=0 dy=0 dh=0 dv=0
PairPos2: "'kern' Horizontal Kerning lookup 1-1" raavi dx=0 dy=0 dh=-93 dv=0 dx=0 dy=0 dh=0 dv=0
EndChar

StartChar: glyph10
Encoding: 261 1044 10
Width: 755
VWidth: 0
Flags: W
HStem: -8.85742 123.429<255.855 496.997> 692.857 20G<373.858 606.144>
LayerCount: 2
Fore
SplineSet
539.000976562 -5.142578125 m 1
 427.000976562 -5.4287109375 321.000976562 -0.5712890625 213.572265625 -8.857421875 c 0
 201.286132812 -60.2861328125 145.858398438 -103.142578125 103.000976562 -54 c 0
 71.572265625 -14.2861328125 24.71484375 30 52.4296875 83.7138671875 c 0
 58.71484375 97.7138671875 75.572265625 107.428710938 89.8583984375 110.857421875 c 0
 161.286132812 144.571289062 202.4296875 324.571289062 225.286132812 400.571289062 c 0
 299.858398438 843.428710938 157.000976562 676.571289062 590.71484375 712.857421875 c 0
 621.572265625 710.571289062 647.286132812 683.142578125 645.572265625 653.428710938 c 0
 640.143554688 560 633.858398438 466.571289062 628.4296875 373.142578125 c 0
 624.143554688 298 620.71484375 222.571289062 617.286132812 147.428710938 c 0
 616.143554688 124.857421875 621.572265625 117.713867188 642.4296875 114.857421875 c 0
 745.286132812 102.571289062 675.858398438 -6.857421875 650.71484375 -61.142578125 c 0
 631.286132812 -103.713867188 561.286132812 -96.5712890625 548.71484375 -50.857421875 c 0
 544.4296875 -38 543.000976562 -24.2861328125 539.000976562 -5.4287109375 c 2
 539.000976562 -5.142578125 l 1
369.858398438 114.571289062 m 2
 369.858398438 114.571289062 369.858398438 113.142578125 369.858398438 112.286132812 c 1
 402.4296875 120 484.71484375 98.5712890625 497.000976562 133.142578125 c 0
 505.286132812 230.571289062 507.858398438 328.857421875 514.143554688 426.571289062 c 0
 515.858398438 456 517.286132812 485.713867188 519.858398438 515.142578125 c 0
 526.4296875 594.857421875 530.143554688 592.286132812 453.000976562 592 c 0
 426.143554688 586.571289062 378.4296875 608 366.4296875 575.428710938 c 0
 357.572265625 422.571289062 321.000976562 273.428710938 255.858398438 134.286132812 c 0
 246.143554688 96.2861328125 345.572265625 121.428710938 369.858398438 114.571289062 c 2
EndSplineSet
EndChar

StartChar: glyph11
Encoding: 262 1045 11
Width: 689
VWidth: 0
Flags: W
HStem: -15.7139 115.428<189.601 610.27> 590.857 99.7139<560.506 618.166>
VStem: 76.5859 109.144<104.111 306.494>
LayerCount: 2
Fore
SplineSet
74.30078125 339.713867188 m 2
 79.443359375 430.857421875 84.8720703125 522 90.0146484375 613.142578125 c 0
 88.0146484375 646.571289062 101.443359375 687.142578125 140.014648438 690.571289062 c 0
 287.443359375 692 434.30078125 732.571289062 581.158203125 686.286132812 c 0
 636.30078125 680.857421875 663.443359375 608.857421875 613.729492188 576.286132812 c 0
 563.443359375 555.428710938 506.014648438 589.428710938 453.443359375 590.857421875 c 0
 403.443359375 595.713867188 206.014648438 601.428710938 201.443359375 539.142578125 c 0
 204.014648438 465.713867188 169.158203125 410.571289062 268.30078125 435.428710938 c 0
 316.014648438 442.857421875 363.729492188 444.857421875 411.729492188 442.571289062 c 0
 440.014648438 441.142578125 461.443359375 416.857421875 462.30078125 387.713867188 c 0
 455.443359375 294.571289062 326.30078125 337.428710938 264.30078125 318.857421875 c 0
 184.014648438 302 188.5859375 315.713867188 185.729492188 230 c 0
 192.872070312 196.857421875 159.158203125 105.142578125 202.872070312 99.7138671875 c 0
 321.443359375 99.7138671875 440.30078125 99.142578125 558.872070312 99.7138671875 c 0
 622.014648438 108.286132812 652.872070312 16.5712890625 591.443359375 -8.5712890625 c 0
 524.30078125 -30 450.30078125 -15.4287109375 380.872070312 -15.7138671875 c 0
 2.0146484375 -4 56.8720703125 -142.286132812 76.5859375 339.142578125 c 1
 76.0146484375 339.142578125 75.443359375 339.142578125 74.8720703125 339.142578125 c 2
 74.30078125 339.713867188 l 2
EndSplineSet
EndChar

StartChar: glyph12
Encoding: 263 1046 12
Width: 784
VWidth: 0
Flags: W
HStem: 378.571 20G<290.764 293.192> 397.714 21G<123.764 292.906>
LayerCount: 2
Fore
SplineSet
293.192382812 397.713867188 m 1x40
 -45.6650390625 548.571289062 84.62109375 807.428710938 183.763671875 670.286132812 c 0
 185.477539062 603.142578125 239.763671875 562.857421875 291.192382812 530 c 0
 403.192382812 454 291.192382812 731.142578125 412.049804688 719.142578125 c 0
 507.477539062 705.142578125 445.763671875 586.857421875 462.334960938 524.286132812 c 0
 496.049804688 498.857421875 602.90625 633.428710938 615.763671875 668.857421875 c 0
 628.62109375 697.428710938 664.049804688 705.142578125 692.334960938 689.713867188 c 0
 789.192382812 611.428710938 601.477539062 463.713867188 537.763671875 417.428710938 c 0
 511.477539062 398 460.334960938 381.142578125 505.477539062 348.286132812 c 0
 586.90625 268 656.62109375 176.857421875 718.049804688 81.142578125 c 0
 740.049804688 42 701.192382812 -14.857421875 655.192382812 -0.857421875 c 0
 612.62109375 -8.5712890625 442.62109375 319.713867188 444.049804688 196.571289062 c 0
 430.334960938 136.286132812 468.334960938 20.857421875 386.62109375 4.2861328125 c 0
 255.763671875 -23.7138671875 376.334960938 298.286132812 296.334960938 230.857421875 c 0
 247.477539062 182.571289062 205.477539062 128.286132812 171.477539062 68.5712890625 c 0
 151.477539062 26.857421875 119.192382812 -22.857421875 62.90625 13.7138671875 c 0
 -13.37890625 88 190.049804688 286.571289062 245.192382812 343.142578125 c 0
 262.334960938 361.428710938 288.62109375 371.713867188 292.90625 398.571289062 c 1x80
 293.192382812 397.713867188 l 1x40
EndSplineSet
EndChar

StartChar: glyph13
Encoding: 264 1047 13
Width: 768
VWidth: 0
Flags: W
LayerCount: 2
Fore
SplineSet
623.532226562 451.142578125 m 1
 760.103515625 330.286132812 739.532226562 60.857421875 540.9609375 21.142578125 c 0
 388.674804688 -22.2861328125 212.103515625 0.5712890625 85.2470703125 98 c 0
 45.2470703125 130 29.2470703125 214 85.2470703125 236.857421875 c 0
 116.389648438 248.571289062 144.674804688 236.571289062 158.674804688 206.571289062 c 0
 162.674804688 191.713867188 170.389648438 175.428710938 184.103515625 168.286132812 c 0
 319.818359375 93.4287109375 657.532226562 67.142578125 583.532226562 309.428710938 c 0
 536.389648438 434.857421875 343.247070312 288 280.103515625 392 c 0
 252.103515625 510 410.674804688 452.571289062 472.389648438 485.713867188 c 0
 512.674804688 494.286132812 564.103515625 553.713867188 515.532226562 584 c 0
 449.532226562 620.857421875 368.9609375 606.857421875 308.103515625 566.286132812 c 0
 256.674804688 537.142578125 197.818359375 613.142578125 242.9609375 656.286132812 c 0
 393.532226562 800.286132812 764.389648438 690.571289062 623.532226562 451.142578125 c 1
EndSplineSet
EndChar

StartChar: glyph14
Encoding: 265 1048 14
Width: 761
VWidth: 0
Flags: W
HStem: 416.286 21G<571.267 571.267>
VStem: 108.41 112.856<354.56 697.132> 564.124 104<181.288 326.732> 599.839 110.856<640.139 702.714>
LayerCount: 2
Fore
SplineSet
571.266601562 416.857421875 m 1xe0
 530.6953125 405.428710938 506.41015625 352.857421875 474.41015625 324.857421875 c 0
 374.6953125 211.713867188 268.41015625 104.571289062 155.838867188 4.2861328125 c 0
 128.6953125 -18.2861328125 92.41015625 -7.142578125 70.1240234375 16.5712890625 c 0
 35.552734375 56 67.552734375 115.142578125 66.1240234375 162 c 0
 81.552734375 314.286132812 101.838867188 466 108.41015625 618.857421875 c 0
 105.838867188 677.428710938 140.6953125 747.713867188 207.552734375 706.286132812 c 0
 245.838867188 669.428710938 217.552734375 603.142578125 221.266601562 555.142578125 c 0
 219.838867188 443.142578125 184.981445312 318 197.552734375 212.286132812 c 1
 236.981445312 228.286132812 264.981445312 274 297.266601562 302.857421875 c 0
 400.41015625 424 525.552734375 530.571289062 599.838867188 672.857421875 c 0
 610.124023438 700.571289062 639.266601562 722 669.838867188 714 c 0
 701.838867188 705.142578125 715.838867188 674.286132812 710.6953125 644.286132812 c 0xd0
 696.41015625 450.857421875 681.838867188 257.142578125 668.124023438 63.4287109375 c 0
 675.266601562 3.142578125 605.838867188 -37.7138671875 564.981445312 10.857421875 c 0
 538.981445312 75.4287109375 566.6953125 152 564.124023438 220.571289062 c 0
 564.124023438 286 580.6953125 354 569.838867188 418 c 1
 573.552734375 415.713867188 574.124023438 416.286132812 571.838867188 419.428710938 c 1
 571.838867188 418.286132812 571.266601562 417.428710938 571.266601562 416.286132812 c 1
 571.266601562 416.857421875 l 1xe0
EndSplineSet
EndChar

StartChar: glyph15
Encoding: 266 1049 15
Width: 729
VWidth: 0
Flags: W
HStem: 718 121.714<305.619 451.368>
VStem: 87.4561 104.286<356.721 493> 266.6 228<755.81 838.641> 543.456 95.1436<142.07 299.008>
LayerCount: 2
Fore
SplineSet
192.028320312 229.713867188 m 2
 212.599609375 225.142578125 221.456054688 247.142578125 235.170898438 258.857421875 c 0
 357.7421875 394.571289062 467.456054688 540.571289062 582.599609375 682.286132812 c 0
 615.456054688 717.428710938 660.313476562 695.428710938 674.599609375 667.713867188 c 0
 690.599609375 602.571289062 666.028320312 531.142578125 665.170898438 464.286132812 c 0
 650.599609375 323.428710938 644.028320312 182 638.599609375 40.857421875 c 0
 631.170898438 -5.7138671875 582.884765625 -18.857421875 548.884765625 0 c 0
 493.7421875 24 544.313476562 329.713867188 543.456054688 401.428710938 c 0
 544.313476562 414.286132812 545.170898438 434.571289062 527.170898438 424.286132812 c 0
 453.170898438 358.571289062 168.599609375 -57.7138671875 90.599609375 -3.7138671875 c 0
 24.0283203125 35.4287109375 78.0283203125 150.857421875 71.7421875 215.713867188 c 0
 84.3134765625 352.286132812 82.599609375 489.428710938 87.4560546875 626.286132812 c 0
 83.1708984375 675.428710938 109.170898438 723.713867188 165.170898438 705.713867188 c 0
 245.170898438 693.142578125 182.028320312 309.428710938 191.7421875 230.571289062 c 2
 192.028320312 229.713867188 l 2
376.599609375 718 m 0
 328.028320312 716 267.170898438 752.286132812 266.599609375 806 c 0
 268.313476562 843.142578125 302.884765625 866.571289062 339.7421875 856.571289062 c 0
 355.170898438 852.571289062 366.028320312 835.713867188 383.170898438 839.713867188 c 0
 422.599609375 861.428710938 482.599609375 871.713867188 494.599609375 815.142578125 c 0
 506.313476562 754.571289062 426.028320312 716.286132812 376.599609375 718 c 0
EndSplineSet
EndChar

StartChar: i
Encoding: 105 105 16
Width: 430
Flags: W
HStem: 592.857 113.954<159.821 219.608>
LayerCount: 2
Fore
SplineSet
211.686523438 442 m 1
 207.400390625 369.428710938 111.97265625 133.713867188 211.686523438 114.286132812 c 0
 269.400390625 123.428710938 317.115234375 231.713867188 370.2578125 148 c 0
 410.829101562 13.4287109375 141.115234375 -67.142578125 83.6865234375 58.2861328125 c 0
 15.97265625 186.857421875 74.2578125 333.713867188 97.97265625 466.571289062 c 0
 119.400390625 538.857421875 214.829101562 516.286132812 211.400390625 442 c 1
 211.686523438 442 l 1
186.829101562 592.857421875 m 0
 111.686523438 593.713867188 115.97265625 712.857421875 192.543945312 706.571289062 c 0
 268.2578125 706.571289062 262.543945312 586.286132812 186.829101562 592.857421875 c 0
EndSplineSet
EndChar

StartChar: glyph17
Encoding: 267 1050 17
Width: 747
VWidth: 0
Flags: W
VStem: 135.61 108.285<527.704 682.471>
LayerCount: 2
Fore
SplineSet
234.752929688 507.428710938 m 2
 323.0390625 514 627.610351562 759.428710938 679.610351562 691.142578125 c 0
 726.467773438 646.571289062 679.0390625 596.286132812 632.467773438 579.142578125 c 0
 521.32421875 517.142578125 405.0390625 462.857421875 296.752929688 396 c 0
 294.181640625 394.286132812 293.0390625 386.286132812 294.752929688 384 c 0
 346.467773438 330.286132812 412.467773438 290.571289062 470.181640625 243.142578125 c 0
 522.467773438 189.428710938 799.32421875 59.142578125 630.467773438 -3.4287109375 c 0
 602.467773438 -5.7138671875 581.0390625 18.2861328125 559.32421875 32.5712890625 c 0
 451.895507812 113.713867188 344.752929688 194.857421875 237.32421875 276 c 0
 144.467773438 362.286132812 219.32421875 -22.2861328125 114.752929688 -9.7138671875 c 0
 60.7529296875 -14 45.32421875 38.2861328125 54.4677734375 81.4287109375 c 0
 78.181640625 276 105.0390625 470.286132812 135.610351562 664 c 0
 141.895507812 719.142578125 232.752929688 728 243.895507812 671.142578125 c 0
 255.610351562 616 223.895507812 562 234.467773438 507.428710938 c 2
 234.752929688 507.428710938 l 2
EndSplineSet
EndChar

StartChar: glyph18
Encoding: 268 1051 18
Width: 726
VWidth: 0
Flags: W
HStem: 602.571 116<415.268 541.031>
LayerCount: 2
Fore
SplineSet
488.220703125 718.571289062 m 2
 553.078125 716 709.36328125 742.286132812 682.220703125 634.857421875 c 0
 667.078125 610.286132812 664.506835938 584 661.934570312 556.571289062 c 0
 643.649414062 381.713867188 638.791992188 206 625.078125 30.5712890625 c 0
 622.506835938 -5.7138671875 583.649414062 -31.7138671875 543.36328125 -15.7138671875 c 0
 480.220703125 11.4287109375 531.36328125 200.857421875 523.934570312 265.713867188 c 0
 529.649414062 370.571289062 541.36328125 475.142578125 543.934570312 580 c 0
 532.791992188 619.428710938 464.791992188 600.286132812 432.791992188 602.571289062 c 0
 424.791992188 601.713867188 415.36328125 593.428710938 413.934570312 584.857421875 c 0
 398.506835938 474 384.506835938 363.142578125 348.220703125 256.857421875 c 0
 322.220703125 156.857421875 181.649414062 -87.4287109375 58.5068359375 -18.2861328125 c 0
 25.9345703125 12.857421875 45.078125 66.857421875 85.36328125 80.857421875 c 0
 263.36328125 195.428710938 291.078125 460.571289062 293.078125 655.142578125 c 0
 293.078125 751.142578125 425.934570312 709.713867188 487.934570312 718.571289062 c 1
 488.220703125 718.571289062 l 2
EndSplineSet
EndChar

StartChar: glyph19
Encoding: 269 1052 19
Width: 765
VWidth: 0
Flags: W
HStem: 310.857 20G<186.285 214.571 214.856 222.857>
VStem: 105.429 208.571<336.795 542.737> 554.856 101.144<0.228317 189.178>
LayerCount: 2
Fore
SplineSet
214.856445312 330.857421875 m 1
 157.713867188 271.142578125 214.856445312 6.857421875 113.142578125 -3.7138671875 c 0
 82.8564453125 -5.4287109375 54 19.142578125 54 49.7138671875 c 0
 66.28515625 215.713867188 95.142578125 380.286132812 105.428710938 546.571289062 c 0
 112.28515625 631.713867188 86.28515625 765.713867188 221.142578125 717.142578125 c 0
 289.142578125 644 290.856445312 524 314 429.428710938 c 0
 326 359.713867188 334.856445312 289.428710938 355.713867188 221.713867188 c 0
 357.713867188 216.571289062 363.428710938 207.713867188 369.428710938 212 c 0
 465.142578125 370.857421875 527.428710938 551.142578125 621.428710938 711.713867188 c 0
 633.713867188 728.571289062 657.713867188 733.142578125 677.142578125 724.286132812 c 0
 740.571289062 697.142578125 709.713867188 616.571289062 711.713867188 563.142578125 c 0
 694.856445312 386 684.571289062 207.713867188 656 32.2861328125 c 0
 649.428710938 0.857421875 619.713867188 -15.4287109375 587.428710938 -7.7138671875 c 0
 522 10.2861328125 555.142578125 88.2861328125 554.856445312 136.571289062 c 0
 551.713867188 161.142578125 600.28515625 394.857421875 545.713867188 296.571289062 c 0
 497.713867188 203.713867188 460.571289062 103.713867188 406.856445312 14.857421875 c 0
 281.428710938 -81.142578125 231.142578125 252.857421875 214.571289062 330.857421875 c 1
 214.856445312 330.857421875 l 1
EndSplineSet
EndChar

StartChar: glyph20
Encoding: 270 1053 20
Width: 746
VWidth: 0
Flags: W
HStem: 335.143 109.144<243.793 508.912>
VStem: 72.8711 121.143<46.7371 321.424> 112.585 103.715<535.574 687.656> 552.3 112.571<16.6559 331.326>
LayerCount: 2
Fore
SplineSet
559.15625 457.713867188 m 0xb0
 579.442382812 533.142578125 562.013671875 616 591.727539062 688 c 0
 626.584960938 742.286132812 707.442382812 699.713867188 694.299804688 643.713867188 c 0
 680.584960938 505.142578125 673.442382812 366 664.87109375 227.142578125 c 0
 646.87109375 157.428710938 699.727539062 -12.5712890625 600.299804688 -20.2861328125 c 0
 492.299804688 -24.857421875 565.442382812 221.142578125 552.299804688 294.571289062 c 0
 553.15625 330.857421875 548.584960938 335.428710938 515.15625 335.142578125 c 0
 465.15625 324 185.727539062 351.428710938 194.013671875 302.286132812 c 0
 172.584960938 229.713867188 216.299804688 -28 106.013671875 -8.5712890625 c 0
 17.15625 9.142578125 80.2998046875 187.142578125 72.87109375 254.857421875 c 0xd0
 90.87109375 398.571289062 80.013671875 550.286132812 112.584960938 689.713867188 c 0
 138.013671875 736 210.299804688 716.857421875 216.299804688 669.428710938 c 0
 228.87109375 626 173.15625 432.571289062 236.87109375 444.286132812 c 0
 344.584960938 449.428710938 452.013671875 441.713867188 559.15625 457.713867188 c 0xb0
EndSplineSet
EndChar

StartChar: glyph21
Encoding: 271 1054 21
Width: 772
VWidth: 0
Flags: W
VStem: 55.7021 116<189.577 385.01>
LayerCount: 2
Fore
SplineSet
55.7021484375 283.142578125 m 0
 54.5595703125 598.571289062 430.2734375 888.857421875 672.2734375 596 c 0
 824.2734375 388.286132812 610.2734375 108 416.559570312 13.142578125 c 0
 231.416992188 -80 41.98828125 91.7138671875 55.7021484375 283.142578125 c 0
171.702148438 280 m 0
 199.98828125 -108.571289062 641.702148438 245.428710938 604.559570312 472.286132812 c 0
 601.98828125 523.142578125 556.2734375 544.571289062 521.130859375 573.713867188 c 0
 457.130859375 623.142578125 363.702148438 601.713867188 306.559570312 552.857421875 c 0
 221.702148438 482 175.98828125 390.857421875 171.702148438 280 c 0
EndSplineSet
EndChar

StartChar: glyph22
Encoding: 272 1055 22
Width: 720
VWidth: 0
Flags: W
VStem: 546.195 82.5713<29.7139 559.429>
LayerCount: 2
Fore
SplineSet
80.48046875 345.713867188 m 0
 97.9091796875 823.428710938 17.623046875 688 457.337890625 713.428710938 c 0
 517.909179688 712 581.623046875 747.142578125 639.051757812 720.857421875 c 0
 685.337890625 699.142578125 667.337890625 644 666.48046875 603.428710938 c 0
 646.766601562 412.571289062 637.623046875 221.142578125 628.766601562 29.7138671875 c 0
 626.1953125 -26.2861328125 537.909179688 -40.857421875 520.1953125 13.4287109375 c 0
 508.1953125 194.857421875 536.766601562 378 546.1953125 559.428710938 c 0
 546.1953125 574.857421875 551.051757812 603.142578125 528.766601562 603.142578125 c 0
 57.623046875 557.428710938 252.48046875 744.857421875 176.1953125 42.5712890625 c 0
 175.051757812 5.142578125 146.48046875 -30 105.337890625 -20.5712890625 c 0
 71.337890625 -13.7138671875 55.623046875 21.7138671875 61.0517578125 53.4287109375 c 0
 67.337890625 151.428710938 74.1953125 249.142578125 80.48046875 345.713867188 c 0
EndSplineSet
EndChar

StartChar: glyph23
Encoding: 273 1056 23
Width: 725
VWidth: 0
Flags: W
LayerCount: 2
Fore
SplineSet
68.537109375 191.142578125 m 1
 66.2509765625 332.286132812 94.8232421875 458 88.8232421875 589.713867188 c 0
 81.1083984375 622.286132812 95.1083984375 648 119.108398438 668.286132812 c 0
 268.250976562 765.713867188 486.537109375 714.571289062 613.965820312 602 c 0
 839.965820312 339.428710938 433.39453125 147.428710938 203.108398438 212 c 0
 155.965820312 193.142578125 196.823242188 61.7138671875 168.823242188 19.142578125 c 0
 152.250976562 -8.857421875 111.39453125 -16.2861328125 84.8232421875 2.857421875 c 0
 39.39453125 47.142578125 73.9658203125 140.286132812 68.2509765625 191.428710938 c 1
 68.537109375 191.142578125 l 1
312.823242188 317.142578125 m 2
 731.108398438 348.571289062 559.6796875 640.286132812 238.537109375 595.428710938 c 0
 184.250976562 583.142578125 207.39453125 435.428710938 193.6796875 385.713867188 c 0
 177.6796875 310 263.108398438 326 312.537109375 317.142578125 c 2
 312.823242188 317.142578125 l 2
EndSplineSet
EndChar

StartChar: glyph24
Encoding: 274 1057 24
Width: 755
VWidth: 0
Flags: W
LayerCount: 2
Fore
SplineSet
331.604492188 -9.4287109375 m 1
 132.748046875 -21.7138671875 -10.966796875 175.713867188 81.890625 357.142578125 c 0
 174.748046875 593.428710938 455.319335938 892.286132812 665.033203125 593.713867188 c 0
 703.033203125 519.142578125 607.604492188 431.428710938 559.890625 517.713867188 c 0
 451.319335938 769.713867188 199.890625 394.857421875 173.890625 260.286132812 c 0
 139.604492188 97.4287109375 381.319335938 70.2861328125 482.748046875 152 c 0
 549.890625 175.713867188 611.890625 309.142578125 685.604492188 249.142578125 c 0
 781.890625 150.286132812 416.176757812 -31.7138671875 331.890625 -9.142578125 c 2
 331.604492188 -9.4287109375 l 1
EndSplineSet
EndChar

StartChar: glyph25
Encoding: 275 1058 25
Width: 668
VWidth: 0
Flags: W
HStem: 604.857 112.285<77.2319 256.432 379.867 618.343>
VStem: 252.502 108.286<3.09378 300.92> 256.502 122.572<300.92 603.332>
LayerCount: 2
Fore
SplineSet
252.501953125 278.286132812 m 2xc0
 253.07421875 407.428710938 262.788085938 488.571289062 256.501953125 589.142578125 c 0
 255.07421875 594.857421875 249.07421875 601.428710938 243.645507812 603.428710938 c 0
 194.788085938 611.428710938 143.359375 600.286132812 93.6455078125 604.857421875 c 0
 28.501953125 607.142578125 33.9306640625 714.286132812 95.359375 717.142578125 c 0
 245.645507812 721.713867188 396.216796875 718 546.501953125 719.428710938 c 0
 580.216796875 721.142578125 620.501953125 714.857421875 627.07421875 674.571289062 c 0
 633.930664062 645.428710938 619.359375 609.713867188 587.359375 607.142578125 c 0
 541.645507812 593.713867188 393.930664062 630.857421875 379.07421875 586.286132812 c 0xa0
 369.07421875 402 368.788085938 217.142578125 360.788085938 32.857421875 c 0
 357.359375 0.857421875 332.788085938 -20.857421875 300.788085938 -20.5712890625 c 0
 239.359375 -20 241.930664062 46 245.07421875 90.5712890625 c 0
 247.645507812 163.428710938 250.788085938 236.286132812 252.501953125 278 c 2
 252.501953125 278.286132812 l 2xc0
EndSplineSet
EndChar

StartChar: glyph26
Encoding: 276 1059 26
Width: 707
VWidth: 0
Flags: W
HStem: -10.8574 146.286<149.734 224.139>
LayerCount: 2
Fore
SplineSet
332.541992188 -10.857421875 m 1
 247.970703125 -8.5712890625 39.685546875 3.142578125 48.2568359375 98 c 0
 51.685546875 149.142578125 107.685546875 151.428710938 144.541992188 135.428710938 c 0
 290.828125 89.142578125 499.685546875 55.142578125 499.970703125 268.857421875 c 0
 498.541992188 288.571289062 475.970703125 285.713867188 461.685546875 285.713867188 c 0
 -26.6005859375 250 13.1142578125 828.857421875 171.970703125 702.571289062 c 0
 191.970703125 684 185.685546875 655.713867188 186.541992188 631.428710938 c 0
 181.114257812 556.857421875 192.541992188 479.713867188 264.828125 441.428710938 c 0
 334.828125 399.713867188 418.541992188 396.857421875 497.399414062 406 c 0
 506.256835938 407.142578125 514.828125 414.857421875 515.970703125 423.428710938 c 0
 534.256835938 510.286132812 532.541992188 601.142578125 555.114257812 686.857421875 c 0
 572.828125 732 629.399414062 728 650.828125 700.286132812 c 0
 661.114257812 686.857421875 665.685546875 672.286132812 663.685546875 655.713867188 c 0
 649.399414062 547.142578125 637.399414062 438.286132812 623.685546875 329.713867188 c 0
 613.685546875 131.428710938 555.685546875 -19.4287109375 332.541992188 -10.2861328125 c 1
 332.541992188 -10.857421875 l 1
EndSplineSet
EndChar

StartChar: j
Encoding: 106 106 27
Width: 477
Flags: W
HStem: 592.857 113.954<322.629 382.416>
VStem: 294.209 116<274.967 501.452>
LayerCount: 2
Fore
SplineSet
139.3515625 146 m 2
 61.0654296875 133.713867188 0.208984375 220.571289062 85.0654296875 259.713867188 c 0
 136.208984375 271.428710938 189.3515625 267.428710938 241.3515625 270.286132812 c 0
 289.637695312 271.428710938 293.3515625 273.428710938 294.208984375 326.286132812 c 0
 305.065429688 387.142578125 266.208984375 490.571289062 341.637695312 517.142578125 c 0
 372.208984375 524.571289062 403.065429688 506.286132812 410.208984375 476 c 0
 418.208984375 404 412.494140625 330.286132812 407.3515625 258 c 0
 384.780273438 106.857421875 386.494140625 -206.857421875 172.780273438 -192.571289062 c 0
 31.6376953125 -131.713867188 97.9228515625 41.4287109375 139.3515625 146.286132812 c 1
 139.3515625 146 l 2
203.922851562 -33.4287109375 m 0
 219.065429688 -104.571289062 274.208984375 66.2861328125 261.922851562 83.7138671875 c 0
 220.494140625 71.4287109375 209.922851562 6.2861328125 203.922851562 -33.4287109375 c 0
349.637695312 592.857421875 m 0
 274.494140625 593.713867188 278.780273438 712.857421875 355.3515625 706.571289062 c 0
 431.065429688 706.571289062 425.3515625 586.286132812 349.637695312 592.857421875 c 0
EndSplineSet
EndChar

StartChar: glyph28
Encoding: 277 1060 28
Width: 766
VWidth: 0
Flags: W
HStem: 546 122.571<246.361 333.474>
VStem: 333.428 107.715<380.286 524.663>
LayerCount: 2
Fore
SplineSet
339.427734375 668.571289062 m 0
 371.713867188 745.142578125 454.571289062 734.286132812 466.856445312 651.713867188 c 0
 633.713867188 620.286132812 787.713867188 432.571289062 683.427734375 270.571289062 c 0
 626.856445312 178 524.856445312 159.713867188 432.571289062 124.571289062 c 0
 424.571289062 72.857421875 447.713867188 -20.857421875 367.142578125 -20.5712890625 c 0
 286.28515625 -14.857421875 320.28515625 80.5712890625 308.28515625 132.571289062 c 0
 196.571289062 182.857421875 76 214.571289062 53.427734375 360 c 0
 36.28515625 525.428710938 176 668.286132812 339.427734375 668.571289062 c 0
333.427734375 527.142578125 m 0
 334.571289062 533.713867188 325.142578125 547.142578125 314.571289062 546 c 0
 204.571289062 548 108.856445312 382 211.427734375 306.571289062 c 0
 234.571289062 291.713867188 298.856445312 246 318 279.142578125 c 0
 325.713867188 362 330 444 333.427734375 527.142578125 c 0
441.142578125 380.286132812 m 1
 441.142578125 380.286132812 441.142578125 380.286132812 441.427734375 380.286132812 c 0
 446.856445312 350.857421875 417.427734375 260.286132812 454.28515625 255.713867188 c 0
 518.28515625 267.428710938 601.142578125 309.713867188 598.28515625 384.571289062 c 0
 595.427734375 436.857421875 559.427734375 505.713867188 472.571289062 527.428710938 c 0
 427.427734375 527.713867188 450.571289062 414 441.142578125 380.286132812 c 1
EndSplineSet
EndChar

StartChar: glyph29
Encoding: 278 1061 29
Width: 703
VWidth: 0
Flags: W
LayerCount: 2
Fore
SplineSet
369.922851562 467.428710938 m 2
 439.922851562 543.713867188 501.63671875 630 573.922851562 704.286132812 c 0
 605.922851562 734.571289062 665.065429688 706.571289062 663.63671875 662.857421875 c 0
 666.494140625 630.857421875 640.494140625 609.713867188 622.494140625 586.857421875 c 0
 560.208007812 511.142578125 495.065429688 437.142578125 434.208007812 360.286132812 c 0
 417.350585938 329.428710938 458.208007812 297.713867188 467.63671875 268.571289062 c 0
 492.779296875 204 598.208007812 66.857421875 547.350585938 6.857421875 c 0
 439.065429688 -74 413.922851562 174.857421875 355.350585938 233.713867188 c 0
 328.494140625 268.857421875 175.065429688 23.4287109375 137.922851562 -5.7138671875 c 0
 107.350585938 -41.4287109375 33.63671875 -14.857421875 42.779296875 37.142578125 c 0
 93.0654296875 154.286132812 202.208007812 242.857421875 273.065429688 349.428710938 c 0
 289.065429688 376.286132812 255.065429688 404.571289062 245.922851562 429.428710938 c 0
 221.63671875 492.857421875 71.9228515625 692.571289062 188.208007812 718 c 0
 219.63671875 722.571289062 241.922851562 710.857421875 254.779296875 682.286132812 c 0
 281.065429688 614 309.63671875 546.857421875 345.63671875 483.142578125 c 0
 350.208007812 474.857421875 356.208007812 468.857421875 369.350585938 467.428710938 c 2
 369.922851562 467.428710938 l 2
EndSplineSet
EndChar

StartChar: glyph30
Encoding: 279 1062 30
Width: 727
VWidth: 0
Flags: W
HStem: 695.714 20G<159.449 206.592>
LayerCount: 2
Fore
SplineSet
623.020507812 86 m 2
 629.306640625 76.857421875 631.306640625 72.2861328125 634.44921875 69.4287109375 c 0
 683.020507812 29.142578125 674.44921875 -42.857421875 654.734375 -96 c 0
 619.306640625 -160.857421875 539.877929688 -122.286132812 543.020507812 -55.7138671875 c 0
 539.591796875 -47.7138671875 528.163085938 -45.142578125 519.877929688 -46 c 0
 394.44921875 -54.5712890625 269.591796875 -70 143.591796875 -62 c 0
 41.0205078125 -70.857421875 45.306640625 21.7138671875 56.734375 94.857421875 c 0
 90.1630859375 286.286132812 94.1630859375 481.142578125 115.306640625 673.713867188 c 0
 121.877929688 697.428710938 146.734375 715.142578125 172.163085938 715.713867188 c 0
 241.020507812 714.571289062 228.44921875 638 224.734375 590.571289062 c 0
 217.591796875 501.713867188 210.44921875 412.857421875 201.877929688 324.286132812 c 0
 193.591796875 240.286132812 180.44921875 156.571289062 173.591796875 72.5712890625 c 0
 178.44921875 43.7138671875 216.163085938 52.5712890625 237.591796875 50.5712890625 c 0
 321.591796875 57.7138671875 407.020507812 55.4287109375 489.591796875 72.5712890625 c 0
 497.306640625 74 502.44921875 80.2861328125 503.020507812 86.5712890625 c 0
 520.163085938 220.286132812 530.163085938 354.571289062 541.306640625 488.857421875 c 0
 557.877929688 556.571289062 519.020507812 701.713867188 602.734375 724.571289062 c 0
 695.877929688 737.142578125 662.734375 620.857421875 663.020507812 564.571289062 c 0
 651.877929688 404.286132812 634.44921875 246 622.44921875 85.7138671875 c 1
 623.020507812 86 l 2
EndSplineSet
EndChar

StartChar: glyph31
Encoding: 280 1063 31
Width: 722
VWidth: 0
Flags: W
HStem: 212.571 116<267.921 521.056>
VStem: 85.6113 92<643.881 717.452>
LayerCount: 2
Fore
SplineSet
177.611328125 604.857421875 m 2
 163.611328125 442.571289062 205.326171875 315.142578125 389.326171875 328.571289062 c 0
 427.040039062 336.571289062 522.75390625 310.857421875 533.326171875 356 c 0
 541.040039062 449.142578125 545.326171875 542.571289062 551.611328125 635.713867188 c 0
 549.611328125 676.286132812 569.897460938 733.713867188 618.46875 728 c 0
 673.040039062 718 673.897460938 667.713867188 668.182617188 624.857421875 c 0
 657.040039062 493.142578125 647.326171875 361.142578125 643.326171875 229.142578125 c 0
 629.326171875 166 667.326171875 33.7138671875 587.897460938 14 c 0
 558.182617188 6.5712890625 526.182617188 26.5712890625 523.040039062 57.4287109375 c 0
 513.611328125 93.142578125 541.611328125 200.571289062 505.897460938 212.571289062 c 0
 426.46875 218 345.611328125 202.286132812 267.897460938 225.142578125 c 0
 59.8974609375 269.713867188 16.1826171875 542.571289062 85.611328125 711.428710938 c 0
 114.75390625 740 151.326171875 731.428710938 173.326171875 700.571289062 c 0
 187.897460938 674.857421875 176.182617188 624.571289062 177.611328125 605.142578125 c 2
 177.611328125 604.857421875 l 2
EndSplineSet
EndChar

StartChar: glyph32
Encoding: 281 1064 32
Width: 705
VWidth: 0
Flags: W
HStem: -28.5713 120.285<191.533 271.141 389.131 489.022>
VStem: 102.286 101.143<432.852 708.001>
LayerCount: 2
Fore
SplineSet
335.71484375 -28.5712890625 m 1
 257.71484375 -11.142578125 77.4287109375 -61.4287109375 62 44.857421875 c 0
 69.4287109375 256.857421875 78.5712890625 470 102.286132812 680.571289062 c 0
 108 704.286132812 134.286132812 720.857421875 160.286132812 718.571289062 c 0
 247.428710938 701.713867188 196 588 203.428710938 526.571289062 c 0
 210.286132812 461.713867188 153.142578125 94.5712890625 201.142578125 91.7138671875 c 0
 224.571289062 93.142578125 266 77.142578125 271.142578125 111.428710938 c 0
 287.71484375 274.857421875 281.142578125 440.571289062 304.286132812 603.428710938 c 0
 311.142578125 634.857421875 350 654.857421875 379.71484375 639.142578125 c 0
 438.857421875 611.142578125 404.857421875 533.713867188 409.142578125 482.286132812 c 0
 403.71484375 391.142578125 397.428710938 300 392.571289062 208.571289062 c 0
 397.142578125 166.857421875 360.571289062 80.5712890625 431.142578125 90.2861328125 c 0
 495.71484375 91.4287109375 495.142578125 92.2861328125 499.428710938 154.571289062 c 0
 511.71484375 309.428710938 526.857421875 464 538 618.857421875 c 0
 535.71484375 661.428710938 553.71484375 724.286132812 606.286132812 716 c 0
 639.71484375 710.286132812 662 677.713867188 656.857421875 645.713867188 c 0
 643.71484375 502.286132812 631.428710938 359.142578125 620.286132812 215.428710938 c 0
 608.286132812 -74.2861328125 598.286132812 -14.857421875 335.142578125 -26.5712890625 c 0
 335.142578125 -27.4287109375 335.142578125 -28.2861328125 335.142578125 -29.142578125 c 1
 335.71484375 -28.5712890625 l 1
EndSplineSet
EndChar

StartChar: glyph33
Encoding: 282 1065 33
Width: 741
VWidth: 0
Flags: W
HStem: -52 113.714<179.501 255.767 376.741 472.56>
VStem: 109.924 105.715<475.28 704.574> 481.924 116<91.7572 380.687> 522.496 113.714<437.455 709.988> 552.21 131.143<-99.7727 -38.2853>
LayerCount: 2
Fore
SplineSet
57.638671875 52.857421875 m 1xc8
 79.0673828125 261.142578125 80.2099609375 473.713867188 109.923828125 680 c 0
 125.352539062 714.857421875 173.067382812 726.571289062 201.923828125 701.713867188 c 0
 231.352539062 676.857421875 213.638671875 631.142578125 215.638671875 597.428710938 c 0
 205.067382812 433.428710938 188.49609375 269.713867188 178.78125 105.713867188 c 0
 177.638671875 65.142578125 183.352539062 59.7138671875 226.49609375 61.7138671875 c 0
 257.638671875 60.2861328125 258.78125 94.2861328125 261.067382812 117.142578125 c 0
 276.49609375 280.571289062 281.923828125 445.428710938 303.923828125 608.286132812 c 0
 310.78125 647.713867188 353.638671875 666 388.78125 645.428710938 c 0
 450.209960938 612.857421875 378.78125 281.428710938 383.638671875 197.142578125 c 0
 386.78125 164.286132812 356.49609375 84 389.067382812 68 c 0
 470.209960938 70.2861328125 483.638671875 59.142578125 481.923828125 149.142578125 c 0xe0
 487.923828125 320.286132812 505.638671875 490.857421875 522.49609375 661.142578125 c 0
 519.638671875 717.713867188 593.067382812 749.713867188 627.067382812 700.571289062 c 0
 635.638671875 689.142578125 637.352539062 675.428710938 636.209960938 661.428710938 c 0xd0
 626.49609375 534 614.78125 406.571289062 605.067382812 279.142578125 c 0
 602.49609375 220 594.78125 160.571289062 597.923828125 101.428710938 c 0xe0
 598.49609375 97.7138671875 603.067382812 92.5712890625 606.49609375 91.7138671875 c 0
 636.209960938 87.142578125 677.638671875 84.5712890625 683.352539062 48 c 0
 692.209960938 -13.4287109375 686.78125 -125.713867188 607.067382812 -132.571289062 c 0
 569.067382812 -132.571289062 545.638671875 -97.142578125 552.209960938 -62 c 0
 552.209960938 -40.2861328125 548.209960938 -35.4287109375 530.49609375 -38.2861328125 c 0
 457.923828125 -49.4287109375 384.78125 -50.2861328125 311.923828125 -52 c 0
 241.352539062 -52.2861328125 170.209960938 -54 99.923828125 -47.7138671875 c 0
 49.0673828125 -41.4287109375 56.2099609375 14.857421875 56.49609375 52.857421875 c 0
 57.0673828125 52.857421875 57.3525390625 52.857421875 57.923828125 52.857421875 c 1
 57.638671875 52.857421875 l 1xc8
EndSplineSet
EndChar

StartChar: glyph34
Encoding: 283 1066 34
Width: 766
VWidth: 0
Flags: W
HStem: -4.85742 105.144<291.731 478.825> 448 21G<305.799 316.656> 578.857 113.429<63.2502 132.319>
VStem: 168.941 123.429<103.47 310.971>
LayerCount: 2
Fore
SplineSet
316.65625 448.286132812 m 1
 631.512695312 541.713867188 888.370117188 176.857421875 545.512695312 8.5712890625 c 0
 437.798828125 -39.7138671875 320.65625 -6.857421875 208.083984375 -4.857421875 c 0
 174.65625 0.2861328125 166.083984375 36 168.94140625 64.5712890625 c 0
 176.370117188 214.857421875 186.370117188 364.857421875 194.65625 515.142578125 c 0
 191.798828125 534.857421875 204.370117188 566.857421875 185.227539062 578.857421875 c 0
 137.227539062 591.142578125 58.083984375 562.286132812 47.5126953125 632.857421875 c 0
 44.083984375 660.286132812 58.083984375 684.571289062 82.65625 692.286132812 c 0
 137.227539062 706 196.65625 696.857421875 252.370117188 696 c 0
 302.083984375 692 320.083984375 668.286132812 317.227539062 618.857421875 c 0
 320.083984375 562.571289062 294.94140625 500.857421875 316.65625 448 c 1
 316.65625 448.286132812 l 1
292.370117188 202 m 1
 291.227539062 131.428710938 268.370117188 96.857421875 358.370117188 100.286132812 c 0
 385.512695312 99.142578125 412.94140625 99.4287109375 440.083984375 101.142578125 c 0
 539.227539062 100 655.512695312 227.713867188 547.227539062 304.571289062 c 0
 480.65625 348.857421875 393.227539062 365.428710938 323.227539062 320.571289062 c 0
 280.370117188 298.286132812 298.94140625 241.713867188 292.370117188 202.286132812 c 2
 292.370117188 202 l 1
EndSplineSet
EndChar

StartChar: glyph35
Encoding: 284 1067 35
Width: 762
VWidth: 0
Flags: W
VStem: 85.9131 108.857<447.019 686.276> 565.913 94.8574<-5.05803 180.769>
LayerCount: 2
Fore
SplineSet
170.485351562 4.2861328125 m 1
 88.19921875 -54 46.4853515625 17.4287109375 63.9130859375 97.142578125 c 0
 76.7705078125 279.142578125 87.056640625 461.428710938 85.9130859375 644 c 0
 71.341796875 714.286132812 176.485351562 746.286132812 196.770507812 675.142578125 c 0
 209.056640625 598.571289062 190.485351562 520 202.19921875 443.428710938 c 0
 210.770507812 428.857421875 231.913085938 441.428710938 245.341796875 440.857421875 c 0
 357.341796875 452.286132812 445.056640625 408 513.627929688 321.713867188 c 0
 654.19921875 121.428710938 357.056640625 -81.7138671875 170.485351562 4 c 1
 170.485351562 4.2861328125 l 1
273.341796875 100 m 0
 345.341796875 102.571289062 468.485351562 167.713867188 420.485351562 252.571289062 c 0
 374.485351562 320.857421875 234.19921875 369.428710938 194.770507812 273.428710938 c 0
 191.056640625 187.428710938 151.913085938 108.286132812 273.341796875 100 c 0
699.056640625 448.857421875 m 0
 682.19921875 296 691.913085938 155.713867188 660.770507812 16.2861328125 c 0
 650.770507812 -3.4287109375 625.913085938 -16.2861328125 603.627929688 -12.5712890625 c 0
 511.627929688 11.142578125 573.627929688 146.286132812 565.913085938 214.571289062 c 0
 575.627929688 364.571289062 586.19921875 514.857421875 593.913085938 665.142578125 c 0
 595.913085938 701.142578125 639.056640625 728 675.627929688 711.713867188 c 0
 739.627929688 681.713867188 689.913085938 504.571289062 699.056640625 448.857421875 c 0
EndSplineSet
EndChar

StartChar: glyph36
Encoding: 285 1068 36
Width: 683
VWidth: 0
Flags: W
HStem: -7.42871 114<301.747 407.938>
LayerCount: 2
Fore
SplineSet
302.033203125 -7.4287109375 m 0
 239.4609375 -13.4287109375 182.033203125 20 119.4609375 7.142578125 c 0
 9.4609375 3.4287109375 77.17578125 181.713867188 71.17578125 248.286132812 c 0
 84.033203125 382.286132812 96.318359375 516.571289062 111.4609375 650.286132812 c 0
 113.4609375 689.428710938 139.17578125 740 185.747070312 726.286132812 c 0
 272.604492188 701.428710938 203.17578125 531.142578125 210.318359375 460.571289062 c 0
 209.4609375 452 219.747070312 442.571289062 227.747070312 444 c 0
 681.4609375 557.142578125 801.747070312 -1.7138671875 302.033203125 -7.4287109375 c 0
301.747070312 106.571289062 m 1
 383.17578125 112.286132812 534.318359375 140 509.4609375 250 c 0
 462.604492188 358.857421875 291.17578125 373.713867188 209.4609375 297.142578125 c 0
 174.604492188 259.713867188 190.604492188 200.286132812 180.604492188 153.428710938 c 0
 185.4609375 102.857421875 266.318359375 115.713867188 301.747070312 106.857421875 c 2
 301.747070312 106.571289062 l 1
EndSplineSet
EndChar

StartChar: glyph37
Encoding: 286 1069 37
Width: 766
VWidth: 0
Flags: W
HStem: 297.429 93.7139<364.323 532.138>
VStem: 56.3926 122<185.139 401.845>
LayerCount: 2
Fore
SplineSet
568.392578125 260 m 1
 516.392578125 293.428710938 447.53515625 280 389.53515625 297.428710938 c 0
 367.53515625 303.713867188 349.821289062 333.713867188 353.249023438 357.428710938 c 0
 372.392578125 440.857421875 480.392578125 393.713867188 539.249023438 391.142578125 c 0
 593.821289062 384.286132812 600.963867188 382.857421875 595.249023438 448.286132812 c 0
 590.106445312 502.286132812 564.963867188 558 516.392578125 585.142578125 c 0
 468.677734375 614.571289062 420.106445312 603.428710938 376.677734375 571.142578125 c 0
 342.106445312 557.428710938 303.53515625 574 294.106445312 618 c 0
 316.963867188 724.571289062 467.249023438 737.142578125 552.392578125 697.428710938 c 0
 760.677734375 600 731.821289062 322 656.106445312 143.713867188 c 0
 583.249023438 -3.4287109375 380.963867188 -24.5712890625 238.392578125 20.5712890625 c 0
 141.821289062 52.857421875 59.8212890625 141.713867188 56.392578125 246.857421875 c 0
 58.392578125 304 43.2490234375 389.713867188 101.249023438 423.428710938 c 0
 140.392578125 442 176.677734375 408.571289062 178.392578125 380.571289062 c 0
 174.106445312 300.571289062 149.249023438 207.142578125 230.106445312 154.857421875 c 0
 334.963867188 79.4287109375 563.53515625 102.286132812 568.392578125 260.286132812 c 1
 568.392578125 260 l 1
EndSplineSet
EndChar

StartChar: k
Encoding: 107 107 38
Width: 617
Flags: W
LayerCount: 2
Fore
SplineSet
392.856445312 300 m 2
 426.856445312 250.286132812 427.713867188 192 459.142578125 142.571289062 c 0
 472.571289062 116.571289062 502 124.571289062 526 118 c 0
 563.142578125 106.571289062 577.428710938 58.857421875 552.571289062 29.142578125 c 0
 518.28515625 -17.142578125 452.571289062 -8.2861328125 412.28515625 25.7138671875 c 0
 357.713867188 67.142578125 329.142578125 128 315.713867188 193.713867188 c 0
 297.713867188 249.713867188 234 215.713867188 200.856445312 193.713867188 c 0
 164 165.428710938 181.142578125 106.286132812 169.713867188 65.4287109375 c 0
 176.571289062 -10.5712890625 57.4287109375 -24.857421875 56 53.7138671875 c 0
 68.28515625 249.428710938 92 444.286132812 108.571289062 639.713867188 c 0
 110 667.428710938 117.142578125 696.286132812 144.856445312 708 c 0
 284.856445312 745.142578125 194 474.286132812 204 399.142578125 c 0
 202.571289062 385.428710938 202.856445312 361.142578125 221.713867188 362 c 0
 409.428710938 379.713867188 350 545.142578125 453.142578125 526.857421875 c 0
 556.28515625 477.142578125 445.713867188 349.142578125 392.28515625 300 c 1
 392.856445312 300 l 2
EndSplineSet
EndChar

StartChar: glyph39
Encoding: 287 1070 39
Width: 783
VWidth: 0
Flags: W
VStem: 113.104 105.143<589.217 687.262> 276.818 112<177.375 370.588>
LayerCount: 2
Fore
SplineSet
210.818359375 588 m 1
 213.389648438 545.713867188 184.247070312 477.428710938 255.67578125 490.286132812 c 0
 278.818359375 494 310.533203125 487.428710938 324.247070312 511.713867188 c 0
 363.389648438 605.142578125 441.389648438 659.142578125 525.104492188 708.571289062 c 0
 577.67578125 749.142578125 632.818359375 681.428710938 662.533203125 642 c 0
 769.104492188 465.713867188 747.104492188 206.286132812 608.247070312 53.7138671875 c 0
 469.67578125 -98.857421875 285.9609375 65.4287109375 276.818359375 230 c 0
 263.389648438 265.142578125 299.389648438 370 256.533203125 374.571289062 c 0
 230.533203125 375.713867188 192.818359375 379.142578125 195.104492188 342.571289062 c 0
 177.389648438 269.428710938 205.389648438 25.7138671875 127.9609375 7.7138671875 c 0
 31.67578125 -6.2861328125 63.9609375 114.286132812 65.1044921875 172.286132812 c 0
 85.1044921875 343.428710938 77.67578125 521.713867188 113.104492188 689.142578125 c 0
 139.389648438 739.142578125 216.533203125 714.286132812 218.247070312 663.713867188 c 0
 217.67578125 638 213.389648438 614 211.389648438 588 c 2
 210.818359375 588 l 1
609.389648438 390.857421875 m 0
 608.818359375 760 388.247070312 494.857421875 388.818359375 293.428710938 c 0
 379.9609375 162.571289062 485.9609375 19.7138671875 568.533203125 197.142578125 c 0
 596.818359375 258 611.104492188 321.713867188 609.389648438 390.857421875 c 0
EndSplineSet
EndChar

StartChar: glyph40
Encoding: 288 1071 40
Width: 712
VWidth: 0
Flags: W
VStem: 506.813 111.715<15.5922 130.19>
LayerCount: 2
Fore
SplineSet
512.813476562 132 m 0
 507.95703125 143.428710938 526.528320312 223.142578125 497.099609375 214.286132812 c 0
 386.2421875 141.713867188 273.384765625 72.5712890625 155.670898438 11.4287109375 c 0
 124.813476562 -7.4287109375 82.5283203125 -19.4287109375 57.099609375 15.4287109375 c 0
 38.2421875 39.7138671875 44.2421875 77.142578125 68.8134765625 94.857421875 c 0
 175.670898438 159.713867188 293.384765625 209.142578125 390.813476562 288 c 0
 398.528320312 314.571289062 333.099609375 302.286132812 315.95703125 308 c 0
 151.670898438 306.857421875 -39.7578125 492.286132812 133.670898438 626.286132812 c 0
 260.813476562 712.857421875 498.813476562 772.286132812 628.813476562 668.286132812 c 0
 680.528320312 615.142578125 645.95703125 537.142578125 649.384765625 471.428710938 c 0
 637.95703125 323.428710938 632.813476562 174.571289062 618.528320312 27.142578125 c 0
 600.2421875 -33.142578125 514.2421875 -25.142578125 506.813476562 36 c 0
 505.670898438 69.7138671875 510.2421875 93.142578125 512.813476562 132 c 0
539.384765625 538 m 0
 576.2421875 673.428710938 229.099609375 578.857421875 190.813476562 520.286132812 c 0
 157.95703125 406 447.95703125 402.857421875 513.384765625 443.428710938 c 0
 543.95703125 461.142578125 530.2421875 508 539.384765625 538 c 0
EndSplineSet
EndChar

StartChar: glyph41
Encoding: 289 1072 41
Width: 717
VWidth: 0
Flags: W
LayerCount: 2
Fore
SplineSet
55.83984375 180.286132812 m 0
 16.1259765625 424.286132812 632.697265625 661.713867188 626.697265625 433.428710938 c 0
 603.83984375 321.428710938 611.268554688 204.571289062 645.268554688 95.4287109375 c 0
 667.83984375 54.2861328125 651.83984375 -7.142578125 597.5546875 -6.2861328125 c 0
 518.982421875 -10.857421875 542.697265625 139.713867188 497.5546875 124.571289062 c 0
 373.83984375 -22.2861328125 55.83984375 -89.7138671875 55.83984375 180.286132812 c 0
489.83984375 396.857421875 m 0
 477.268554688 406 467.83984375 405.142578125 459.5546875 402.857421875 c 0
 340.697265625 371.142578125 145.83984375 302.286132812 175.83984375 147.428710938 c 0
 190.411132812 96.857421875 248.982421875 110.286132812 286.697265625 122.286132812 c 0
 409.5546875 165.713867188 477.268554688 269.142578125 489.83984375 396.857421875 c 0
EndSplineSet
EndChar

StartChar: glyph42
Encoding: 290 1073 42
Width: 719
VWidth: 0
Flags: W
HStem: 330.857 125.143<178.217 260.608 420.577 514.929>
LayerCount: 2
Fore
SplineSet
260.323242188 330.857421875 m 2
 68.037109375 336 -33.962890625 532.571289062 137.180664062 650.571289062 c 0
 193.751953125 704.857421875 630.323242188 747.713867188 638.037109375 647.428710938 c 0
 645.180664062 582.286132812 576.89453125 578.286132812 528.89453125 584.286132812 c 0
 425.465820312 584 316.037109375 597.428710938 216.608398438 563.428710938 c 0
 181.751953125 553.142578125 147.465820312 504.286132812 181.180664062 474 c 0
 256.89453125 430 353.180664062 460.571289062 436.608398438 456 c 0
 664.89453125 482.857421875 742.323242188 137.428710938 558.89453125 31.7138671875 c 0
 398.037109375 -81.4287109375 120.323242188 66.5712890625 229.465820312 268.286132812 c 0
 237.180664062 289.428710938 267.180664062 308.286132812 260.608398438 330.857421875 c 2
 260.323242188 330.857421875 l 2
415.465820312 110.286132812 m 0
 480.608398438 110.286132812 545.465820312 149.428710938 544.037109375 221.142578125 c 0
 544.037109375 284.571289062 522.323242188 349.142578125 446.608398438 336.571289062 c 0
 437.751953125 336 428.608398438 332.571289062 425.465820312 322 c 0
 419.465820312 301.428710938 406.608398438 286.571289062 390.037109375 273.142578125 c 0
 302.037109375 219.142578125 295.180664062 116 415.465820312 110.286132812 c 0
EndSplineSet
EndChar

StartChar: glyph43
Encoding: 291 1074 43
Width: 719
VWidth: 0
Flags: W
LayerCount: 2
Fore
SplineSet
389.469726562 423.142578125 m 2
 394.327148438 412 402.327148438 408.857421875 411.754882812 407.142578125 c 0
 465.469726562 397.713867188 519.754882812 389.142578125 570.327148438 367.428710938 c 0
 822.041015625 238.571289062 512.041015625 8.857421875 345.469726562 -3.142578125 c 0
 0.3271484375 -36.857421875 42.8984375 197.142578125 84.6123046875 447.142578125 c 0
 136.8984375 821.142578125 598.612304688 739.713867188 389.18359375 423.142578125 c 1
 389.469726562 423.142578125 l 2
272.327148438 108.571289062 m 1
 374.327148438 107.713867188 459.754882812 148.857421875 533.469726562 216 c 0
 551.18359375 234.571289062 547.18359375 253.713867188 522.8984375 262.571289062 c 0
 435.18359375 286.857421875 326.041015625 325.713867188 252.327148438 250.857421875 c 0
 235.469726562 236 214.327148438 237.428710938 194.041015625 241.713867188 c 0
 162.8984375 240.857421875 168.041015625 196.286132812 170.041015625 174.571289062 c 0
 173.18359375 123.428710938 237.18359375 112.286132812 272.327148438 108.286132812 c 1
 272.327148438 108.571289062 l 1
328.612304688 559.713867188 m 0
 301.18359375 635.142578125 186.041015625 484 212.8984375 446.571289062 c 0
 257.18359375 454 324.041015625 512.857421875 328.612304688 559.713867188 c 0
EndSplineSet
EndChar

StartChar: glyph44
Encoding: 292 1075 44
Width: 605
VWidth: 0
Flags: W
VStem: 51.9219 114<285.752 333.97>
LayerCount: 2
Fore
SplineSet
304.20703125 514.286132812 m 0
 403.635742188 514.857421875 447.635742188 416 407.921875 334.857421875 c 0
 401.921875 283.142578125 250.20703125 130.857421875 309.921875 107.428710938 c 0
 417.064453125 87.4287109375 424.493164062 280 524.493164062 232.286132812 c 0
 606.778320312 164 458.778320312 28 390.20703125 3.4287109375 c 0
 289.064453125 -45.4287109375 135.921875 34.857421875 180.778320312 163.428710938 c 0
 181.349609375 203.142578125 345.635742188 398 275.635742188 390.857421875 c 0
 226.20703125 375.142578125 179.921875 344 165.921875 289.428710938 c 0
 141.635742188 212 25.349609375 269.428710938 51.921875 338.571289062 c 0
 94.4931640625 439.142578125 196.778320312 504.286132812 304.20703125 514.286132812 c 0
EndSplineSet
EndChar

StartChar: glyph45
Encoding: 293 1076 45
Width: 756
VWidth: 0
Flags: W
LayerCount: 2
Fore
SplineSet
554.056640625 434 m 2
 562.056640625 636.857421875 240.341796875 652.571289062 158.627929688 498.286132812 c 0
 144.913085938 469.428710938 111.485351562 448.571289062 79.7705078125 464.286132812 c 0
 -41.658203125 551.142578125 206.913085938 714 296.627929688 713.142578125 c 0
 623.19921875 777.142578125 762.627929688 419.428710938 672.341796875 156.286132812 c 0
 618.341796875 21.4287109375 425.19921875 -54.2861328125 298.913085938 22.857421875 c 0
 119.770507812 183.713867188 346.056640625 470.571289062 554.056640625 433.713867188 c 1
 554.056640625 434 l 2
580.913085938 281.428710938 m 1
 580.913085938 277.713867188 580.913085938 280 580.913085938 282.286132812 c 0
 580.913085938 295.142578125 574.627929688 304.857421875 563.19921875 308 c 0
 462.056640625 352.286132812 343.485351562 251.713867188 353.485351562 145.713867188 c 0
 367.770507812 84.857421875 456.056640625 116.286132812 496.627929688 130.571289062 c 0
 556.913085938 156 580.341796875 216.286132812 580.913085938 281.428710938 c 1
EndSplineSet
EndChar

StartChar: glyph46
Encoding: 294 1077 46
Width: 669
VWidth: 0
Flags: W
LayerCount: 2
Fore
SplineSet
364.37109375 112.286132812 m 0
 426.65625 108.571289062 481.513671875 137.142578125 512.942382812 191.428710938 c 0
 538.084960938 221.428710938 586.942382812 218 606.084960938 184.286132812 c 0
 616.942382812 165.142578125 616.084960938 144.857421875 606.084960938 125.428710938 c 0
 535.227539062 -14 350.942382812 -26 218.084960938 20.2861328125 c 0
 25.2275390625 72 15.2275390625 328.286132812 126.37109375 463.713867188 c 0
 195.798828125 548.286132812 309.227539062 583.142578125 416.084960938 567.428710938 c 0
 471.798828125 559.142578125 511.798828125 527.428710938 534.65625 475.142578125 c 0
 580.37109375 342.286132812 375.513671875 241.428710938 283.798828125 180 c 0
 164.942382812 127.713867188 312.37109375 115.142578125 364.37109375 112.286132812 c 0
367.227539062 458 m 2
 268.65625 455.713867188 177.798828125 386 174.65625 279.713867188 c 0
 173.798828125 266.571289062 184.65625 259.713867188 197.227539062 265.428710938 c 0
 237.798828125 282.571289062 522.942382812 450.571289062 367.513671875 457.713867188 c 2
 367.227539062 458 l 2
EndSplineSet
EndChar

StartChar: glyph47
Encoding: 295 1078 47
Width: 796
VWidth: 0
Flags: W
VStem: 315.026 109.429<19.8602 97.9035> 346.741 127.429<394.535 494.317>
LayerCount: 2
Fore
SplineSet
482.169921875 236.286132812 m 1x40
 531.883789062 164 637.883789062 137.428710938 711.598632812 90.5712890625 c 0
 729.598632812 79.4287109375 737.3125 53.142578125 731.598632812 29.4287109375 c 0
 688.455078125 -74.857421875 525.3125 69.4287109375 460.741210938 96.5712890625 c 0
 420.741210938 110.857421875 438.741210938 45.4287109375 424.455078125 24.5712890625 c 0
 406.169921875 -32.5712890625 311.3125 -13.142578125 315.026367188 47.142578125 c 0x80
 311.598632812 63.7138671875 333.026367188 107.142578125 303.026367188 102 c 0
 232.169921875 76.2861328125 108.169921875 -83.142578125 53.0263671875 31.4287109375 c 0
 47.0263671875 50 49.5986328125 68.5712890625 63.8837890625 82.2861328125 c 0
 131.883789062 137.713867188 210.455078125 176 278.455078125 232 c 0
 241.3125 307.428710938 31.8837890625 442.857421875 60.7412109375 516.571289062 c 0
 72.7412109375 548.857421875 110.455078125 563.713867188 139.3125 546 c 0
 210.741210938 493.142578125 260.741210938 416.286132812 327.598632812 357.428710938 c 0
 331.026367188 354 339.883789062 356.286132812 346.741210938 355.713867188 c 0
 357.3125 408 352.169921875 463.713867188 375.3125 510.857421875 c 0
 401.3125 546.857421875 444.455078125 540 467.3125 508.286132812 c 0
 483.3125 476.286132812 471.883789062 435.713867188 474.169921875 400.857421875 c 0
 474.169921875 398.571289062 481.883789062 393.713867188 483.883789062 394.571289062 c 0
 549.883789062 430.286132812 596.741210938 494.857421875 664.169921875 528.286132812 c 0
 687.883789062 538.286132812 718.741210938 527.428710938 729.883789062 506.857421875 c 0
 756.455078125 459.428710938 714.741210938 426.286132812 681.3125 400.857421875 c 0
 615.598632812 345.713867188 546.455078125 293.142578125 482.455078125 236.286132812 c 2
 482.169921875 236.286132812 l 1x40
EndSplineSet
EndChar

StartChar: glyph48
Encoding: 296 1079 48
Width: 529
VWidth: 0
Flags: W
LayerCount: 2
Fore
SplineSet
409.053710938 287.428710938 m 2
 489.33984375 219.142578125 490.482421875 74.857421875 393.625 21.4287109375 c 0
 293.911132812 -27.7138671875 40.7685546875 -44 45.0537109375 115.428710938 c 0
 47.33984375 135.428710938 57.33984375 149.142578125 74.7685546875 158 c 0
 99.33984375 172 133.053710938 164.286132812 147.33984375 140.571289062 c 0
 155.053710938 116.857421875 174.768554688 111.142578125 195.053710938 107.142578125 c 0
 243.053710938 101.713867188 317.911132812 95.142578125 346.768554688 140.286132812 c 0
 367.053710938 218.286132812 270.482421875 206 223.053710938 199.142578125 c 0
 171.33984375 197.713867188 149.911132812 281.142578125 199.053710938 303.713867188 c 0
 215.625 310.857421875 233.33984375 315.428710938 250.768554688 321.428710938 c 0
 291.33984375 329.142578125 355.911132812 398.857421875 274.482421875 392.286132812 c 0
 215.053710938 348.857421875 142.197265625 382.571289062 172.768554688 457.428710938 c 0
 282.197265625 600.571289062 516.768554688 450 408.768554688 288 c 1
 409.053710938 287.428710938 l 2
EndSplineSet
EndChar

StartChar: l
Encoding: 108 108 49
Width: 388
Flags: W
VStem: 146.477 105.429<600.11 684.641>
LayerCount: 2
Fore
SplineSet
53.6201171875 192.571289062 m 0
 69.9052734375 358 105.048828125 521.428710938 146.4765625 682 c 0
 167.048828125 734 256.4765625 713.428710938 251.905273438 656.857421875 c 0
 235.620117188 483.428710938 160.762695312 314.857421875 174.19140625 139.142578125 c 0
 194.762695312 116.857421875 223.905273438 166 245.048828125 174 c 0
 294.4765625 210.857421875 367.620117188 138.571289062 322.762695312 91.142578125 c 0
 190.762695312 -57.7138671875 42.19140625 -16.857421875 53.6201171875 192.571289062 c 0
EndSplineSet
EndChar

StartChar: glyph50
Encoding: 297 1080 50
Width: 613
VWidth: 0
Flags: W
VStem: 66 122.571<192.678 317.756> 418.571 122.857<9.29462 226.405>
LayerCount: 2
Fore
SplineSet
541.428710938 265.142578125 m 2
 524.857421875 196 570.28515625 -26.5712890625 470.857421875 -20.2861328125 c 0
 380 -13.142578125 433.713867188 165.142578125 418.571289062 231.428710938 c 0
 405.428710938 248 387.142578125 209.428710938 375.713867188 201.142578125 c 0
 320 143.428710938 126.28515625 -128.286132812 66 33.142578125 c 0
 71.4287109375 191.142578125 64 355.142578125 94.28515625 510 c 0
 115.428710938 556.286132812 192.857421875 539.713867188 198 492.857421875 c 0
 199.713867188 392.857421875 188 292.571289062 188.571289062 192.286132812 c 0
 223.713867188 152 424.28515625 468.571289062 436.571289062 513.142578125 c 0
 451.713867188 541.142578125 482 552 512.28515625 539.142578125 c 0
 576.571289062 508.286132812 530.28515625 332 540.571289062 265.142578125 c 0
 540.857421875 265.142578125 541.142578125 265.142578125 541.713867188 265.142578125 c 1
 541.428710938 265.142578125 l 2
EndSplineSet
EndChar

StartChar: glyph51
Encoding: 298 1081 51
Width: 643
VWidth: 0
Flags: W
HStem: 563.429 115.714<263.161 351.002>
VStem: 63.002 131.429<203.337 357.656>
LayerCount: 2
Fore
SplineSet
569.288085938 264.857421875 m 1
 553.288085938 194 606.14453125 -17.4287109375 497.001953125 -9.4287109375 c 0
 398.14453125 10 471.001953125 191.713867188 452.715820312 265.142578125 c 0
 439.573242188 287.142578125 421.001953125 251.142578125 408.715820312 242.286132812 c 0
 345.288085938 173.428710938 281.859375 104.571289062 218.430664062 35.7138671875 c 0
 190.14453125 5.7138671875 162.715820312 -30.2861328125 116.430664062 -20.5712890625 c 0
 76.14453125 -16 57.2880859375 24 63.001953125 61.142578125 c 0
 71.001953125 204.571289062 67.859375 349.142578125 85.001953125 492 c 0
 91.859375 538.571289062 162.14453125 550.286132812 185.288085938 508.857421875 c 0
 199.001953125 487.142578125 194.430664062 460 194.430664062 435.713867188 c 0
 193.288085938 356 183.573242188 276 187.573242188 196.286132812 c 0
 196.430664062 182.857421875 211.573242188 199.428710938 219.573242188 206.286132812 c 0
 313.001953125 303.713867188 398.430664062 407.713867188 476.715820312 517.713867188 c 0
 492.715820312 536.571289062 518.430664062 544 538.430664062 535.713867188 c 0
 615.573242188 502 560.430664062 337.142578125 570.430664062 264.857421875 c 1
 569.859375 264.857421875 569.288085938 264.857421875 568.715820312 264.857421875 c 1
 569.288085938 264.857421875 l 1
351.001953125 678.857421875 m 1
 383.859375 700.286132812 429.288085938 720.857421875 457.573242188 678.286132812 c 0
 497.001953125 613.428710938 408.715820312 559.142578125 351.288085938 563.428710938 c 0
 292.715820312 559.428710938 190.430664062 601.428710938 241.001953125 672.857421875 c 0
 269.288085938 709.142578125 313.001953125 685.713867188 351.001953125 679.142578125 c 2
 351.001953125 678.857421875 l 1
EndSplineSet
EndChar

StartChar: glyph52
Encoding: 299 1082 52
Width: 586
VWidth: 0
Flags: W
VStem: 53.1924 129.429<18.8304 141.061> 92.9072 125.143<364.6 496.83>
LayerCount: 2
Fore
SplineSet
53.1923828125 47.4287109375 m 2x80
 61.7646484375 148 79.7646484375 246.571289062 92.9072265625 346.571289062 c 0
 112.62109375 404.286132812 86.3359375 523.142578125 157.764648438 542 c 0
 245.764648438 557.142578125 224.62109375 453.142578125 218.049804688 398.571289062 c 0x40
 217.192382812 386.286132812 205.478515625 369.713867188 222.049804688 362.286132812 c 0
 236.049804688 356 246.907226562 371.142578125 257.192382812 378.857421875 c 0
 317.192382812 424 373.478515625 474.571289062 435.192382812 517.713867188 c 0
 456.62109375 530.857421875 486.62109375 524.571289062 503.478515625 504.857421875 c 0
 572.049804688 423.713867188 348.62109375 323.142578125 300.62109375 266.857421875 c 0
 209.192382812 221.428710938 472.049804688 125.713867188 504.62109375 96.857421875 c 0
 525.192382812 83.7138671875 531.764648438 47.4287109375 518.62109375 22.2861328125 c 0
 471.764648438 -61.7138671875 272.049804688 96 216.3359375 132.571289062 c 0
 207.764648438 138.857421875 188.907226562 154.286132812 182.62109375 139.428710938 c 0
 166.62109375 89.142578125 184.907226562 11.7138671875 128.049804688 -13.7138671875 c 0
 85.7646484375 -30.857421875 50.0498046875 8.5712890625 53.1923828125 46.857421875 c 2
 53.1923828125 47.4287109375 l 2x80
EndSplineSet
EndChar

StartChar: glyph53
Encoding: 300 1083 53
Width: 488
VWidth: 0
Flags: W
VStem: 46 121.429<43.5627 141.608>
LayerCount: 2
Fore
SplineSet
46 62.2861328125 m 0
 76 219.428710938 158.286132812 361.713867188 223.428710938 506.571289062 c 0
 239.71484375 556.286132812 312.572265625 560.286132812 330 516.286132812 c 0
 373.71484375 372.571289062 369.143554688 217.428710938 420.286132812 75.142578125 c 0
 454 18 366.286132812 -44.5712890625 325.143554688 12.5712890625 c 0
 275.71484375 89.4287109375 286 194.857421875 249.71484375 270.857421875 c 1
 202.572265625 223.428710938 191.143554688 137.713867188 167.428710938 73.7138671875 c 0
 162 -14.857421875 51.1435546875 -40.857421875 46 62.2861328125 c 0
EndSplineSet
EndChar

StartChar: glyph54
Encoding: 301 1084 54
Width: 673
VWidth: 0
Flags: W
VStem: 126.555 162<362.125 507.559> 456.84 108<17.9353 164.576> 473.126 140.286<421.893 508.941>
LayerCount: 2
Fore
SplineSet
200.83984375 221.428710938 m 2xc0
 154.5546875 158 201.412109375 35.7138671875 121.125976562 -1.142578125 c 0
 94.83984375 -10 63.9833984375 5.4287109375 54.83984375 32 c 0
 46.5546875 175.713867188 101.697265625 320.286132812 126.5546875 462 c 0
 130.83984375 508.286132812 169.697265625 529.142578125 210.83984375 539.428710938 c 0
 264.268554688 555.713867188 287.697265625 496.286132812 288.5546875 452.857421875 c 0
 303.983398438 381.142578125 300.83984375 299.142578125 327.412109375 233.142578125 c 0
 338.5546875 224.857421875 349.983398438 248 356.268554688 256.286132812 c 0
 398.268554688 324.286132812 438.5546875 393.428710938 473.125976562 465.428710938 c 0
 488.5546875 494.571289062 498.83984375 535.142578125 537.412109375 538.571289062 c 0
 642.83984375 559.713867188 623.125976562 458.857421875 613.412109375 390.571289062 c 0xa0
 593.983398438 269.142578125 585.412109375 145.142578125 564.83984375 24.5712890625 c 0
 548.5546875 -29.4287109375 456.5546875 -15.142578125 456.83984375 41.142578125 c 0
 456.83984375 68.2861328125 459.697265625 95.7138671875 462.268554688 122.857421875 c 0
 467.412109375 149.428710938 477.125976562 224.571289062 438.268554688 167.142578125 c 0
 389.412109375 114.571289062 333.983398438 -80 244.83984375 15.4287109375 c 0
 217.697265625 80.2861328125 225.125976562 155.713867188 201.125976562 221.428710938 c 2
 200.83984375 221.428710938 l 2xc0
EndSplineSet
EndChar

StartChar: glyph55
Encoding: 302 1085 55
Width: 611
VWidth: 0
Flags: W
HStem: -8.28613 343.144<295.846 477.274> 506.571 20G<117.274 187.417>
VStem: 418.417 113.143<4.20962 210.709>
LayerCount: 2
Fore
SplineSet
190.130859375 203.713867188 m 1
 164.98828125 141.142578125 208.98828125 20.2861328125 133.559570312 -7.7138671875 c 0
 103.845703125 -16.5712890625 71.5595703125 0.857421875 64.7021484375 31.4287109375 c 0
 60.4169921875 172.286132812 76.98828125 314 80.7021484375 454.857421875 c 0
 77.845703125 489.428710938 97.845703125 525.428710938 136.702148438 526.571289062 c 0
 238.130859375 518.857421875 170.130859375 396.857421875 201.274414062 337.428710938 c 0
 232.416992188 325.428710938 264.416992188 335.428710938 295.845703125 334.857421875 c 0
 327.274414062 340.857421875 412.98828125 318.857421875 422.98828125 353.142578125 c 0
 435.845703125 415.428710938 402.702148438 534.286132812 486.416992188 550.286132812 c 0
 508.416992188 550.571289062 525.559570312 540 538.130859375 522 c 0
 558.416992188 378.571289062 529.559570312 225.428710938 531.559570312 78.857421875 c 0
 533.845703125 40.5712890625 524.416992188 -5.7138671875 477.274414062 -8.2861328125 c 0
 374.130859375 -9.4287109375 425.559570312 126.571289062 418.416992188 190.571289062 c 0
 418.416992188 226 370.416992188 219.142578125 345.845703125 220.857421875 c 0
 294.702148438 213.713867188 236.98828125 222.857421875 189.845703125 203.428710938 c 1
 190.130859375 203.713867188 l 1
EndSplineSet
EndChar

StartChar: glyph56
Encoding: 303 1086 56
Width: 611
VWidth: 0
Flags: W
LayerCount: 2
Fore
SplineSet
323.399414062 526 m 2
 484.255859375 526.571289062 601.11328125 332.571289062 537.684570312 189.713867188 c 0
 474.827148438 48.5712890625 255.684570312 -90 128.255859375 51.4287109375 c 0
 -40.6005859375 233.428710938 101.684570312 528.571289062 323.11328125 526 c 2
 323.399414062 526 l 2
171.684570312 239.142578125 m 0
 173.970703125 185.428710938 208.541992188 89.142578125 279.399414062 111.142578125 c 0
 372.827148438 140.857421875 485.970703125 240.857421875 420.255859375 343.713867188 c 0
 339.970703125 475.142578125 161.970703125 380.286132812 171.684570312 239.142578125 c 0
EndSplineSet
EndChar

StartChar: glyph57
Encoding: 304 1087 57
Width: 626
VWidth: 0
Flags: W
VStem: 58.8398 106.286<2.01331 175.069> 86.2686 108<234.479 356.781> 343.983 101.143<148.786 405.632>
LayerCount: 2
Fore
SplineSet
445.125976562 145.713867188 m 2x60
 459.125976562 143.713867188 466.83984375 152.857421875 475.125976562 160 c 0
 530.5546875 203.142578125 598.83984375 134.286132812 555.411132812 78.857421875 c 0
 499.983398438 -2 364.5546875 -58.857421875 332.268554688 72.5712890625 c 0
 307.411132812 174 345.125976562 276.286132812 343.983398438 378.286132812 c 0
 342.83984375 400 321.125976562 414.857421875 300.268554688 410.286132812 c 0
 247.983398438 398 196.268554688 356.857421875 194.268554688 300.571289062 c 0x60
 191.411132812 205.142578125 182.83984375 109.142578125 165.125976562 15.142578125 c 0
 155.697265625 -34.2861328125 63.697265625 -31.7138671875 58.83984375 21.4287109375 c 0xa0
 57.697265625 41.7138671875 57.4111328125 62.5712890625 59.9833984375 82.857421875 c 0
 80.83984375 223.142578125 80.5546875 364.571289062 86.2685546875 505.713867188 c 0
 103.125976562 564 179.983398438 547.428710938 204.268554688 501.428710938 c 0
 299.411132812 551.142578125 425.411132812 529.142578125 452.83984375 422.571289062 c 0
 483.697265625 332.571289062 424.268554688 236.857421875 445.125976562 146 c 2
 445.125976562 145.713867188 l 2x60
EndSplineSet
EndChar

StartChar: glyph58
Encoding: 305 1088 58
Width: 627
VWidth: 0
Flags: W
VStem: 81.5967 105.143<156.304 354.4>
LayerCount: 2
Fore
SplineSet
49.5966796875 -132 m 1
 69.310546875 57.4287109375 73.8828125 239.713867188 81.5966796875 422 c 0
 82.4541015625 464 81.5966796875 518.286132812 141.596679688 516.286132812 c 0
 166.739257812 516.286132812 188.16796875 495.142578125 213.310546875 506.857421875 c 0
 705.8828125 606.286132812 673.8828125 -71.142578125 204.454101562 5.7138671875 c 0
 134.454101562 6.2861328125 216.16796875 -215.713867188 96.7392578125 -196.857421875 c 0
 67.310546875 -191.142578125 45.025390625 -157.142578125 49.5966796875 -131.713867188 c 1
 49.5966796875 -132 l 1
199.025390625 357.428710938 m 2
 188.739257812 292.857421875 191.8828125 226 186.739257812 160.571289062 c 0
 185.8828125 146.286132812 193.025390625 134.286132812 206.16796875 128 c 0
 297.596679688 85.142578125 411.8828125 136 449.025390625 228.857421875 c 0
 505.8828125 364.571289062 282.739257812 470.286132812 199.310546875 357.428710938 c 2
 199.025390625 357.428710938 l 2
EndSplineSet
EndChar

StartChar: glyph59
Encoding: 306 1089 59
Width: 562
VWidth: 0
Flags: W
HStem: -8.85742 21G<306.904 342.905>
LayerCount: 2
Fore
SplineSet
306.904296875 -8.857421875 m 2
 106.047851562 -19.4287109375 -21.095703125 219.142578125 103.190429688 378.571289062 c 0
 172.333007812 482.857421875 357.475585938 603.428710938 453.76171875 469.428710938 c 0
 528.047851562 374.857421875 405.475585938 280.286132812 357.475585938 400.286132812 c 0
 309.76171875 438.286132812 221.475585938 345.142578125 194.904296875 306 c 0
 99.76171875 141.713867188 304.619140625 49.4287109375 428.904296875 149.142578125 c 0
 458.047851562 162.571289062 496.333007812 141.142578125 502.333007812 108.571289062 c 0
 510.047851562 23.4287109375 378.619140625 -6.5712890625 307.190429688 -8.857421875 c 2
 306.904296875 -8.857421875 l 2
EndSplineSet
EndChar

StartChar: m
Encoding: 109 109 60
Width: 768
Flags: W
HStem: 467.714 21G<188.9 201.899>
VStem: 581.614 102.571<22.5347 26.8574 255.344 340.456>
LayerCount: 2
Fore
SplineSet
201.899414062 468 m 1
 273.04296875 511.142578125 360.470703125 541.142578125 423.04296875 470 c 0
 690.470703125 593.428710938 744.756835938 398.286132812 681.614257812 172.286132812 c 0
 673.614257812 138.571289062 672.470703125 106.286132812 684.185546875 71.7138671875 c 0
 707.614257812 9.142578125 613.899414062 -28 581.614257812 26.857421875 c 0
 516.756835938 130.571289062 604.185546875 250 587.328125 361.428710938 c 0
 575.328125 430 484.756835938 364 455.899414062 338.571289062 c 0
 407.328125 270.571289062 469.899414062 8.5712890625 372.185546875 0.2861328125 c 0
 233.899414062 4 357.328125 288.857421875 325.899414062 376.571289062 c 0
 299.04296875 410.571289062 245.04296875 346 220.470703125 328.571289062 c 0
 191.328125 238 181.04296875 136.286132812 168.756835938 40.5712890625 c 0
 163.899414062 16.5712890625 139.899414062 -0.857421875 112.756835938 -0.2861328125 c 0
 3.328125 19.4287109375 85.04296875 206.571289062 89.328125 281.428710938 c 0
 101.614257812 336.286132812 99.8994140625 390.286132812 80.7568359375 443.142578125 c 0
 73.6142578125 462.857421875 80.7568359375 478.857421875 92.470703125 493.713867188 c 0
 128.756835938 535.713867188 175.614257812 506 202.185546875 467.713867188 c 1
 201.899414062 468 l 1
EndSplineSet
EndChar

StartChar: glyph61
Encoding: 307 1090 61
Width: 891
VWidth: 0
Flags: W
HStem: 404 120.571<504.843 596.281> 615.143 114.571<226.313 608.109>
VStem: 60.4648 122.857<31.7736 289.852>
LayerCount: 2
Fore
SplineSet
212.750976562 471.713867188 m 2
 282.46484375 522.286132812 367.608398438 547.713867188 438.46484375 488.857421875 c 0
 485.322265625 493.713867188 528.1796875 523.142578125 576.750976562 524.571289062 c 0
 794.750976562 526.286132812 698.46484375 254.571289062 715.608398438 120.286132812 c 0
 716.46484375 117.428710938 723.036132812 113.428710938 725.893554688 114.286132812 c 0
 758.750976562 128 801.322265625 138.857421875 823.893554688 102.286132812 c 0
 884.750976562 -3.7138671875 591.893554688 -103.713867188 594.1796875 106.857421875 c 0
 580.1796875 180.286132812 641.322265625 362.286132812 583.608398438 404 c 0
 546.750976562 405.428710938 501.893554688 392.286132812 483.036132812 358.571289062 c 0
 446.1796875 262.571289062 455.608398438 155.428710938 441.893554688 54.5712890625 c 0
 441.036132812 31.7138671875 434.1796875 8.857421875 414.750976562 -5.4287109375 c 0
 378.1796875 -32.5712890625 331.608398438 -4 325.893554688 33.7138671875 c 0
 331.036132812 140.286132812 345.322265625 247.428710938 353.322265625 354.286132812 c 0
 364.750976562 478.286132812 234.750976562 328.571289062 206.1796875 294.286132812 c 0
 184.750976562 262 191.036132812 218.571289062 183.322265625 181.713867188 c 0
 170.46484375 116.857421875 187.893554688 -52 76.7509765625 2.2861328125 c 0
 42.46484375 30.5712890625 58.46484375 80.2861328125 60.46484375 118.286132812 c 0
 73.6083984375 236.286132812 86.1796875 354.286132812 89.322265625 473.142578125 c 0
 86.7509765625 579.142578125 211.608398438 578.857421875 212.46484375 471.142578125 c 1
 212.750976562 471.713867188 l 2
426.1796875 614.857421875 m 1
 346.1796875 615.713867188 298.1796875 599.142578125 232.1796875 613.428710938 c 0
 193.893554688 635.142578125 193.608398438 695.713867188 235.322265625 713.428710938 c 0
 274.1796875 725.428710938 316.750976562 726.286132812 357.036132812 729.713867188 c 0
 438.1796875 720 559.608398438 761.428710938 620.46484375 697.713867188 c 0
 677.036132812 574.571289062 479.322265625 617.428710938 426.1796875 615.142578125 c 2
 426.1796875 614.857421875 l 1
EndSplineSet
EndChar

StartChar: glyph62
Encoding: 308 1091 62
Width: 582
VWidth: 0
Flags: W
LayerCount: 2
Fore
SplineSet
296.108398438 0.5712890625 m 1
 219.536132812 36.857421875 172.6796875 100.286132812 155.250976562 181.713867188 c 0
 139.250976562 285.142578125 109.822265625 416 167.536132812 508.286132812 c 0
 194.108398438 533.142578125 251.250976562 516.857421875 256.393554688 472.857421875 c 0
 261.536132812 367.428710938 236.6796875 253.713867188 287.536132812 156 c 0
 356.393554688 51.142578125 368.6796875 192.857421875 379.536132812 246.857421875 c 0
 404.6796875 311.142578125 388.393554688 522.286132812 476.393554688 516.857421875 c 0
 512.6796875 514.571289062 534.96484375 489.428710938 532.393554688 453.142578125 c 0
 520.96484375 367.142578125 502.96484375 282.286132812 488.393554688 196.857421875 c 0
 462.6796875 0.857421875 346.393554688 -217.713867188 121.536132812 -208 c 0
 81.5361328125 -208.286132812 31.2509765625 -192 37.5361328125 -142 c 0
 55.2509765625 -37.7138671875 220.108398438 -150 295.822265625 0.2861328125 c 2
 296.108398438 0.5712890625 l 1
EndSplineSet
EndChar

StartChar: glyph63
Encoding: 309 1092 63
Width: 686
VWidth: 0
Flags: W
HStem: -25.1426 129.143<197.587 254.497>
VStem: 265.113 121.143<117.304 207.429> 277.113 108.857<207.429 320.776>
LayerCount: 2
Fore
SplineSet
250.541992188 -25.142578125 m 2x80
 -55.744140625 56.2861328125 24.255859375 364.571289062 274.255859375 463.713867188 c 0
 293.399414062 472 292.828125 492.857421875 294.828125 510.857421875 c 0
 299.11328125 539.428710938 317.684570312 554.286132812 343.970703125 561.428710938 c 0
 388.541992188 572 414.828125 528.286132812 408.828125 489.142578125 c 0
 410.828125 460.857421875 446.828125 460.286132812 465.399414062 446.286132812 c 0
 570.541992188 383.142578125 677.399414062 236.571289062 605.399414062 116 c 0
 557.970703125 30.857421875 451.11328125 19.7138671875 376.828125 -20.857421875 c 0
 355.684570312 -82 393.399414062 -206.571289062 295.399414062 -202.857421875 c 0
 211.11328125 -188.857421875 270.255859375 -80 250.828125 -25.142578125 c 2
 250.541992188 -25.142578125 l 2x80
386.255859375 207.428710938 m 2xc0
 392.828125 182 367.399414062 113.713867188 409.970703125 117.142578125 c 0
 452.255859375 132.286132812 527.11328125 159.142578125 511.11328125 216.286132812 c 0
 503.684570312 246 433.970703125 364.571289062 400.541992188 330.286132812 c 0
 395.684570312 289.713867188 390.828125 249.142578125 385.970703125 207.428710938 c 1xa0
 386.255859375 207.428710938 l 2xc0
277.11328125 321.142578125 m 1
 178.828125 314.857421875 111.399414062 130 239.684570312 104 c 0
 251.11328125 100.286132812 264.255859375 107.713867188 265.11328125 118.286132812 c 0xc0
 268.255859375 185.713867188 281.399414062 253.713867188 277.11328125 320.857421875 c 2
 277.11328125 321.142578125 l 1
EndSplineSet
EndChar

StartChar: glyph64
Encoding: 310 1093 64
Width: 535
VWidth: 0
Flags: W
LayerCount: 2
Fore
SplineSet
183.881835938 257.142578125 m 1
 166.16796875 333.142578125 57.5966796875 477.428710938 115.596679688 535.142578125 c 0
 142.16796875 558 180.453125 553.142578125 198.453125 524 c 0
 293.881835938 286.857421875 257.310546875 380.286132812 395.596679688 524.857421875 c 0
 458.739257812 580.857421875 529.310546875 488.286132812 468.453125 434 c 0
 323.881835938 227.142578125 277.881835938 298.571289062 431.596679688 70.5712890625 c 0
 463.596679688 15.142578125 388.453125 -39.142578125 345.025390625 0.857421875 c 0
 300.739257812 37.4287109375 289.596679688 106.571289062 240.739257812 134.857421875 c 0
 188.739257812 93.4287109375 169.310546875 -12.857421875 92.7392578125 -12.5712890625 c 0
 56.7392578125 -8 33.8818359375 32.2861328125 48.453125 64.857421875 c 0
 88.16796875 133.142578125 139.025390625 191.142578125 183.310546875 257.142578125 c 2
 183.881835938 257.142578125 l 1
EndSplineSet
EndChar

StartChar: glyph65
Encoding: 311 1094 65
Width: 640
VWidth: 0
Flags: W
HStem: -48 1.14258<268.143 268.428> -46.8574 114.571<181.752 268.428>
VStem: 99.8564 109.715<265.908 528.902> 460.714 114.286<158.05 529.574>
LayerCount: 2
Fore
SplineSet
268.427734375 -46.857421875 m 1xb0
 203 -37.4287109375 76.142578125 -91.142578125 53 -4.857421875 c 0
 65.5712890625 162.857421875 87.28515625 331.428710938 99.8564453125 499.428710938 c 0
 109.28515625 541.142578125 161 555.428710938 192.142578125 526 c 0
 202.142578125 516.286132812 210.142578125 504.857421875 209.571289062 490 c 0
 209.571289062 352.857421875 186.427734375 217.142578125 179 80.5712890625 c 0
 179 75.142578125 187 68 193 67.7138671875 c 0x70
 261 67.4287109375 329.856445312 73.7138671875 398.142578125 76 c 0
 411 76 427.571289062 81.4287109375 430.142578125 95.7138671875 c 0
 447 206.286132812 455.571289062 318.286132812 460.713867188 430 c 0
 460.713867188 477.428710938 468.142578125 563.713867188 535.28515625 548.286132812 c 0
 607.856445312 527.428710938 571.28515625 433.428710938 575 377.713867188 c 0
 567 279.713867188 557.571289062 182 547.856445312 84.2861328125 c 0
 546.142578125 67.7138671875 547.856445312 53.142578125 555.28515625 38 c 0
 587 -22.5712890625 575.28515625 -138.571289062 495.28515625 -148.286132812 c 0
 445 -148.857421875 431 -98.2861328125 445.856445312 -58.2861328125 c 0
 451.571289062 -15.142578125 300.713867188 -53.7138671875 268.142578125 -48 c 0
 268.142578125 -47.7138671875 268.142578125 -47.142578125 268.142578125 -46.857421875 c 1
 268.427734375 -46.857421875 l 1xb0
EndSplineSet
EndChar

StartChar: glyph66
Encoding: 312 1095 66
Width: 595
VWidth: 0
Flags: W
HStem: 103.429 121.143<211.671 388.747>
VStem: 388.684 112<-10.4689 103.429>
LayerCount: 2
Fore
SplineSet
58.96875 370.571289062 m 1
 67.541015625 425.142578125 48.3974609375 519.428710938 112.68359375 541.713867188 c 0
 143.541015625 551.713867188 181.254882812 531.713867188 182.96875 497.142578125 c 0
 175.541015625 304 131.254882812 200.857421875 378.68359375 224.571289062 c 0
 390.397460938 224.571289062 399.541015625 234.286132812 400.68359375 246.571289062 c 0
 410.68359375 332.286132812 412.397460938 419.713867188 430.96875 504.286132812 c 0
 439.541015625 538 473.826171875 553.142578125 506.96875 539.142578125 c 0
 555.541015625 520.857421875 536.96875 463.428710938 534.96875 423.713867188 c 0
 517.541015625 292.571289062 512.96875 160.286132812 500.68359375 28.857421875 c 0
 497.254882812 -6.5712890625 462.96875 -31.7138671875 426.68359375 -19.7138671875 c 0
 380.112304688 -4.5712890625 390.397460938 48.5712890625 388.68359375 86.857421875 c 0
 388.68359375 95.142578125 379.826171875 103.142578125 370.68359375 103.428710938 c 0
 182.112304688 90.857421875 43.2548828125 162.571289062 59.2548828125 370.571289062 c 1
 58.96875 370.571289062 l 1
EndSplineSet
EndChar

StartChar: glyph67
Encoding: 313 1096 67
Width: 660
VWidth: 0
Flags: W
VStem: 115.944 116.572<290.986 541.473> 498.802 109.429<343.541 503.679>
LayerCount: 2
Fore
SplineSet
339.659179688 -2.2861328125 m 1
 227.944335938 30.5712890625 -14.0556640625 -94.5712890625 62.8017578125 122 c 0
 89.6591796875 240 106.516601562 359.713867188 115.944335938 480.571289062 c 0
 116.801757812 519.428710938 133.373046875 561.142578125 183.373046875 555.142578125 c 0
 220.23046875 551.142578125 239.373046875 512.857421875 232.516601562 478.286132812 c 0
 221.087890625 367.142578125 209.373046875 256 185.944335938 146.286132812 c 0
 183.373046875 133.142578125 183.944335938 117.142578125 202.516601562 116.286132812 c 0
 231.944335938 110 245.659179688 136 248.23046875 161.428710938 c 0
 264.801757812 264.857421875 276.801757812 369.428710938 293.944335938 472.857421875 c 0
 302.801757812 512.286132812 342.516601562 524.571289062 374.801757812 508.286132812 c 0
 457.944335938 474.857421875 331.944335938 170.571289062 371.087890625 116 c 0
 393.659179688 114.571289062 435.373046875 95.142578125 443.944335938 125.428710938 c 0
 464.23046875 219.142578125 471.944335938 314.857421875 486.801757812 409.428710938 c 0
 490.23046875 434.286132812 493.659179688 459.142578125 498.801757812 483.713867188 c 0
 506.801757812 544.857421875 605.373046875 542.571289062 608.23046875 481.713867188 c 0
 600.516601562 334 571.373046875 187.428710938 549.087890625 41.142578125 c 0
 523.944335938 -45.142578125 406.801757812 0.5712890625 339.373046875 -2.5712890625 c 1
 339.659179688 -2.2861328125 l 1
EndSplineSet
EndChar

StartChar: glyph68
Encoding: 314 1097 68
Width: 675
VWidth: 0
Flags: W
VStem: 97.1592 83.1426<236.07 352.714> 410.017 116.285<119.073 395.806>
LayerCount: 2
Fore
SplineSet
526.587890625 116.857421875 m 2
 558.301757812 99.4287109375 615.73046875 90 616.016601562 45.142578125 c 0
 612.301757812 -23.7138671875 599.4453125 -100.857421875 542.873046875 -147.428710938 c 0
 494.873046875 -184.857421875 427.4453125 -126.571289062 459.159179688 -73.142578125 c 0
 469.73046875 -55.4287109375 484.016601562 -40.2861328125 488.587890625 -19.7138671875 c 0
 471.159179688 35.4287109375 185.159179688 -22.5712890625 125.159179688 -23.7138671875 c 0
 54.873046875 -26.2861328125 48.0166015625 53.7138671875 59.4453125 106.571289062 c 0
 76.587890625 226.571289062 87.1591796875 346.857421875 97.1591796875 467.713867188 c 0
 96.0166015625 507.142578125 118.587890625 550.571289062 163.4453125 544.286132812 c 0
 262.301757812 526 189.4453125 355.713867188 195.73046875 284.857421875 c 0
 191.73046875 228.286132812 178.016601562 171.428710938 180.301757812 114.571289062 c 0
 180.873046875 110.857421875 185.159179688 106.286132812 188.873046875 105.142578125 c 0
 212.016601562 98 232.587890625 112.571289062 232.873046875 133.713867188 c 0
 252.873046875 255.713867188 238.301757812 389.713867188 276.016601562 506 c 0
 325.4453125 561.142578125 393.159179688 503.142578125 375.159179688 439.713867188 c 0
 381.73046875 390.286132812 323.73046875 112.286132812 374.301757812 118 c 0
 402.016601562 115.713867188 409.4453125 134.571289062 410.016601562 156.571289062 c 0
 420.301757812 277.142578125 423.73046875 398.571289062 441.73046875 518 c 0
 448.016601562 541.713867188 473.4453125 558.286132812 499.73046875 556 c 0
 539.73046875 553.142578125 555.4453125 515.713867188 550.016601562 481.142578125 c 0
 544.873046875 359.713867188 524.301757812 238.571289062 526.301757812 117.428710938 c 2
 526.587890625 116.857421875 l 2
EndSplineSet
EndChar

StartChar: glyph69
Encoding: 315 1098 69
Width: 718
VWidth: 0
Flags: W
LayerCount: 2
Fore
SplineSet
205.701171875 111.713867188 m 2
 213.986328125 204.857421875 226.272460938 320 233.986328125 421.142578125 c 0
 234.84375 436.286132812 225.129882812 443.713867188 206.84375 443.142578125 c 0
 157.129882812 444.857421875 175.701171875 379.713867188 182.272460938 349.428710938 c 0
 223.415039062 277.713867188 137.701171875 210.571289062 88.2724609375 278.286132812 c 0
 49.701171875 359.142578125 18.55859375 519.713867188 131.701171875 551.713867188 c 0
 293.701171875 560.286132812 380.84375 615.142578125 354.84375 402.286132812 c 0
 354.84375 398.857421875 359.986328125 393.142578125 363.129882812 392.857421875 c 0
 422.272460938 389.713867188 481.986328125 386.857421875 535.986328125 360 c 0
 807.986328125 226.571289062 579.129882812 -79.7138671875 340.272460938 -1.7138671875 c 0
 317.415039062 4.857421875 296.84375 7.142578125 274.272460938 -2.2861328125 c 0
 244.55859375 -12.857421875 206.55859375 15.142578125 205.415039062 46.2861328125 c 0
 204.84375 64.5712890625 205.415039062 82.857421875 205.415039062 111.713867188 c 1
 205.701171875 111.713867188 l 2
327.701171875 181.713867188 m 2
 301.129882812 52.857421875 565.986328125 95.142578125 540.55859375 203.713867188 c 0
 508.84375 265.142578125 432.272460938 280 368.84375 272 c 0
 323.415039062 268.286132812 331.986328125 216.286132812 327.415039062 182 c 2
 327.701171875 181.713867188 l 2
EndSplineSet
EndChar

StartChar: glyph70
Encoding: 316 1099 70
Width: 750
VWidth: 0
Flags: W
LayerCount: 2
Fore
SplineSet
212.65625 366.286132812 m 1
 440.370117188 410.286132812 553.798828125 124 335.227539062 21.142578125 c 0
 264.084960938 -14.2861328125 184.370117188 -11.142578125 106.94140625 -8.5712890625 c 0
 50.3701171875 -7.142578125 52.3701171875 57.7138671875 59.798828125 99.7138671875 c 0
 75.798828125 215.142578125 84.94140625 331.142578125 84.94140625 447.713867188 c 0
 82.65625 485.142578125 86.94140625 532.857421875 133.512695312 539.713867188 c 0
 242.084960938 547.713867188 177.512695312 419.142578125 212.94140625 366.571289062 c 2
 212.65625 366.286132812 l 1
179.512695312 135.142578125 m 0
 172.370117188 72 301.227539062 125.142578125 319.798828125 152 c 0
 392.65625 257.142578125 171.798828125 321.713867188 179.512695312 135.142578125 c 0
688.370117188 400.571289062 m 2
 678.94140625 280 664.65625 160 646.084960938 40.2861328125 c 0
 647.798828125 -6.5712890625 601.512695312 -42 557.227539062 -16.857421875 c 0
 535.227539062 -6 532.370117188 21.142578125 532.370117188 42.857421875 c 0
 548.94140625 188 569.512695312 332.571289062 580.370117188 478.286132812 c 0
 585.798828125 511.428710938 610.94140625 531.713867188 642.65625 529.142578125 c 0
 709.512695312 522.857421875 695.512695312 448.286132812 688.65625 400.857421875 c 2
 688.370117188 400.571289062 l 2
EndSplineSet
EndChar

StartChar: n
Encoding: 110 110 71
Width: 564
Flags: W
VStem: 67.585 104.286<11.0498 211.188> 354.728 116.572<32.4029 173.643>
LayerCount: 2
Fore
SplineSet
201.299804688 457.713867188 m 1
 530.15625 654.286132812 525.87109375 285.428710938 471.299804688 60.2861328125 c 0
 470.15625 -16.2861328125 352.442382812 -18.5712890625 354.727539062 58.2861328125 c 0
 389.299804688 220.286132812 424.15625 597.142578125 217.299804688 265.713867188 c 0
 173.87109375 200.857421875 188.727539062 120.571289062 171.87109375 47.4287109375 c 0
 165.013671875 7.142578125 123.87109375 -11.7138671875 87.87109375 8 c 0
 39.5849609375 37.7138671875 69.013671875 108.286132812 67.5849609375 155.142578125 c 0
 81.5849609375 257.428710938 76.7275390625 360.286132812 79.2998046875 462.857421875 c 0
 90.4423828125 537.713867188 182.727539062 522.857421875 201.013671875 458.286132812 c 2
 201.299804688 457.713867188 l 1
EndSplineSet
EndChar

StartChar: glyph72
Encoding: 317 1100 72
Width: 591
VWidth: 0
Flags: W
VStem: 102.888 105.143<434.286 534.685>
LayerCount: 2
Fore
SplineSet
205.458984375 434.286132812 m 0
 210.030273438 413.142578125 192.030273438 366.571289062 222.030273438 362.571289062 c 0
 308.887695312 381.428710938 389.745117188 363.713867188 465.745117188 322 c 0
 567.172851562 263.713867188 541.458984375 141.713867188 474.6015625 76.5712890625 c 0
 401.172851562 1.142578125 291.745117188 -22.5712890625 190.030273438 -4.2861328125 c 0
 164.030273438 4 142.030273438 -7.4287109375 116.6015625 -10.5712890625 c 0
 46.31640625 -10.5712890625 57.1728515625 71.142578125 60.8876953125 119.713867188 c 0
 75.458984375 248.571289062 82.8876953125 379.142578125 102.887695312 507.142578125 c 0
 115.458984375 549.713867188 178.31640625 558 201.745117188 521.142578125 c 0
 218.030273438 495.428710938 209.172851562 462.857421875 208.030273438 434.286132812 c 2
 205.458984375 434.286132812 l 0
184.6015625 192.571289062 m 0
 178.31640625 145.713867188 168.887695312 107.142578125 225.745117188 106.571289062 c 0
 297.458984375 95.142578125 376.030273438 122.857421875 412.030273438 189.142578125 c 0
 418.6015625 201.142578125 413.172851562 218.857421875 401.745117188 224.571289062 c 0
 328.887695312 267.142578125 235.745117188 267.713867188 184.6015625 192.571289062 c 0
EndSplineSet
EndChar

StartChar: glyph73
Encoding: 318 1101 73
Width: 725
VWidth: 0
Flags: W
VStem: 50.0049 117.428<169.107 250.479>
LayerCount: 2
Fore
SplineSet
330.576171875 -10.857421875 m 1
 210.004882812 -15.7138671875 56.0048828125 76.2861328125 50.0048828125 212 c 0
 49.4326171875 254.571289062 95.4326171875 282 132.861328125 260.857421875 c 0
 153.71875 249.428710938 161.71875 226.286132812 167.432617188 204.571289062 c 0
 183.432617188 160.857421875 214.576171875 131.713867188 257.71875 117.428710938 c 0
 343.71875 89.7138671875 458.576171875 100 508.861328125 180.286132812 c 0
 466.861328125 220 340.861328125 187.142578125 368.290039062 286.286132812 c 0
 399.71875 391.142578125 652.004882812 212.857421875 497.432617188 397.428710938 c 0
 450.004882812 438 386.861328125 426 340.861328125 389.142578125 c 0
 307.71875 369.713867188 257.432617188 397.142578125 257.432617188 439.713867188 c 0
 281.147460938 536 428.004882812 563.713867188 525.432617188 516.286132812 c 0
 810.576171875 352.857421875 631.432617188 -34.857421875 330.290039062 -11.142578125 c 1
 330.576171875 -10.857421875 l 1
EndSplineSet
EndChar

StartChar: glyph74
Encoding: 319 1102 74
Width: 668
VWidth: 0
Flags: W
VStem: 51.0771 109.144<19.6657 163.014>
LayerCount: 2
Fore
SplineSet
276.505859375 181.713867188 m 0
 279.077148438 219.428710938 276.505859375 242.571289062 231.6484375 231.428710938 c 0
 155.934570312 214.571289062 190.791992188 83.142578125 160.220703125 24.857421875 c 0
 142.220703125 -30.5712890625 47.9345703125 -14.5712890625 51.0771484375 47.4287109375 c 0
 77.6484375 193.142578125 84.220703125 342.286132812 117.934570312 486.571289062 c 0
 130.220703125 541.142578125 222.220703125 537.428710938 226.220703125 480 c 0
 237.077148438 447.142578125 189.077148438 353.142578125 233.6484375 350.286132812 c 0
 279.6484375 351.142578125 296.505859375 340.571289062 309.6484375 394.857421875 c 0
 342.220703125 511.713867188 430.505859375 575.428710938 535.077148438 486.571289062 c 0
 637.36328125 376.857421875 634.791992188 191.713867188 537.077148438 70.857421875 c 0
 418.220703125 -74.2861328125 259.934570312 1.7138671875 274.220703125 181.713867188 c 0
 275.077148438 181.713867188 275.6484375 181.713867188 276.505859375 181.713867188 c 0
390.791992188 176.857421875 m 2
 385.36328125 83.4287109375 438.505859375 119.713867188 469.077148438 176.571289062 c 0
 502.220703125 246.571289062 505.36328125 332.286132812 458.220703125 396 c 0
 407.934570312 413.713867188 393.36328125 223.428710938 391.077148438 176.857421875 c 2
 390.791992188 176.857421875 l 2
EndSplineSet
EndChar

StartChar: glyph75
Encoding: 320 1103 75
Width: 575
VWidth: 0
Flags: W
HStem: -9.42871 119.429<87.3823 149.877>
VStem: 357.436 118<7.6425 98.2872>
LayerCount: 2
Fore
SplineSet
522.006835938 438.571289062 m 0
 506.29296875 313.713867188 492.29296875 197.713867188 475.435546875 75.4287109375 c 0
 471.721679688 32.2861328125 458.579101562 -18 402.29296875 -9.142578125 c 0
 354.29296875 -3.4287109375 352.864257812 52 357.435546875 90.5712890625 c 0
 357.435546875 96 346.864257812 102.571289062 342.29296875 100 c 0
 266.579101562 59.4287109375 191.721679688 12.5712890625 108.006835938 -9.4287109375 c 0
 23.435546875 -10.857421875 22.8642578125 88.857421875 105.150390625 110 c 0
 124.864257812 126.571289062 283.721679688 170.571289062 214.006835938 196.571289062 c 0
 -75.1357421875 288.857421875 160.29296875 560.857421875 374.006835938 521.142578125 c 0
 401.150390625 518.286132812 427.435546875 510.571289062 453.721679688 524.857421875 c 0
 458.864257812 527.713867188 467.150390625 526.286132812 474.006835938 525.428710938 c 0
 517.721679688 522 526.864257812 472.571289062 522.006835938 438.571289062 c 0
358.29296875 404.571289062 m 1
 298.006835938 406.857421875 261.435546875 401.428710938 217.435546875 364.857421875 c 0
 206.006835938 355.428710938 195.435546875 337.142578125 209.435546875 324.857421875 c 0
 238.29296875 303.713867188 272.864257812 300.286132812 306.29296875 297.142578125 c 0
 392.29296875 289.713867188 395.150390625 288.286132812 394.864257812 384.286132812 c 0
 394.864257812 392 385.721679688 401.142578125 377.150390625 402.286132812 c 0
 366.006835938 403.713867188 354.864257812 405.142578125 358.29296875 404.571289062 c 1
EndSplineSet
EndChar

StartChar: glyph76
Encoding: 321 1105 76
Width: 658
VWidth: 0
Flags: W
HStem: 603 116<142.255 231.745> 613 116<396.255 485.745>
VStem: 129 116<616.255 705.745> 383 116<626.255 715.745>
LayerCount: 2
Fore
SplineSet
383 671 m 0x70
 383 703 409 729 441 729 c 0
 473 729 499 703 499 671 c 0
 499 639 473 613 441 613 c 0
 409 613 383 639 383 671 c 0x70
129 661 m 0
 129 693 155 719 187 719 c 0
 219 719 245 693 245 661 c 0
 245 629 219 603 187 603 c 0xb0
 155 603 129 629 129 661 c 0
230.729492188 134 m 2
 298.444335938 99.7138671875 435.872070312 95.142578125 483.30078125 164 c 0
 497.015625 217.428710938 572.729492188 234.857421875 598.444335938 184 c 0
 619.30078125 74.5712890625 483.586914062 2.5712890625 389.586914062 -4 c 0
 44.158203125 -48.857421875 -49.2705078125 283.428710938 178.158203125 499.713867188 c 0
 409.015625 705.142578125 727.015625 440.857421875 426.158203125 240.857421875 c 0
 367.30078125 200.571289062 301.586914062 174.571289062 237.015625 145.713867188 c 0
 233.872070312 144 232.729492188 138.286132812 230.729492188 134.286132812 c 2
 230.729492188 134 l 2
357.586914062 457.428710938 m 0
 270.158203125 454.571289062 185.015625 361.142578125 177.586914062 270.857421875 c 0
 176.444335938 262.571289062 186.729492188 255.713867188 196.444335938 258.571289062 c 0
 267.30078125 269.428710938 569.015625 435.142578125 357.586914062 457.428710938 c 0
EndSplineSet
EndChar

StartChar: o
Encoding: 111 111 77
Width: 552
Flags: W
LayerCount: 2
Fore
SplineSet
490.032226562 302.286132812 m 0
 501.174804688 121.713867188 334.032226562 -61.4287109375 155.74609375 20 c 0
 -192.825195312 255.142578125 426.603515625 833.428710938 490.032226562 302.286132812 c 0
171.174804688 214 m 0
 178.032226562 18.2861328125 389.4609375 156.286132812 376.032226562 288 c 0
 371.174804688 511.142578125 168.889648438 348.571289062 171.174804688 214 c 0
EndSplineSet
EndChar

StartChar: p
Encoding: 112 112 78
Width: 601
Flags: W
VStem: 61.249 116.857<-152.932 18>
LayerCount: 2
Fore
SplineSet
178.106445312 18 m 0
 151.249023438 -50.857421875 199.249023438 -211.713867188 82.3916015625 -194.286132812 c 0
 4.962890625 -152.571289062 70.1064453125 -36 61.2490234375 34.857421875 c 0
 83.5341796875 160.286132812 49.2490234375 320.286132812 104.677734375 431.142578125 c 0
 167.249023438 490.571289062 242.391601562 540 330.677734375 511.713867188 c 0
 715.249023438 414.286132812 518.106445312 -87.7138671875 178.106445312 18 c 0
187.8203125 204.571289062 m 0
 194.391601562 52 391.8203125 130 422.962890625 234.571289062 c 0
 466.962890625 336.571289062 290.962890625 458 216.106445312 372.286132812 c 0
 180.391601562 325.428710938 199.534179688 267.713867188 187.8203125 204.571289062 c 0
EndSplineSet
EndChar

StartChar: q
Encoding: 113 113 79
Width: 706
Flags: W
LayerCount: 2
Fore
SplineSet
572.352539062 133.428710938 m 2
 584.923828125 70.857421875 602.923828125 17.4287109375 598.352539062 -45.4287109375 c 0
 602.06640625 -149.142578125 462.352539062 -250.571289062 387.495117188 -160.286132812 c 0
 331.495117188 -84.2861328125 354.06640625 18 362.637695312 105.142578125 c 0
 363.208984375 110.857421875 353.495117188 116.286132812 347.495117188 113.428710938 c 0
 300.923828125 89.7138671875 251.780273438 66.857421875 198.06640625 72.857421875 c 0
 -159.362304688 174.286132812 196.352539062 638.571289062 490.06640625 516 c 0
 594.06640625 489.142578125 510.06640625 345.142578125 515.208984375 271.713867188 c 0
 519.495117188 238.571289062 563.780273438 261.713867188 585.780273438 259.428710938 c 0
 684.06640625 250.857421875 665.780273438 149.142578125 572.352539062 133.713867188 c 2
 572.352539062 133.428710938 l 2
397.495117188 383.713867188 m 0
 375.495117188 481.428710938 198.06640625 347.142578125 180.637695312 290.571289062 c 0
 117.208984375 74.2861328125 423.495117188 263.142578125 397.495117188 383.713867188 c 0
480.352539062 -15.142578125 m 0
 472.637695312 -14.2861328125 474.923828125 -24.857421875 474.923828125 -30 c 0
 483.208984375 -38 487.495117188 -18.5712890625 480.352539062 -15.142578125 c 0
EndSplineSet
EndChar

StartChar: r
Encoding: 114 114 80
Width: 540
Flags: W
LayerCount: 2
Fore
SplineSet
197.165039062 484.857421875 m 1
 302.30859375 536.286132812 452.30859375 524.571289062 488.59375 398.571289062 c 0
 497.451171875 370 476.022460938 336 446.879882812 331.428710938 c 0
 354.879882812 317.142578125 382.30859375 475.142578125 217.165039062 357.428710938 c 0
 139.165039062 288.857421875 243.165039062 17.4287109375 125.165039062 -1.7138671875 c 0
 10.30859375 -14 90.0224609375 325.428710938 76.0224609375 406.571289062 c 0
 69.736328125 490.286132812 119.451171875 552.857421875 197.451171875 485.142578125 c 1
 197.165039062 484.857421875 l 1
EndSplineSet
EndChar

StartChar: s
Encoding: 115 115 81
Width: 630
Flags: W
VStem: 45.5498 106<156.92 204.586>
LayerCount: 2
Fore
SplineSet
474.978515625 327.713867188 m 1
 825.8359375 27.142578125 102.407226562 -151.713867188 45.5498046875 171.713867188 c 0
 37.2646484375 228 124.978515625 260.571289062 151.549804688 206.286132812 c 0
 163.264648438 179.713867188 167.549804688 147.713867188 198.693359375 136.857421875 c 0
 248.978515625 106.857421875 466.978515625 99.7138671875 446.12109375 186.857421875 c 0
 402.693359375 258 300.693359375 224.286132812 234.407226562 259.428710938 c 0
 166.407226562 282.571289062 118.978515625 360.286132812 165.549804688 424.286132812 c 0
 303.8359375 621.428710938 635.549804688 441.428710938 474.978515625 327.713867188 c 1
408.978515625 347.713867188 m 1
 400.693359375 416 321.8359375 410.571289062 284.407226562 376 c 0
 288.978515625 340 377.549804688 348.286132812 408.978515625 347.713867188 c 1
EndSplineSet
EndChar

StartChar: t
Encoding: 116 116 82
Width: 424
Flags: W
HStem: 408 109.429<265.186 347.873>
LayerCount: 2
Fore
SplineSet
239.211914062 390 m 2
 232.35546875 348.286132812 181.784179688 124.286132812 241.784179688 130 c 0
 273.211914062 149.713867188 314.640625 161.428710938 337.211914062 122 c 0
 404.640625 8.857421875 23.498046875 -146.857421875 108.640625 318.286132812 c 0
 147.784179688 466.286132812 42.9267578125 369.713867188 46.0693359375 477.713867188 c 0
 50.9267578125 518.857421875 91.2119140625 524.857421875 124.926757812 524.286132812 c 0
 188.069335938 561.142578125 116.926757812 687.428710938 204.926757812 708.571289062 c 0
 260.069335938 719.428710938 282.069335938 652.286132812 273.498046875 608.286132812 c 0
 272.35546875 569.428710938 238.35546875 509.428710938 303.498046875 517.428710938 c 0
 369.211914062 533.713867188 417.211914062 437.142578125 345.784179688 408 c 0
 310.069335938 392.857421875 273.498046875 406.286132812 238.926757812 390.286132812 c 1
 239.211914062 390 l 2
EndSplineSet
EndChar

StartChar: u
Encoding: 117 117 83
Width: 634
Flags: W
VStem: 84.1289 105.429<377.884 498.666>
LayerCount: 2
Fore
SplineSet
362.4140625 54.5712890625 m 1
 28.4140625 -133.428710938 27.271484375 270.857421875 84.12890625 492 c 0
 99.271484375 542.286132812 190.4140625 526.571289062 189.557617188 475.713867188 c 0
 185.842773438 371.428710938 164.4140625 266.286132812 179.557617188 162 c 0
 205.557617188 81.7138671875 298.4140625 142.571289062 325.842773438 191.142578125 c 0
 385.557617188 260.571289062 299.271484375 527.428710938 428.700195312 518.286132812 c 0
 485.271484375 506.286132812 476.986328125 448 470.4140625 404.857421875 c 0
 462.12890625 316.286132812 458.700195312 226.857421875 468.4140625 138.571289062 c 0
 473.842773438 108.286132812 506.700195312 126.286132812 526.12890625 125.713867188 c 0
 573.842773438 126.571289062 598.4140625 65.7138671875 564.4140625 31.142578125 c 0
 520.986328125 -15.142578125 443.271484375 -11.4287109375 396.700195312 29.7138671875 c 0
 386.700195312 38.5712890625 380.700195312 52.5712890625 362.12890625 55.142578125 c 1
 362.4140625 54.5712890625 l 1
EndSplineSet
EndChar

StartChar: v
Encoding: 118 118 84
Width: 568
Flags: W
HStem: 494.571 20G<107.36 151.075>
VStem: 416.503 103.715<446.54 486.526>
LayerCount: 2
Fore
SplineSet
107.646484375 514.571289062 m 2
 194.502929688 505.713867188 192.217773438 306.857421875 216.217773438 237.428710938 c 0
 239.360351562 187.713867188 408.217773438 452.571289062 416.502929688 486.286132812 c 0
 446.7890625 541.428710938 539.931640625 503.713867188 520.217773438 441.142578125 c 0
 475.07421875 290.286132812 317.646484375 201.142578125 279.360351562 48 c 0
 274.502929688 1.142578125 209.07421875 -15.7138671875 179.646484375 19.142578125 c 0
 87.07421875 140.286132812 103.646484375 303.142578125 51.07421875 440.571289062 c 0
 38.2177734375 475.428710938 67.3603515625 515.713867188 107.360351562 514.571289062 c 2
 107.646484375 514.571289062 l 2
EndSplineSet
EndChar

StartChar: w
Encoding: 119 119 85
Width: 707
Flags: W
LayerCount: 2
Fore
SplineSet
340.45703125 255.428710938 m 1
 269.028320312 209.713867188 240.170898438 103.142578125 199.314453125 28.2861328125 c 0
 163.314453125 -30 86.7431640625 7.7138671875 89.314453125 70.5712890625 c 0
 97.599609375 152 2.45703125 509.428710938 97.599609375 512 c 0
 223.028320312 548 140.743164062 183.713867188 222.170898438 312.857421875 c 0
 256.45703125 366.857421875 285.885742188 423.428710938 309.314453125 483.142578125 c 0
 427.599609375 603.428710938 437.314453125 350.857421875 455.314453125 277.428710938 c 0
 501.885742188 237.713867188 519.599609375 553.713867188 627.314453125 504 c 0
 670.45703125 484.286132812 666.743164062 439.428710938 647.885742188 404.286132812 c 0
 602.170898438 292.286132812 561.028320312 178.857421875 523.314453125 64 c 0
 514.45703125 34 499.885742188 -1.4287109375 463.028320312 -0.5712890625 c 0
 373.885742188 0.2861328125 362.170898438 187.142578125 340.170898438 255.428710938 c 1
 340.45703125 255.428710938 l 1
EndSplineSet
EndChar

StartChar: x
Encoding: 120 120 86
Width: 561
Flags: W
LayerCount: 2
Fore
SplineSet
246.599609375 119.428710938 m 2
 185.7421875 90.2861328125 126.314453125 -64.5712890625 52.0283203125 26.2861328125 c 0
 24.314453125 113.713867188 147.170898438 172 189.7421875 237.713867188 c 0
 268.599609375 315.428710938 78.0283203125 438.286132812 177.170898438 507.428710938 c 0
 257.45703125 540.286132812 270.314453125 434 303.7421875 387.142578125 c 0
 350.885742188 393.428710938 379.170898438 465.428710938 417.7421875 495.428710938 c 0
 460.028320312 542.571289062 541.7421875 489.713867188 509.170898438 430 c 0
 428.314453125 303.142578125 281.45703125 260.286132812 391.7421875 93.7138671875 c 0
 447.7421875 21.7138671875 323.45703125 -40.857421875 284.885742188 33.4287109375 c 0
 267.45703125 59.7138671875 267.7421875 95.4287109375 246.885742188 119.428710938 c 2
 246.599609375 119.428710938 l 2
EndSplineSet
EndChar

StartChar: y
Encoding: 121 121 87
Width: 628
Flags: W
VStem: 156.578 106<360.571 501.79>
LayerCount: 2
Fore
SplineSet
156.578125 360.571289062 m 2
 157.720703125 412.286132812 126.578125 500.571289062 200.578125 512.571289062 c 0
 229.720703125 516.286132812 256.578125 498.286132812 262.578125 470.571289062 c 0
 290.578125 362.286132812 221.435546875 113.142578125 413.720703125 189.428710938 c 0
 488.864257812 248.286132812 382.006835938 511.142578125 508.006835938 513.142578125 c 0
 628.864257812 541.428710938 525.435546875 -44.5712890625 484.578125 -103.428710938 c 0
 381.435546875 -278 201.149414062 -76.5712890625 131.720703125 -179.428710938 c 0
 0.578125 -243.428710938 13.1494140625 -64.2861328125 123.149414062 -39.7138671875 c 0
 208.29296875 12.5712890625 332.29296875 -120.857421875 391.149414062 -33.142578125 c 0
 442.578125 108 367.149414062 40.857421875 280.578125 69.142578125 c 0
 154.006835938 104.857421875 158.578125 252.857421875 158.578125 360.286132812 c 1
 156.864257812 360.286132812 l 1
 156.578125 360.571289062 l 2
EndSplineSet
EndChar

StartChar: z
Encoding: 122 122 88
Width: 766
Flags: W
HStem: 389.714 109.429<87.4867 402.049> 493.143 20G<573.192 685.049>
LayerCount: 2
Fore
SplineSet
180.192382812 199.713867188 m 1x40
 119.90625 272.571289062 173.620117188 326.857421875 254.763671875 315.428710938 c 0
 347.048828125 315.428710938 317.048828125 307.142578125 397.90625 363.428710938 c 0
 432.477539062 391.142578125 383.620117188 390.286132812 363.048828125 389.713867188 c 0
 287.334960938 403.142578125 90.4775390625 346.857421875 57.3349609375 420.857421875 c 0
 39.6201171875 478.286132812 95.90625 505.713867188 145.334960938 499.142578125 c 0x80
 316.477539062 503.428710938 487.620117188 512.286132812 658.763671875 513.142578125 c 0
 711.334960938 512.286132812 726.763671875 440 686.477539062 411.713867188 c 0
 643.334960938 386.286132812 601.620117188 358.286132812 559.334960938 331.142578125 c 0
 539.334960938 310.571289062 582.763671875 304.857421875 593.048828125 294.857421875 c 0
 622.763671875 270.571289062 621.048828125 229.428710938 590.192382812 206.857421875 c 0
 494.477539062 168.571289062 369.90625 238.857421875 297.620117188 138.857421875 c 0
 323.048828125 84.857421875 716.763671875 215.428710938 708.477539062 48.5712890625 c 0
 702.477539062 25.142578125 677.048828125 6 652.477539062 6.2861328125 c 0
 497.620117188 66 -225.236328125 -129.142578125 179.620117188 199.713867188 c 1
 180.192382812 199.713867188 l 1x40
EndSplineSet
EndChar

StartChar: braceleft
Encoding: 123 123 89
Width: 447
Flags: W
HStem: -184.857 109.144<261.117 378.012>
LayerCount: 2
Fore
SplineSet
230.329101562 310.571289062 m 2
 295.756835938 196.286132812 239.471679688 58.2861328125 260.04296875 -65.142578125 c 0
 282.614257812 -88.5712890625 327.756835938 -68.5712890625 358.04296875 -75.7138671875 c 0
 418.900390625 -80.857421875 418.900390625 -178.571289062 358.04296875 -184.857421875 c 0
 275.185546875 -196 164.329101562 -208 145.471679688 -100 c 0
 118.04296875 0.5712890625 174.614257812 122.857421875 132.900390625 214.571289062 c 0
 81.185546875 216.286132812 20.6142578125 276.571289062 53.185546875 326.286132812 c 0
 73.4716796875 363.142578125 129.185546875 352.286132812 138.04296875 398 c 0
 188.04296875 508.571289062 102.614257812 674.571289062 230.04296875 744.571289062 c 0
 280.614257812 777.142578125 392.329101562 746.286132812 372.900390625 674.286132812 c 0
 361.756835938 647.428710938 336.614257812 632.571289062 307.471679688 635.142578125 c 0
 245.756835938 641.428710938 278.04296875 561.713867188 272.04296875 525.428710938 c 0
 276.329101562 450 257.756835938 380.571289062 230.329101562 310.857421875 c 2
 230.329101562 310.571289062 l 2
EndSplineSet
EndChar

StartChar: braceright
Encoding: 125 125 90
Width: 438
Flags: W
HStem: -214.571 108.571<70.637 163.294>
LayerCount: 2
Fore
SplineSet
317.450195312 375.428710938 m 1
 404.021484375 365.713867188 418.87890625 286.571289062 346.307617188 242 c 0
 330.307617188 146.571289062 368.87890625 44.2861328125 329.1640625 -50.5712890625 c 0
 293.735351562 -152 184.87890625 -249.142578125 72.3076171875 -214.571289062 c 0
 7.7353515625 -188 46.021484375 -91.4287109375 110.87890625 -106 c 0
 274.307617188 -77.7138671875 240.307617188 158.857421875 205.450195312 275.428710938 c 0
 177.450195312 352.571289062 202.307617188 440 216.307617188 518.286132812 c 0
 273.1640625 724 208.021484375 577.713867188 141.735351562 662.857421875 c 0
 107.1640625 768.286132812 276.307617188 800.857421875 321.735351562 725.428710938 c 0
 411.1640625 620 297.450195312 492.286132812 317.735351562 375.713867188 c 2
 317.450195312 375.428710938 l 1
EndSplineSet
EndChar

StartChar: asciitilde
Encoding: 126 126 91
Width: 671
Flags: W
HStem: 433.143 20G<178.428 218>
LayerCount: 2
Fore
SplineSet
218 452.857421875 m 1
 319.713867188 460.286132812 399.713867188 338.571289062 500.856445312 382.571289062 c 0
 534.28515625 400.857421875 572.571289062 424.857421875 605.428710938 387.428710938 c 0
 636.571289062 354.857421875 612 309.428710938 578 291.428710938 c 0
 460.571289062 208 344.28515625 291.428710938 231.713867188 334.286132812 c 0
 192 342.571289062 171.428710938 308.286132812 158.28515625 276.857421875 c 0
 133.142578125 232.286132812 59.7138671875 254 54 300.571289062 c 0
 56 388.571289062 138.856445312 450.571289062 218 453.142578125 c 1
 218 452.857421875 l 1
EndSplineSet
EndChar

StartChar: exclam
Encoding: 33 33 92
Width: 259
Flags: W
VStem: 66.3496 121.715<32.127 72.7355 168.341 500.323> 81.4922 106.572<400.436 706.051>
LayerCount: 2
Fore
SplineSet
188.920898438 442 m 1x80
 171.20703125 362.857421875 238.064453125 94 86.349609375 159.713867188 c 0
 70.9208984375 172.571289062 64.349609375 194.857421875 66.349609375 214.857421875 c 0x80
 69.4921875 367.142578125 74.349609375 519.428710938 81.4921875 671.428710938 c 0x40
 84.9208984375 704.286132812 119.778320312 725.142578125 152.064453125 719.142578125 c 0
 240.349609375 695.428710938 176.920898438 514 188.064453125 442 c 0
 188.349609375 442 188.635742188 442 188.920898438 442 c 1x80
188.349609375 58.857421875 m 0
 188.920898438 -23.142578125 70.064453125 -26.2861328125 69.7783203125 52 c 0
 68.064453125 121.142578125 186.920898438 137.428710938 188.349609375 58.857421875 c 0
EndSplineSet
EndChar

StartChar: quotedbl
Encoding: 34 34 93
Width: 426
Flags: W
VStem: 61.4473 130<486.863 693.509> 239.447 116.572<468.006 685.188>
LayerCount: 2
Fore
SplineSet
239.447265625 520 m 0
 257.733398438 585.428710938 228.01953125 708 310.01953125 731.428710938 c 0
 433.162109375 733.428710938 340.3046875 555.142578125 356.01953125 482 c 0
 332.3046875 390.857421875 223.162109375 434.571289062 239.447265625 520 c 0
61.447265625 535.713867188 m 0
 70.8759765625 611.428710938 50.8759765625 689.428710938 114.875976562 724.857421875 c 0
 160.01953125 740.857421875 191.162109375 701.713867188 191.447265625 671.428710938 c 0
 163.162109375 603.713867188 219.733398438 466.571289062 119.733398438 454.286132812 c 0
 77.162109375 448.571289062 57.7333984375 508.571289062 61.447265625 535.713867188 c 0
EndSplineSet
EndChar

StartChar: numbersign
Encoding: 35 35 94
Width: 774
Flags: W
HStem: 188.857 111.429<76.5534 183.738> 350 105.429<82.4866 171.902> 428.857 104.571<610.629 721.816> 466.571 20G<231.679 260.536>
VStem: 311.394 87.1426<579.495 733.911>
LayerCount: 2
Fore
SplineSet
260.536132812 485.713867188 m 1xd8
 296.536132812 552.286132812 291.393554688 633.428710938 311.393554688 705.713867188 c 0
 322.536132812 744.571289062 379.107421875 758.571289062 405.96484375 727.428710938 c 0
 440.822265625 670.286132812 401.393554688 596.857421875 398.536132812 534.571289062 c 0
 396.822265625 522.857421875 391.393554688 502.286132812 409.107421875 501.428710938 c 0
 432.822265625 508 472.25 499.428710938 481.107421875 528.286132812 c 0
 513.96484375 598.857421875 499.107421875 743.428710938 584.536132812 767.142578125 c 0
 621.96484375 771.142578125 657.393554688 733.428710938 645.96484375 696.286132812 c 0
 633.678710938 650 620.25 604 609.107421875 557.428710938 c 0
 607.393554688 550.857421875 607.678710938 550.857421875 617.393554688 533.428710938 c 0
 655.678710938 535.142578125 709.107421875 548.286132812 726.536132812 502.857421875 c 0
 739.678710938 475.142578125 725.393554688 440.286132812 697.107421875 428.857421875 c 0xa8
 654.822265625 404.857421875 572.536132812 435.713867188 565.107421875 371.428710938 c 0
 563.393554688 363.713867188 564.536132812 350.857421875 572.25 348.286132812 c 0
 648.25 357.142578125 757.393554688 308.571289062 672.536132812 230.286132812 c 0
 633.107421875 209.142578125 586.822265625 237.428710938 544.822265625 222.286132812 c 0
 484.536132812 168.286132812 526.536132812 -74.2861328125 438.25 -91.7138671875 c 0
 302.536132812 -97.7138671875 417.96484375 124.286132812 404.25 202.571289062 c 0
 391.678710938 222.571289062 355.393554688 207.142578125 334.25 209.713867188 c 0
 261.678710938 165.142578125 296.822265625 -72.2861328125 165.96484375 -27.142578125 c 0
 98.822265625 19.7138671875 178.25 111.142578125 183.96484375 174 c 0
 179.96484375 214.286132812 121.393554688 176.857421875 95.107421875 188.857421875 c 0
 33.107421875 197.713867188 34.5361328125 289.142578125 93.96484375 300.286132812 c 0
 127.96484375 312.857421875 255.107421875 296.857421875 227.678710938 356.571289062 c 0
 189.107421875 363.713867188 151.107421875 351.713867188 112.536132812 350 c 0
 56.5361328125 344.571289062 30.25 429.428710938 81.107421875 455.428710938 c 0
 136.536132812 480.286132812 202.822265625 468.571289062 260.536132812 486.571289062 c 1
 260.536132812 485.713867188 l 1xd8
385.678710938 330.857421875 m 0
 398.25 332.571289062 411.678710938 334 425.107421875 336.571289062 c 0
 445.678710938 343.428710938 454.25 392 417.678710938 384.857421875 c 0
 391.393554688 379.142578125 357.393554688 383.142578125 358.822265625 345.142578125 c 0
 357.678710938 330.571289062 375.393554688 334 385.678710938 330.857421875 c 0
EndSplineSet
EndChar

StartChar: dollar
Encoding: 36 36 95
Width: 787
Flags: W
LayerCount: 2
Fore
SplineSet
478.157226562 -28.2861328125 m 2
 474.157226562 -77.142578125 431.014648438 -128.857421875 375.014648438 -84 c 0
 360.729492188 -70.2861328125 357.30078125 -43.7138671875 333.30078125 -43.142578125 c 0
 245.872070312 -40 169.5859375 5.142578125 120.443359375 76.5712890625 c 0
 85.0146484375 132.571289062 -16.1279296875 272.286132812 97.30078125 295.428710938 c 0
 194.729492188 287.713867188 175.872070312 86.5712890625 314.729492188 74.5712890625 c 0
 335.872070312 69.142578125 359.5859375 78 355.872070312 103.142578125 c 0
 334.443359375 366.857421875 414.157226562 307.142578125 201.5859375 351.428710938 c 0
 -16.4140625 439.428710938 128.729492188 721.713867188 313.30078125 735.428710938 c 0
 355.5859375 754.571289062 398.443359375 803.428710938 438.443359375 753.713867188 c 0
 490.157226562 706 571.014648438 707.428710938 631.30078125 672.286132812 c 0
 678.729492188 650.571289062 667.5859375 568.857421875 612.157226562 566.571289062 c 0
 563.30078125 565.713867188 523.30078125 601.142578125 475.30078125 606.857421875 c 0
 440.443359375 594.286132812 465.872070312 536.857421875 461.5859375 507.428710938 c 0
 464.729492188 462.571289062 465.872070312 454.857421875 514.157226562 463.713867188 c 0
 874.443359375 477.142578125 745.872070312 26.5712890625 478.157226562 -28 c 1
 478.157226562 -28.2861328125 l 2
469.872070312 222.857421875 m 1
 469.872070312 222.857421875 470.729492188 222.857421875 471.30078125 222.857421875 c 0
 479.872070312 193.428710938 448.443359375 99.4287109375 495.5859375 106.857421875 c 0
 569.30078125 138 633.014648438 214.286132812 619.014648438 298.286132812 c 0
 607.30078125 358.857421875 534.157226562 352.571289062 487.5859375 343.142578125 c 0
 450.729492188 321.713867188 477.872070312 259.713867188 470.157226562 222.857421875 c 2
 469.872070312 222.857421875 l 1
344.729492188 524.286132812 m 2
 344.729492188 524.286132812 345.5859375 524.286132812 345.872070312 524.286132812 c 1
 337.872070312 552.571289062 360.729492188 626.571289062 311.872070312 615.428710938 c 0
 267.014648438 601.142578125 223.30078125 570.857421875 210.157226562 523.428710938 c 0
 193.014648438 454.857421875 284.729492188 443.428710938 333.014648438 455.142578125 c 0
 354.443359375 468.571289062 341.5859375 502.571289062 344.729492188 524.286132812 c 2
EndSplineSet
EndChar

StartChar: percent
Encoding: 37 37 96
Width: 892
Flags: W
HStem: 312.286 20G<626.518 771.375>
VStem: 47.0889 133.429<485.315 565.366>
LayerCount: 2
Fore
SplineSet
162.232421875 -12 m 0
 261.375 234.571289062 437.375 455.142578125 563.946289062 691.428710938 c 0
 584.803710938 754.857421875 673.661132812 774.571289062 689.946289062 700 c 0
 594.232421875 474 435.661132812 268.571289062 316.803710938 50.857421875 c 0
 298.232421875 22.2861328125 279.946289062 -6 271.946289062 -40.2861328125 c 0
 258.517578125 -94.5712890625 153.946289062 -82.2861328125 162.232421875 -12 c 0
219.661132812 690.571289062 m 2
 469.375 682.286132812 480.517578125 446.857421875 253.661132812 371.428710938 c 0
 143.375 330 64.517578125 441.713867188 47.0888671875 541.713867188 c 0
 43.6611328125 628 139.661132812 692.286132812 219.375 690.571289062 c 2
 219.661132812 690.571289062 l 2
180.517578125 527.713867188 m 0
 176.232421875 497.428710938 199.375 472.857421875 228.232421875 485.428710938 c 0
 250.517578125 497.428710938 307.375 521.142578125 287.946289062 552.571289062 c 0
 253.661132812 582 182.803710938 584.571289062 180.517578125 527.713867188 c 0
665.375 -1.4287109375 m 2
 567.375 -3.4287109375 523.088867188 79.4287109375 501.946289062 158.571289062 c 0
 481.375 244.857421875 587.375 323.713867188 665.661132812 332.286132812 c 0
 877.088867188 298.571289062 921.375 5.7138671875 665.661132812 -1.4287109375 c 2
 665.375 -1.4287109375 l 2
661.661132812 207.713867188 m 0
 607.946289062 196 621.661132812 108.286132812 678.517578125 114.286132812 c 0
 757.088867188 122.571289062 717.088867188 200.571289062 661.661132812 207.713867188 c 0
EndSplineSet
EndChar

StartChar: ampersand
Encoding: 38 38 97
Width: 793
Flags: W
LayerCount: 2
Fore
SplineSet
408.095703125 404.571289062 m 2
 430.095703125 365.713867188 459.524414062 303.713867188 498.953125 284.571289062 c 0
 519.809570312 298.857421875 513.809570312 332 520.095703125 354 c 0
 528.666992188 388.571289062 571.809570312 408 601.809570312 392.286132812 c 0
 666.095703125 353.428710938 615.809570312 259.713867188 600.380859375 204.286132812 c 0
 595.23828125 189.713867188 598.380859375 179.713867188 612.095703125 168.571289062 c 0
 658.380859375 132 709.23828125 98.2861328125 739.524414062 46 c 0
 770.666992188 -1.7138671875 716.380859375 -55.4287109375 668.380859375 -36.857421875 c 0
 618.953125 3.142578125 582.953125 56.2861328125 522.095703125 86.5712890625 c 0
 191.809570312 -204.286132812 -181.619140625 217.713867188 224.380859375 456.857421875 c 0
 280.095703125 491.142578125 139.23828125 666.286132812 351.23828125 729.142578125 c 0
 481.809570312 768.286132812 644.380859375 632.571289062 541.809570312 499.713867188 c 0
 505.809570312 453.428710938 449.23828125 443.428710938 407.809570312 404.857421875 c 1
 408.095703125 404.571289062 l 2
289.809570312 357.142578125 m 1
 34.6669921875 238.857421875 218.380859375 -6 420.666992188 157.428710938 c 0
 426.953125 164 425.809570312 176 420.666992188 182.286132812 c 0
 368.666992188 234.286132812 338.380859375 304.571289062 289.809570312 356.857421875 c 2
 289.809570312 357.142578125 l 1
409.23828125 617.713867188 m 1
 346.666992188 624.571289062 328.380859375 572.571289062 354.666992188 529.428710938 c 0
 385.809570312 517.428710938 423.23828125 552.857421875 447.524414062 572.286132812 c 0
 470.095703125 599.713867188 422.380859375 612.286132812 408.953125 617.713867188 c 1
 409.23828125 617.713867188 l 1
EndSplineSet
EndChar

StartChar: quotesingle
Encoding: 39 39 98
Width: 239
Flags: W
VStem: 64.167 121.429<470.48 596.286>
LayerCount: 2
Fore
SplineSet
185.595703125 596.286132812 m 1
 181.024414062 542.286132812 191.024414062 441.142578125 111.309570312 447.428710938 c 0
 71.8818359375 456.286132812 58.73828125 491.428710938 64.1669921875 525.713867188 c 0
 78.453125 584.857421875 50.1669921875 652.857421875 78.453125 706.286132812 c 0
 160.453125 780.857421875 195.309570312 664.857421875 182.73828125 596 c 1
 183.595703125 596 184.73828125 596 185.595703125 596 c 1
 185.595703125 596.286132812 l 1
EndSplineSet
EndChar

StartChar: parenleft
Encoding: 40 40 99
Width: 428
Flags: W
HStem: 702 20G<161.376 330.09>
LayerCount: 2
Fore
SplineSet
330.08984375 721.713867188 m 1
 381.518554688 724 406.375976562 646.571289062 361.518554688 620.571289062 c 0
 323.8046875 603.428710938 281.518554688 596.571289062 259.8046875 557.428710938 c 0
 142.08984375 379.142578125 144.375976562 136 248.375976562 -48.2861328125 c 0
 309.8046875 -113.142578125 218.661132812 -203.428710938 162.661132812 -129.713867188 c 0
 2.6611328125 108.286132812 -7.6240234375 642.286132812 330.375976562 722 c 1
 330.08984375 721.713867188 l 1
EndSplineSet
EndChar

StartChar: parenright
Encoding: 41 41 100
Width: 449
Flags: W
LayerCount: 2
Fore
SplineSet
397.681640625 313.428710938 m 0
 373.681640625 148 316.252929688 -64.857421875 170.5390625 -165.142578125 c 0
 119.967773438 -201.713867188 47.396484375 -130.571289062 89.681640625 -82.857421875 c 0
 198.5390625 -13.7138671875 230.5390625 121.713867188 269.110351562 238 c 0
 314.825195312 423.713867188 212.252929688 570.286132812 71.681640625 639.142578125 c 0
 36.8251953125 659.713867188 37.396484375 711.142578125 65.9677734375 732.571289062 c 0
 93.9677734375 754.286132812 128.252929688 740.857421875 155.681640625 726 c 0
 306.825195312 644.571289062 397.110351562 485.713867188 397.681640625 313.428710938 c 0
EndSplineSet
EndChar

StartChar: asterisk
Encoding: 42 42 101
Width: 461
Flags: W
LayerCount: 2
Fore
SplineSet
349.861328125 542.286132812 m 1
 371.290039062 503.428710938 429.861328125 466.857421875 379.861328125 420.286132812 c 0
 328.432617188 373.428710938 287.576171875 441.713867188 245.861328125 464 c 0
 225.004882812 451.142578125 213.576171875 426.286132812 191.861328125 413.713867188 c 0
 101.576171875 361.428710938 38.4326171875 488.286132812 137.861328125 529.713867188 c 0
 157.290039062 576.571289062 29.576171875 558.857421875 62.4326171875 648.857421875 c 0
 91.2900390625 718.571289062 160.432617188 648 177.861328125 683.713867188 c 0
 176.147460938 780.571289062 302.432617188 775.428710938 295.004882812 678.571289062 c 0
 297.004882812 655.428710938 324.432617188 664 339.861328125 670 c 0
 373.861328125 683.428710938 426.147460938 637.713867188 407.576171875 595.428710938 c 0
 399.861328125 565.428710938 364.432617188 564.857421875 349.861328125 542 c 1
 349.861328125 542.286132812 l 1
EndSplineSet
EndChar

StartChar: plus
Encoding: 43 43 102
Width: 653
Flags: W
VStem: 247.002 118.286<109.151 294.196 423.587 567.605>
LayerCount: 2
Fore
SplineSet
246.430664062 212.857421875 m 2
 243.288085938 241.428710938 260.430664062 299.713867188 216.14453125 295.142578125 c 0
 160.14453125 300.571289062 46.4306640625 278.857421875 47.001953125 361.428710938 c 0
 58.14453125 471.142578125 232.715820312 363.428710938 245.573242188 443.713867188 c 0
 250.14453125 493.428710938 226.14453125 569.713867188 291.001953125 586 c 0
 373.573242188 599.142578125 359.001953125 492.857421875 363.859375 439.713867188 c 0
 381.573242188 373.142578125 659.001953125 517.142578125 596.430664062 346.286132812 c 0
 560.715820312 284.286132812 371.573242188 343.713867188 365.288085938 273.428710938 c 0
 362.715820312 225.713867188 368.430664062 177.142578125 356.430664062 130.571289062 c 0
 342.430664062 79.142578125 257.859375 86 249.288085938 137.713867188 c 0
 246.430664062 162.571289062 247.001953125 187.713867188 247.001953125 212.857421875 c 1
 246.430664062 212.857421875 l 2
EndSplineSet
EndChar

StartChar: comma
Encoding: 44 44 103
Width: 275
Flags: W
LayerCount: 2
Fore
SplineSet
218.61328125 -8.2861328125 m 1
 219.755859375 -76.5712890625 150.327148438 -198.571289062 70.61328125 -146.571289062 c 0
 48.3271484375 -127.713867188 43.1845703125 -95.7138671875 59.755859375 -72.857421875 c 0
 102.041992188 -37.7138671875 108.899414062 -1.4287109375 84.0419921875 47.142578125 c 0
 71.470703125 90.857421875 120.041992188 129.142578125 160.327148438 110.286132812 c 0
 202.327148438 88 216.327148438 38 218.61328125 -8.5712890625 c 1
 218.61328125 -8.2861328125 l 1
EndSplineSet
EndChar

StartChar: hyphen
Encoding: 45 45 104
Width: 483
Flags: W
LayerCount: 2
Fore
SplineSet
356.362304688 183.428710938 m 2
 281.791015625 200.571289062 208.362304688 208.286132812 133.504882812 186.571289062 c 0
 109.219726562 180 88.6484375 188.571289062 72.6484375 207.713867188 c 0
 -23.923828125 351.713867188 465.791015625 358.571289062 415.791015625 220 c 0
 408.076171875 196.286132812 382.6484375 180.571289062 356.6484375 183.428710938 c 2
 356.362304688 183.428710938 l 2
EndSplineSet
EndChar

StartChar: period
Encoding: 46 46 105
Width: 230
Flags: W
LayerCount: 2
Fore
SplineSet
116.712890625 -6.2861328125 m 0
 15.2841796875 0.857421875 52.427734375 156.571289062 143.85546875 102.857421875 c 0
 192.712890625 71.142578125 175.284179688 -1.4287109375 116.712890625 -6.2861328125 c 0
EndSplineSet
EndChar

StartChar: slash
Encoding: 47 47 106
Width: 354
Flags: W
VStem: 45.6055 108.857<1.6519 66.3479> 195.892 111.714<556.52 694.545>
LayerCount: 2
Fore
SplineSet
307.891601562 654.286132812 m 1
 275.3203125 437.428710938 226.748046875 215.713867188 154.462890625 7.4287109375 c 0
 133.60546875 -47.4287109375 36.462890625 -27.142578125 45.60546875 33.142578125 c 0
 107.034179688 245.713867188 163.3203125 460 195.891601562 679.428710938 c 0
 213.3203125 755.428710938 319.034179688 732 307.60546875 654.286132812 c 1
 307.891601562 654.286132812 l 1
EndSplineSet
EndChar

StartChar: zero
Encoding: 48 48 107
Width: 630
Flags: W
LayerCount: 2
Fore
SplineSet
579.397460938 485.713867188 m 0
 557.397460938 323.713867188 571.68359375 106.571289062 407.68359375 28.2861328125 c 0
 254.540039062 -39.7138671875 61.3974609375 55.7138671875 55.3974609375 231.142578125 c 0
 23.111328125 722.571289062 560.826171875 941.142578125 579.397460938 485.713867188 c 0
451.111328125 565.428710938 m 1
 319.96875 725.142578125 176.254882812 444 177.96875 321.142578125 c 0
 178.540039062 308.571289062 193.96875 316.571289062 199.68359375 320.286132812 c 0
 279.96875 403.142578125 395.397460938 464.571289062 451.111328125 565.142578125 c 2
 451.111328125 565.428710938 l 1
291.68359375 124.571289062 m 0
 348.540039062 122.571289062 397.68359375 135.713867188 415.397460938 206 c 0
 423.111328125 258.286132812 456.826171875 320 444.826171875 369.713867188 c 1
 364.540039062 326.571289062 299.397460938 244.857421875 225.111328125 188 c 0
 176.254882812 150 257.68359375 118.286132812 291.68359375 124.571289062 c 0
EndSplineSet
EndChar

StartChar: one
Encoding: 49 49 108
Width: 711
Flags: W
HStem: 10.2861 117.143<445.016 648.949>
LayerCount: 2
Fore
SplineSet
342.013671875 2 m 2
 269.442382812 12.857421875 -45.986328125 -46.857421875 70.5849609375 104.286132812 c 0
 144.87109375 128 229.727539062 111.713867188 307.442382812 122.571289062 c 0
 316.013671875 123.142578125 325.727539062 131.713867188 326.584960938 139.428710938 c 0
 333.15625 260 352.298828125 379.428710938 359.727539062 499.713867188 c 0
 331.442382812 523.142578125 269.15625 451.713867188 230.013671875 465.142578125 c 0
 85.15625 544.857421875 307.442382812 604.857421875 358.87109375 657.428710938 c 0
 380.584960938 674.571289062 399.442382812 693.428710938 410.584960938 719.713867188 c 0
 445.442382812 789.142578125 548.87109375 721.713867188 519.727539062 660.571289062 c 0
 468.298828125 502.286132812 460.584960938 333.142578125 445.15625 168 c 0
 444.013671875 154 443.15625 132.571289062 459.15625 127.428710938 c 0
 521.15625 110.286132812 609.442382812 152 655.727539062 100.286132812 c 0
 678.013671875 64.5712890625 656.87109375 16.857421875 616.013671875 10.2861328125 c 0
 525.15625 3.142578125 433.442382812 6.857421875 342.584960938 4 c 0
 342.584960938 3.142578125 342.584960938 2.5712890625 342.584960938 1.7138671875 c 1
 342.013671875 2 l 2
EndSplineSet
EndChar

StartChar: two
Encoding: 50 50 109
Width: 685
Flags: W
LayerCount: 2
Fore
SplineSet
517 100.857421875 m 2
 550.428710938 143.428710938 618.142578125 154.571289062 637.571289062 93.7138671875 c 0
 650.142578125 -52.2861328125 433.857421875 -28.5712890625 367.571289062 54.857421875 c 0
 329.571289062 84.857421875 291.286132812 129.713867188 237.571289062 118 c 0
 200.713867188 113.428710938 190.428710938 78.2861328125 186.713867188 46.5712890625 c 0
 168.713867188 -33.7138671875 51.5712890625 8.2861328125 47 75.142578125 c 0
 46.7138671875 247.142578125 186.142578125 383.713867188 338.713867188 443.713867188 c 0
 398.713867188 457.142578125 558.142578125 522.286132812 442.428710938 579.713867188 c 0
 383.857421875 602.286132812 308.142578125 593.428710938 295.571289062 522.286132812 c 0
 240.713867188 449.713867188 148.713867188 559.428710938 198.428710938 620.571289062 c 0
 308.713867188 794.571289062 701.571289062 680.571289062 579.857421875 458.286132812 c 0
 512.428710938 333.142578125 317.286132812 363.428710938 252.713867188 242.857421875 c 1
 301.571289062 228.571289062 354.713867188 221.142578125 394.428710938 182.857421875 c 0
 436.428710938 152.857421875 462.428710938 113.428710938 517.286132812 100.571289062 c 1
 517 100.857421875 l 2
EndSplineSet
EndChar

StartChar: three
Encoding: 51 51 110
Width: 709
Flags: W
HStem: 581.143 118.571<236.442 386.543>
VStem: 54.3721 105.144<161.454 260.917>
LayerCount: 2
Fore
SplineSet
421.80078125 700.286132812 m 1
 486.372070312 700.286132812 649.80078125 721.713867188 598.372070312 610.571289062 c 0
 560.086914062 565.713867188 517.229492188 524.286132812 478.372070312 479.713867188 c 0
 476.943359375 478 479.229492188 469.713867188 481.515625 468.571289062 c 0
 640.943359375 440.857421875 710.086914062 258.857421875 613.229492188 130.286132812 c 0
 490.943359375 -28.857421875 199.229492188 -122 84.3720703125 93.7138671875 c 0
 54.658203125 140 31.2294921875 202 54.3720703125 255.428710938 c 0
 75.515625 304.571289062 148.943359375 290.857421875 159.515625 245.428710938 c 0
 157.515625 189.142578125 184.086914062 145.428710938 224.086914062 108 c 0
 282.658203125 44.2861328125 374.372070312 106.571289062 439.229492188 130.571289062 c 0
 598.658203125 204.857421875 560.372070312 401.713867188 372.372070312 343.713867188 c 0
 334.943359375 333.142578125 317.515625 281.428710938 273.229492188 291.713867188 c 0
 121.515625 359.428710938 334.086914062 486.286132812 384.372070312 556.286132812 c 0
 412.086914062 600 291.515625 573.428710938 268.086914062 581.142578125 c 0
 242.658203125 582.286132812 221.229492188 603.428710938 217.515625 628.857421875 c 0
 214.372070312 731.142578125 356.943359375 687.428710938 421.80078125 699.713867188 c 2
 421.80078125 700.286132812 l 1
EndSplineSet
EndChar

StartChar: four
Encoding: 52 52 111
Width: 605
Flags: W
HStem: 165.143 113.144<455.68 542.006>
VStem: 303.25 108.286<3.55454 143.254>
LayerCount: 2
Fore
SplineSet
234.107421875 156 m 0
 183.25 165.713867188 82.6787109375 101.142578125 50.96484375 174.571289062 c 0
 44.6787109375 187.713867188 42.107421875 201.142578125 49.5361328125 213.713867188 c 0
 96.96484375 293.142578125 116.678710938 382.286132812 140.392578125 470.286132812 c 0
 179.25 542 137.536132812 754 246.678710938 743.142578125 c 0
 269.821289062 738.857421875 288.678710938 719.713867188 290.392578125 696.857421875 c 0
 288.678710938 557.428710938 249.25 422.286132812 211.25 288.857421875 c 0
 209.821289062 283.713867188 216.96484375 274.571289062 222.392578125 274.571289062 c 0
 307.25 280.571289062 339.25 251.713867188 344.107421875 360.857421875 c 0
 348.392578125 392.571289062 354.107421875 424 360.392578125 455.142578125 c 0
 374.678710938 520 479.25 506.857421875 473.821289062 436.286132812 c 0
 469.821289062 389.142578125 451.821289062 342 455.25 294.857421875 c 0
 464.107421875 275.713867188 492.96484375 284.286132812 510.392578125 278.286132812 c 0
 557.536132812 271.142578125 572.392578125 204 532.392578125 178.571289062 c 0
 509.536132812 162.286132812 479.536132812 168 452.96484375 165.142578125 c 0
 403.821289062 134.857421875 437.536132812 53.142578125 411.536132812 6.5712890625 c 0
 391.25 -46.5712890625 304.107421875 -29.142578125 303.25 26.857421875 c 0
 297.536132812 108.571289062 361.536132812 175.428710938 234.107421875 156 c 0
EndSplineSet
EndChar

StartChar: five
Encoding: 53 53 112
Width: 704
Flags: W
LayerCount: 2
Fore
SplineSet
314.48046875 -10.857421875 m 0
 221.623046875 -25.7138671875 -50.9482421875 112.286132812 76.1953125 210.571289062 c 0
 154.1953125 231.428710938 179.909179688 113.142578125 259.337890625 110.857421875 c 0
 368.766601562 73.4287109375 566.48046875 178.286132812 503.337890625 304.571289062 c 0
 403.623046875 441.142578125 281.337890625 260.286132812 249.051757812 382.857421875 c 0
 243.623046875 464.571289062 281.051757812 546.571289062 270.48046875 626.857421875 c 0
 260.48046875 653.142578125 277.909179688 675.142578125 291.623046875 695.713867188 c 0
 318.1953125 740.286132812 371.051757812 712.286132812 411.337890625 726 c 0
 488.766601562 729.142578125 615.051757812 753.142578125 654.48046875 667.713867188 c 0
 669.623046875 622.571289062 621.051757812 578.286132812 577.909179688 597.142578125 c 0
 536.48046875 620.857421875 377.051757812 636.286132812 385.909179688 563.142578125 c 0
 387.909179688 538.571289062 362.766601562 494.571289062 390.766601562 481.142578125 c 0
 459.337890625 470.571289062 525.337890625 448.857421875 574.766601562 398.571289062 c 0
 747.623046875 224.857421875 513.623046875 -25.4287109375 314.48046875 -10.857421875 c 0
EndSplineSet
EndChar

StartChar: six
Encoding: 54 54 113
Width: 657
Flags: W
LayerCount: 2
Fore
SplineSet
347.6953125 484.857421875 m 1
 846.552734375 435.142578125 474.837890625 -168.286132812 144.837890625 58.2861328125 c 0
 -21.162109375 172.571289062 56.2666015625 418.286132812 197.6953125 527.713867188 c 0
 261.981445312 583.142578125 543.41015625 804.857421875 604.266601562 698.571289062 c 0
 615.981445312 668.857421875 604.837890625 636 577.41015625 622.571289062 c 0
 501.41015625 592 426.266601562 558.286132812 359.6953125 509.428710938 c 0
 352.266601562 504 345.41015625 498 347.981445312 484.857421875 c 1
 347.6953125 484.857421875 l 1
358.837890625 364.286132812 m 0
 303.124023438 368.857421875 257.6953125 337.428710938 203.124023438 340.857421875 c 0
 155.981445312 318.857421875 159.124023438 236 179.124023438 193.713867188 c 0
 296.837890625 -25.7138671875 653.981445312 334.857421875 358.837890625 364.286132812 c 0
EndSplineSet
EndChar

StartChar: seven
Encoding: 55 55 114
Width: 600
Flags: W
HStem: 594.571 113.429<89.0408 327.486>
VStem: 81.9092 119.429<41.7919 126.833>
LayerCount: 2
Fore
SplineSet
212.766601562 591.142578125 m 1
 176.1953125 592.286132812 139.624023438 592.286132812 103.337890625 594.571289062 c 0
 20.7666015625 602.286132812 40.1953125 726.286132812 119.624023438 708 c 0
 243.052734375 699.428710938 366.1953125 711.428710938 488.1953125 727.713867188 c 0
 532.48046875 734.571289062 574.766601562 679.142578125 545.624023438 641.142578125 c 0
 390.766601562 515.142578125 327.909179688 318 231.624023438 148.857421875 c 0
 217.052734375 120.571289062 203.337890625 92.2861328125 201.337890625 58.857421875 c 0
 195.624023438 -1.4287109375 90.1953125 -0.857421875 81.9091796875 59.4287109375 c 0
 116.1953125 241.142578125 246.766601562 406.286132812 327.337890625 574.286132812 c 0
 332.766601562 612.571289062 238.766601562 585.428710938 212.48046875 593.142578125 c 1
 212.48046875 592.286132812 212.48046875 591.713867188 212.48046875 590.857421875 c 1
 212.766601562 591.142578125 l 1
EndSplineSet
EndChar

StartChar: eight
Encoding: 56 56 115
Width: 627
Flags: W
LayerCount: 2
Fore
SplineSet
228.446289062 421.142578125 m 0
 102.446289062 646.857421875 475.017578125 854.286132812 571.58984375 619.713867188 c 0
 583.017578125 576.286132812 569.017578125 537.713867188 534.161132812 509.428710938 c 0
 499.58984375 474.857421875 453.303710938 447.713867188 430.732421875 404.571289062 c 1
 621.875 312.286132812 607.58984375 82.857421875 403.875 20.5712890625 c 0
 266.446289062 -19.7138671875 -9.5537109375 22.5712890625 55.875 225.713867188 c 0
 87.3037109375 313.713867188 178.446289062 349.142578125 228.446289062 421.142578125 c 0
315.017578125 123.142578125 m 0
 498.732421875 136.571289062 491.017578125 275.142578125 319.017578125 322.857421875 c 0
 182.446289062 252.571289062 61.875 120.857421875 315.017578125 123.142578125 c 0
340.161132812 492.857421875 m 0
 375.875 521.142578125 420.446289062 554.857421875 439.875 596.857421875 c 0
 411.303710938 620.286132812 363.58984375 592 339.875 569.713867188 c 0
 320.446289062 550.857421875 308.161132812 506.857421875 340.161132812 492.857421875 c 0
EndSplineSet
EndChar

StartChar: nine
Encoding: 57 57 116
Width: 701
Flags: W
HStem: 287.429 124<356.39 439.333>
LayerCount: 2
Fore
SplineSet
439.046875 287.428710938 m 2
 50.1904296875 317.428710938 129.046875 778.857421875 501.333007812 718 c 0
 701.904296875 690.571289062 673.904296875 417.142578125 586.190429688 281.142578125 c 0
 520.190429688 158.571289062 398.76171875 78.5712890625 268.76171875 36.2861328125 c 0
 200.475585938 18 25.6181640625 -66.5712890625 46.76171875 70.5712890625 c 0
 58.4755859375 100.571289062 92.76171875 104.857421875 120.190429688 112.857421875 c 0
 229.618164062 148.571289062 384.475585938 178 439.333007812 287.428710938 c 1
 439.046875 287.428710938 l 2
445.904296875 411.428710938 m 0
 538.76171875 407.142578125 544.475585938 475.142578125 535.904296875 554.286132812 c 0
 507.904296875 636.286132812 383.904296875 612 327.618164062 573.428710938 c 0
 242.475585938 497.142578125 347.904296875 394.286132812 445.904296875 411.428710938 c 0
EndSplineSet
EndChar

StartChar: colon
Encoding: 58 58 117
Width: 245
Flags: W
HStem: -2.57129 112.658<79.8005 137.968> 398 112.658<108.372 166.539>
LayerCount: 2
Fore
SplineSet
136.34375 398 m 0
 58.62890625 398 61.7724609375 514.286132812 139.201171875 510.571289062 c 0
 214.62890625 512.286132812 214.62890625 392.857421875 136.34375 398 c 0
107.772460938 -2.5712890625 m 0
 30.0576171875 -2.5712890625 33.201171875 113.713867188 110.62890625 110 c 0
 186.057617188 111.713867188 186.057617188 -7.7138671875 107.772460938 -2.5712890625 c 0
EndSplineSet
EndChar

StartChar: semicolon
Encoding: 59 59 118
Width: 278
Flags: W
HStem: 398 112.658<139.55 197.718>
LayerCount: 2
Fore
SplineSet
217.522460938 0.2861328125 m 1
 218.950195312 -80.5712890625 130.37890625 -207.428710938 52.6650390625 -130.857421875 c 0
 38.09375 -111.142578125 40.37890625 -78.2861328125 56.9501953125 -60.857421875 c 0
 104.950195312 -29.4287109375 106.37890625 6.857421875 86.6650390625 56.857421875 c 0
 77.8076171875 108.571289062 150.09375 135.428710938 182.09375 100.571289062 c 0
 211.236328125 70.2861328125 216.950195312 32.5712890625 217.522460938 0 c 1
 217.522460938 0.2861328125 l 1
167.522460938 398 m 0
 89.8076171875 398 92.9501953125 514.286132812 170.37890625 510.571289062 c 0
 245.807617188 512.286132812 245.807617188 392.857421875 167.522460938 398 c 0
EndSplineSet
EndChar

StartChar: less
Encoding: 60 60 119
Width: 667
Flags: W
LayerCount: 2
Fore
SplineSet
251.233398438 366.286132812 m 1
 312.662109375 317.142578125 750.947265625 196.857421875 577.518554688 101.142578125 c 0
 419.518554688 128.571289062 276.947265625 243.713867188 122.08984375 295.713867188 c 0
 -103.91015625 419.428710938 243.518554688 491.428710938 335.8046875 546.286132812 c 0
 400.375976562 571.428710938 454.947265625 611.713867188 510.947265625 651.428710938 c 0
 556.375976562 678.286132812 613.8046875 614.286132812 583.233398438 572 c 0
 504.375976562 461.428710938 338.08984375 452.286132812 251.233398438 366.286132812 c 1
EndSplineSet
EndChar

StartChar: equal
Encoding: 61 61 120
Width: 593
Flags: W
HStem: 171.143 124.571<101.907 233.195 379.388 503.744> 398 114<293.543 517.268>
LayerCount: 2
Fore
SplineSet
293.829101562 398 m 1
 218.971679688 402.571289062 18.400390625 341.142578125 63.54296875 476 c 0
 123.54296875 532.571289062 223.829101562 500.857421875 299.829101562 512 c 0
 372.971679688 498.286132812 524.400390625 556.286132812 536.115234375 449.428710938 c 0
 514.686523438 356 361.829101562 412.857421875 293.54296875 398 c 1
 293.829101562 398 l 1
302.971679688 295.428710938 m 2
 375.54296875 281.428710938 528.115234375 325.713867188 529.54296875 219.428710938 c 0
 523.54296875 191.142578125 499.54296875 170.857421875 471.54296875 171.142578125 c 0
 355.829101562 183.713867188 240.400390625 181.142578125 124.971679688 171.142578125 c 0
 87.8291015625 171.713867188 60.115234375 215.713867188 75.54296875 250.571289062 c 0
 122.686523438 319.142578125 233.54296875 282 302.971679688 295.713867188 c 1
 302.971679688 295.428710938 l 2
EndSplineSet
EndChar

StartChar: greater
Encoding: 62 62 121
Width: 642
Flags: W
LayerCount: 2
Fore
SplineSet
381.611328125 366 m 2
 325.325195312 426.857421875 -40.103515625 544.857421875 121.896484375 644.286132812 c 0
 145.040039062 653.142578125 166.182617188 638 184.467773438 625.428710938 c 0
 295.040039062 548.286132812 411.896484375 482.286132812 535.325195312 428.286132812 c 0
 630.182617188 397.428710938 606.467773438 310 518.182617188 291.142578125 c 0
 395.611328125 241.713867188 279.325195312 178.571289062 165.896484375 110.571289062 c 0
 135.611328125 92.2861328125 101.325195312 64 66.75390625 88.857421875 c 0
 -54.6748046875 202 326.182617188 301.142578125 381.896484375 366 c 1
 381.611328125 366 l 2
EndSplineSet
EndChar

StartChar: question
Encoding: 63 63 122
Width: 591
Flags: W
VStem: 48.0879 102.571<499.99 552.025>
LayerCount: 2
Fore
SplineSet
546.087890625 516.571289062 m 0
 521.801757812 357.713867188 332.373046875 272 215.801757812 180.571289062 c 0
 186.659179688 158 136.087890625 166.571289062 124.087890625 203.142578125 c 0
 91.5166015625 285.713867188 352.087890625 390 401.801757812 472.571289062 c 0
 516.944335938 615.713867188 167.516601562 672.857421875 150.659179688 496.571289062 c 0
 126.659179688 448.286132812 44.9443359375 474 48.087890625 526.286132812 c 0
 49.8017578125 566.286132812 64.087890625 602 88.373046875 633.428710938 c 0
 205.23046875 787.142578125 544.659179688 738.857421875 546.087890625 516.571289062 c 0
236.373046875 58.857421875 m 0
 236.944335938 -23.142578125 118.087890625 -26.2861328125 117.801757812 52 c 0
 116.087890625 121.142578125 234.944335938 137.428710938 236.373046875 58.857421875 c 0
EndSplineSet
EndChar

StartChar: at
Encoding: 64 64 123
Width: 937
Flags: W
LayerCount: 2
Fore
SplineSet
532.563476562 83.142578125 m 2
 478.563476562 -9.142578125 320.563476562 -40.2861328125 292.848632812 88.5712890625 c 0
 273.9921875 229.142578125 368.563476562 383.142578125 501.134765625 432.857421875 c 0
 669.706054688 480.857421875 561.134765625 228.286132812 634.563476562 158.286132812 c 0
 646.27734375 144.286132812 665.706054688 154.286132812 676.563476562 164 c 0
 821.706054688 266 802.848632812 652.286132812 557.134765625 630.571289062 c 0
 401.9921875 612.857421875 283.706054688 534.286132812 199.134765625 404.286132812 c 0
 128.563476562 296.286132812 195.706054688 166 230.27734375 56.2861328125 c 0
 239.706054688 32.5712890625 223.134765625 4 203.134765625 -8 c 0
 92.27734375 -52.857421875 73.419921875 184 52.5634765625 255.428710938 c 0
 17.9921875 595.428710938 565.706054688 927.142578125 805.9921875 631.713867188 c 0
 926.563476562 474 909.9921875 222.286132812 763.419921875 86.2861328125 c 0
 674.563476562 7.7138671875 622.563476562 16.857421875 532.848632812 83.142578125 c 2
 532.563476562 83.142578125 l 2
409.419921875 150.286132812 m 0
 421.134765625 102.286132812 487.134765625 236 481.419921875 255.142578125 c 0
 459.706054688 302.286132812 408.27734375 172.571289062 409.419921875 150.286132812 c 0
EndSplineSet
EndChar

StartChar: A
Encoding: 65 65 124
Width: 760
Flags: W
LayerCount: 2
Fore
SplineSet
239.647460938 179.142578125 m 2
 192.21875 130 169.361328125 -35.7138671875 82.21875 1.7138671875 c 0
 54.7900390625 16.2861328125 40.7900390625 43.4287109375 49.6474609375 69.4287109375 c 0
 148.21875 272 259.361328125 468.857421875 373.076171875 663.713867188 c 0
 411.076171875 751.142578125 496.50390625 744.571289062 510.790039062 647.428710938 c 0
 559.076171875 459.713867188 616.21875 274.857421875 694.50390625 97.142578125 c 0
 712.790039062 60.2861328125 713.076171875 9.4287109375 663.076171875 -2.857421875 c 0
 628.50390625 -12 601.647460938 15.142578125 591.361328125 45.142578125 c 0
 557.076171875 103.713867188 549.932617188 197.142578125 498.21875 237.428710938 c 0
 411.647460938 223.428710938 324.21875 202.571289062 239.361328125 179.428710938 c 1
 239.647460938 179.142578125 l 2
426.790039062 503.142578125 m 1
 379.932617188 478 368.790039062 409.713867188 336.790039062 367.428710938 c 0
 331.647460938 354.286132812 310.21875 328 331.647460938 321.142578125 c 0
 509.932617188 353.713867188 476.21875 343.428710938 426.50390625 502.857421875 c 1
 426.790039062 503.142578125 l 1
EndSplineSet
EndChar

StartChar: B
Encoding: 66 66 125
Width: 728
Flags: W
LayerCount: 2
Fore
SplineSet
530.053710938 394.571289062 m 1
 685.482421875 318.571289062 732.911132812 100.286132812 557.768554688 24.2861328125 c 0
 416.911132812 -35.4287109375 260.33984375 28 118.33984375 0 c 0
 -1.66015625 -7.142578125 90.33984375 254.571289062 80.33984375 330.857421875 c 0
 89.7685546875 440 92.33984375 550 103.482421875 658.857421875 c 0
 123.482421875 744.857421875 188.911132812 692.571289062 244.625976562 700 c 0
 471.768554688 763.142578125 804.625976562 621.428710938 530.053710938 394.571289062 c 1
194.625976562 287.142578125 m 0
 197.482421875 248 157.197265625 145.142578125 198.625976562 127.142578125 c 0
 290.911132812 115.428710938 622.625976562 64 539.482421875 238.286132812 c 0
 454.625976562 324.857421875 298.053710938 364.857421875 194.625976562 287.142578125 c 0
370.625976562 595.428710938 m 2
 323.197265625 589.428710938 217.768554688 603.142578125 210.625976562 541.428710938 c 0
 211.768554688 512 188.625976562 448.286132812 236.625976562 453.428710938 c 0
 325.768554688 463.713867188 429.768554688 469.428710938 502.625976562 525.713867188 c 0
 541.197265625 596.571289062 413.197265625 593.713867188 370.625976562 595.713867188 c 1
 370.625976562 595.428710938 l 2
EndSplineSet
EndChar

StartChar: C
Encoding: 67 67 126
Width: 737
Flags: W
LayerCount: 2
Fore
SplineSet
50.0556640625 267.713867188 m 1
 45.4833984375 533.713867188 323.198242188 770 582.626953125 700.857421875 c 0
 650.912109375 687.142578125 729.483398438 575.713867188 650.055664062 528.857421875 c 0
 618.626953125 514.286132812 583.483398438 533.142578125 571.76953125 563.142578125 c 0
 478.340820312 679.428710938 234.340820312 504.571289062 191.76953125 396.571289062 c 0
 124.340820312 286 179.76953125 114.857421875 322.626953125 113.713867188 c 0
 439.76953125 102.571289062 520.055664062 202.857421875 618.340820312 241.428710938 c 0
 640.340820312 244.286132812 662.055664062 230.857421875 672.626953125 208 c 0
 709.76953125 131.142578125 525.483398438 56.2861328125 470.626953125 26.5712890625 c 0
 291.198242188 -56.5712890625 52.0556640625 48.5712890625 50.3408203125 268 c 1
 50.0556640625 267.713867188 l 1
EndSplineSet
EndChar

StartChar: D
Encoding: 68 68 127
Width: 732
Flags: W
VStem: 60.2383 122.857<120.286 192.571>
LayerCount: 2
Fore
SplineSet
60.23828125 120.571289062 m 2
 70.23828125 241.142578125 82.5244140625 361.713867188 89.953125 482.571289062 c 0
 106.524414062 549.142578125 70.810546875 688.857421875 146.23828125 715.142578125 c 0
 391.666992188 815.142578125 705.666992188 631.428710938 675.381835938 358.571289062 c 0
 691.095703125 80.2861328125 -0.046875 -171.428710938 58.5244140625 120.286132812 c 0
 59.095703125 120.286132812 59.6669921875 120.286132812 60.23828125 120.286132812 c 1
 60.23828125 120.571289062 l 2
182.810546875 192.571289062 m 1
 182.810546875 192.571289062 182.810546875 192.571289062 183.095703125 192.571289062 c 1
 183.095703125 153.142578125 161.666992188 98.857421875 222.23828125 112 c 0
 313.381835938 124.857421875 395.666992188 169.428710938 469.666992188 222.286132812 c 0
 689.381835938 393.428710938 475.953125 672.286132812 236.524414062 618.286132812 c 0
 223.381835938 616.286132812 213.953125 604.857421875 212.810546875 588.857421875 c 0
 205.095703125 456.571289062 193.095703125 324.857421875 182.524414062 192.857421875 c 2
 182.810546875 192.571289062 l 1
EndSplineSet
EndChar

StartChar: E
Encoding: 69 69 128
Width: 691
Flags: W
HStem: 338.286 102.571<214.135 437.067>
VStem: 57 121.429<24.7144 302.873>
LayerCount: 2
Fore
SplineSet
394.428710938 127.428710938 m 2
 466.428710938 113.428710938 654.143554688 174.857421875 631 50.5712890625 c 0
 609 -29.4287109375 243.571289062 43.4287109375 134.71484375 -1.4287109375 c 0
 101.571289062 -12.857421875 60.4287109375 6.5712890625 57 42.857421875 c 0
 63.5712890625 240.857421875 84.1435546875 438.857421875 109.571289062 635.428710938 c 0
 111.286132812 674.857421875 138.143554688 728.286132812 183 711.713867188 c 0
 263 676 751.571289062 794.571289062 607.571289062 601.713867188 c 0
 523.571289062 570 257.571289062 636.286132812 215.857421875 554 c 0
 219 526.857421875 186.71484375 446.857421875 221 440.857421875 c 0
 285 432 413.571289062 486 443.857421875 413.428710938 c 0
 457 376 438.71484375 348.571289062 405.571289062 338.286132812 c 0
 203 311.713867188 179.857421875 375.713867188 178.428710938 143.713867188 c 0
 181.286132812 105.713867188 355.571289062 137.142578125 394.143554688 130 c 0
 394.143554688 129.142578125 394.143554688 128.286132812 394.143554688 127.428710938 c 1
 394.428710938 127.428710938 l 2
EndSplineSet
EndChar

StartChar: F
Encoding: 70 70 129
Width: 741
Flags: W
HStem: 294.857 121.429<328.073 550.904>
LayerCount: 2
Fore
SplineSet
328.073242188 416.286132812 m 1
 397.787109375 401.142578125 572.358398438 456 573.787109375 342 c 0
 567.215820312 316.571289062 544.073242188 295.142578125 521.215820312 294.857421875 c 0
 414.9296875 302 304.9296875 308.286132812 201.787109375 279.428710938 c 0
 139.787109375 218.571289062 241.787109375 -57.142578125 78.64453125 6.857421875 c 0
 48.9296875 28.2861328125 62.0732421875 72 60.9296875 103.428710938 c 0
 76.3583984375 292.286132812 78.0732421875 482.571289062 103.215820312 670.286132812 c 0
 110.358398438 708.857421875 160.358398438 722.857421875 190.9296875 700.571289062 c 0
 348.073242188 701.428710938 540.073242188 739.142578125 686.64453125 663.142578125 c 0
 723.215820312 621.142578125 678.358398438 560.286132812 627.215820312 570.857421875 c 0
 498.073242188 582.286132812 318.358398438 639.713867188 210.073242188 558.286132812 c 0
 196.64453125 413.142578125 155.501953125 384.857421875 328.64453125 416 c 1
 328.073242188 416.286132812 l 1
EndSplineSet
EndChar

StartChar: G
Encoding: 71 71 130
Width: 749
Flags: W
HStem: 292.857 107.429<620.175 671.348>
LayerCount: 2
Fore
SplineSet
618.361328125 271.428710938 m 0
 802.932617188 -30.2861328125 329.217773438 -77.142578125 170.075195312 88.857421875 c 0
 -51.0673828125 259.713867188 59.2177734375 613.713867188 309.217773438 692 c 0
 390.646484375 726.857421875 637.790039062 728 621.50390625 601.713867188 c 0
 612.646484375 579.142578125 591.790039062 565.428710938 568.646484375 565.428710938 c 0
 90.361328125 752 11.50390625 -6 528.932617188 129.428710938 c 0
 582.646484375 200.857421875 437.790039062 246.857421875 416.361328125 306.857421875 c 0
 384.932617188 418.571289062 579.790039062 377.713867188 646.075195312 400.286132812 c 0
 701.50390625 402.286132812 721.790039062 312 668.932617188 292.857421875 c 0
 650.932617188 286.571289062 634.075195312 283.428710938 618.361328125 271.428710938 c 0
EndSplineSet
EndChar

StartChar: H
Encoding: 72 72 131
Width: 712
Flags: W
HStem: 274.286 115.714<207.823 505.195>
VStem: 98.3916 112.571<528.571 697.133>
LayerCount: 2
Fore
SplineSet
209.534179688 528.857421875 m 1
 217.248046875 490 181.819335938 406.286132812 225.819335938 390 c 0
 284.962890625 398.286132812 508.962890625 380.571289062 527.534179688 429.428710938 c 0
 552.676757812 503.142578125 498.962890625 734.571289062 624.676757812 705.142578125 c 0
 692.10546875 667.428710938 643.534179688 570.571289062 650.391601562 508 c 0
 635.248046875 353.713867188 632.676757812 198.286132812 616.676757812 44 c 0
 612.391601562 0.857421875 554.962890625 -19.142578125 521.534179688 10 c 0
 481.819335938 83.142578125 522.391601562 182.857421875 516.676757812 264.571289062 c 0
 512.10546875 322.286132812 286.962890625 260.857421875 231.248046875 274.286132812 c 0
 129.534179688 277.713867188 238.962890625 -44.857421875 91.5341796875 -1.142578125 c 0
 19.5341796875 35.142578125 74.10546875 131.713867188 69.5341796875 194.286132812 c 0
 85.8193359375 348.571289062 94.6767578125 503.428710938 98.3916015625 658.286132812 c 0
 103.248046875 699.142578125 148.676757812 724.286132812 185.819335938 702.857421875 c 0
 239.248046875 664.571289062 204.962890625 584.571289062 210.962890625 528.571289062 c 1
 210.391601562 528.571289062 209.819335938 528.571289062 209.248046875 528.571289062 c 1
 209.534179688 528.857421875 l 1
EndSplineSet
EndChar

StartChar: I
Encoding: 73 73 132
Width: 749
Flags: W
HStem: -9.14258 123.429<446.519 653.028> 594.286 108<103.102 169.669 571.551 684.247>
VStem: 342.925 116.286<283.342 592.319>
LayerCount: 2
Fore
SplineSet
366.639648438 -9.4287109375 m 1
 299.2109375 8.5712890625 43.2109375 -44.2861328125 48.068359375 60.857421875 c 0
 60.9248046875 160.571289062 241.49609375 92 312.353515625 113.713867188 c 0
 359.49609375 245.713867188 328.639648438 419.428710938 342.924804688 565.142578125 c 0
 349.782226562 627.428710938 168.924804688 582.286132812 124.068359375 594.286132812 c 0
 68.068359375 596 55.7822265625 687.428710938 110.639648438 702.286132812 c 0
 289.782226562 726 476.353515625 715.428710938 656.353515625 703.428710938 c 0
 686.068359375 697.713867188 697.49609375 666.286132812 693.49609375 639.142578125 c 0
 683.49609375 574.286132812 606.068359375 597.713867188 560.068359375 593.713867188 c 0
 446.068359375 593.713867188 463.2109375 609.428710938 459.2109375 498.286132812 c 0
 455.782226562 400.286132812 450.639648438 302.286132812 447.782226562 204.286132812 c 0
 444.639648438 100.857421875 434.068359375 112 535.782226562 114.286132812 c 0
 567.782226562 115.142578125 599.49609375 118.571289062 631.49609375 120 c 0
 668.639648438 122.857421875 703.2109375 83.7138671875 690.639648438 47.142578125 c 0
 661.49609375 -31.4287109375 451.2109375 9.4287109375 366.353515625 -9.142578125 c 1
 366.639648438 -9.4287109375 l 1
EndSplineSet
EndChar

StartChar: J
Encoding: 74 74 133
Width: 718
Flags: W
HStem: 593.429 120.571<234.766 410.245 527.128 660.499>
LayerCount: 2
Fore
SplineSet
461.73828125 712.857421875 m 2
 530.024414062 701.142578125 670.310546875 752.286132812 678.024414062 650 c 0
 674.310546875 580.857421875 591.73828125 599.142578125 543.73828125 592.286132812 c 0
 528.024414062 589.713867188 526.595703125 572 525.73828125 559.142578125 c 0
 509.166992188 415.142578125 519.73828125 264 478.310546875 124.857421875 c 0
 405.166992188 -70.5712890625 68.595703125 -39.7138671875 49.73828125 175.142578125 c 0
 37.453125 241.428710938 91.453125 372.857421875 174.595703125 323.428710938 c 0
 197.453125 306.286132812 204.310546875 275.713867188 190.595703125 250 c 0
 166.024414062 220.857421875 155.453125 182.571289062 181.453125 150.571289062 c 0
 229.73828125 86.857421875 356.595703125 98.2861328125 375.453125 181.713867188 c 0
 399.166992188 309.428710938 397.73828125 440.857421875 410.310546875 570 c 0
 410.595703125 616.571289062 302.310546875 586.286132812 269.166992188 593.428710938 c 0
 242.595703125 592.857421875 227.166992188 608.286132812 216.881835938 630.571289062 c 0
 192.024414062 750.857421875 391.453125 702.857421875 461.453125 714 c 1
 461.453125 712.857421875 l 1
 461.73828125 712.857421875 l 2
EndSplineSet
EndChar

StartChar: K
Encoding: 75 75 134
Width: 744
Flags: W
HStem: 422.286 21G<417.571 456.857>
VStem: 63 118.285<34.6453 283.949>
LayerCount: 2
Fore
SplineSet
417.571289062 422.571289062 m 1
 452.428710938 333.713867188 767.28515625 77.142578125 669 11.4287109375 c 0
 581.571289062 -62.5712890625 404.428710938 314.286132812 299.571289062 355.428710938 c 0
 148.713867188 287.713867188 188.142578125 233.142578125 181.28515625 92.2861328125 c 0
 203 -12.2861328125 63 -45.7138671875 63 65.7138671875 c 0
 67 259.713867188 77 453.713867188 87.5712890625 647.428710938 c 0
 84.4287109375 692 136.428710938 725.142578125 172.428710938 706 c 0
 246.713867188 672.286132812 159 472.286132812 211.571289062 441.428710938 c 0
 339 515.713867188 468.428710938 590.571289062 583.571289062 684.571289062 c 0
 637 745.428710938 729.857421875 676.857421875 675.857421875 613.142578125 c 0
 600.428710938 536 495.857421875 493.142578125 417.857421875 422.286132812 c 2
 417.571289062 422.571289062 l 1
EndSplineSet
EndChar

StartChar: L
Encoding: 76 76 135
Width: 719
Flags: W
HStem: 9.71387 115.715<185.674 443.291> 10 101.143<443.005 652.273>
VStem: 101.577 84.2852<192.857 464.964>
LayerCount: 2
Fore
SplineSet
443.291015625 9.7138671875 m 1xa0
 -86.708984375 30.857421875 71.0048828125 -174 101.577148438 658.286132812 c 0
 102.43359375 706.571289062 173.577148438 731.713867188 203.862304688 690.857421875 c 0
 231.004882812 540.286132812 191.291015625 375.713867188 185.862304688 221.428710938 c 0
 189.577148438 192.857421875 162.719726562 131.142578125 203.291015625 125.428710938 c 0xa0
 342.43359375 129.713867188 482.1484375 130.571289062 620.43359375 111.142578125 c 0
 663.862304688 102.857421875 679.291015625 41.7138671875 644.719726562 14.2861328125 c 0
 585.004882812 -17.142578125 508.43359375 13.7138671875 443.004882812 10 c 1x60
 443.291015625 9.7138671875 l 1xa0
EndSplineSet
EndChar

StartChar: M
Encoding: 77 77 136
Width: 772
Flags: W
HStem: 304.286 20G<187.601 193.601 194.172 232.315>
VStem: 578.172 118.571<-4.75018 303.092>
LayerCount: 2
Fore
SplineSet
194.171875 324.286132812 m 1
 181.029296875 229.713867188 184.171875 132.286132812 171.029296875 38 c 0
 140.743164062 -37.7138671875 36.171875 0 59.314453125 80.2861328125 c 0
 72.4580078125 262.571289062 84.7431640625 444.857421875 98.171875 626.857421875 c 0
 101.029296875 666.857421875 107.600585938 716.571289062 160.171875 716.571289062 c 0
 209.029296875 719.428710938 217.885742188 672.857421875 227.029296875 636.286132812 c 0
 263.600585938 499.142578125 317.314453125 368.286132812 371.029296875 237.428710938 c 0
 374.171875 229.428710938 379.029296875 221.428710938 392.458007812 223.142578125 c 0
 457.600585938 360.571289062 515.600585938 502 578.171875 640.571289062 c 0
 591.314453125 676.286132812 618.171875 724.857421875 663.885742188 711.142578125 c 0
 749.885742188 684.286132812 683.885742188 504 696.743164062 430.286132812 c 0
 693.885742188 295.713867188 698.743164062 160.571289062 694.171875 26 c 0
 691.600585938 -2.2861328125 656.743164062 -25.4287109375 627.885742188 -18.2861328125 c 0
 579.029296875 -10 578.743164062 42 578.743164062 81.7138671875 c 0
 592.458007812 536 529.600585938 198.571289062 431.314453125 21.7138671875 c 0
 303.314453125 -117.428710938 271.029296875 300.857421875 193.600585938 324.286132812 c 1
 194.171875 324.286132812 l 1
EndSplineSet
EndChar

StartChar: N
Encoding: 78 78 137
Width: 754
Flags: W
VStem: 54.6914 104.571<26.4493 133.301>
LayerCount: 2
Fore
SplineSet
217.548828125 442.571289062 m 2
 189.833984375 304.571289062 194.977539062 158.857421875 159.262695312 23.7138671875 c 0
 123.548828125 -40 35.548828125 12.5712890625 54.69140625 73.4287109375 c 0
 77.833984375 268 103.833984375 462.571289062 118.69140625 658.286132812 c 0
 122.977539062 714.286132812 197.833984375 729.428710938 224.69140625 685.713867188 c 0
 298.69140625 543.428710938 394.40625 415.428710938 490.120117188 287.713867188 c 0
 504.977539062 272.286132812 542.977539062 200.571289062 554.977539062 250 c 0
 569.262695312 376.857421875 578.40625 504.286132812 588.120117188 631.713867188 c 0
 582.40625 681.713867188 630.69140625 731.428710938 678.977539062 704 c 0
 748.40625 687.142578125 647.262695312 176.571289062 656.40625 73.4287109375 c 0
 666.120117188 11.142578125 588.69140625 -29.4287109375 548.977539062 22.857421875 c 0
 450.977539062 151.713867188 348.40625 277.142578125 256.69140625 410.857421875 c 0
 244.69140625 423.428710938 238.120117188 447.142578125 217.833984375 442.857421875 c 2
 217.548828125 442.571289062 l 2
EndSplineSet
EndChar

StartChar: O
Encoding: 79 79 138
Width: 765
Flags: W
LayerCount: 2
Fore
SplineSet
708.884765625 414 m 0
 730.884765625 39.4287109375 202.02734375 -196 60.02734375 216.286132812 c 0
 -43.6865234375 640.286132812 690.884765625 984 708.884765625 414 c 0
592.884765625 417.428710938 m 1
 597.741210938 470 558.313476562 623.713867188 479.169921875 581.713867188 c 0
 461.741210938 568.286132812 440.884765625 565.428710938 421.456054688 577.428710938 c 0
 313.741210938 615.428710938 181.456054688 424.286132812 170.884765625 327.142578125 c 0
 157.741210938 -25.142578125 610.884765625 100.286132812 593.169921875 417.428710938 c 1
 592.884765625 417.428710938 l 1
EndSplineSet
EndChar

StartChar: P
Encoding: 80 80 139
Width: 756
Flags: W
HStem: 694.857 20G<366.385 408.813>
VStem: 57.0996 108.571<28.5469 188.761>
LayerCount: 2
Fore
SplineSet
408.813476562 714.571289062 m 1
 791.385742188 742.857421875 810.2421875 297.713867188 463.099609375 224 c 0
 159.670898438 160.857421875 211.95703125 382.286132812 165.670898438 36.857421875 c 0
 139.099609375 -38.2861328125 34.8134765625 9.7138671875 57.099609375 80.857421875 c 0
 78.2421875 257.713867188 85.95703125 435.713867188 95.3857421875 613.713867188 c 0
 137.385742188 694 323.670898438 708.857421875 409.099609375 714.857421875 c 1
 408.813476562 714.571289062 l 1
206.2421875 464.571289062 m 2
 206.2421875 464.571289062 204.2421875 464.571289062 203.099609375 464.571289062 c 0
 167.95703125 292.286132812 420.813476562 310.571289062 517.95703125 369.142578125 c 0
 590.528320312 406 633.95703125 529.713867188 546.813476562 573.713867188 c 0
 452.528320312 613.142578125 342.813476562 600 245.95703125 572.857421875 c 0
 191.385742188 564.286132812 208.813476562 506.571289062 206.2421875 464.571289062 c 2
EndSplineSet
EndChar

StartChar: Q
Encoding: 81 81 140
Width: 769
Flags: W
LayerCount: 2
Fore
SplineSet
508.141601562 46 m 1
 48.1416015625 -192 -137.858398438 518.286132812 301.856445312 691.142578125 c 0
 642.427734375 807.713867188 816.427734375 428.857421875 631.28515625 177.428710938 c 0
 598.141601562 130 591.28515625 111.428710938 658.427734375 112 c 0
 785.856445312 58 640.999023438 -76.5712890625 508.427734375 46 c 1
 508.141601562 46 l 1
430.999023438 146.857421875 m 0
 409.28515625 189.713867188 367.28515625 236.857421875 324.141601562 188.571289062 c 0
 126.999023438 153.713867188 312.712890625 487.428710938 511.28515625 241.713867188 c 0
 518.427734375 234.571289062 528.999023438 235.713867188 534.427734375 243.428710938 c 0
 658.427734375 432.286132812 569.28515625 646.857421875 325.856445312 572.286132812 c 0
 10.9990234375 420.857421875 220.141601562 -18.2861328125 430.999023438 146.857421875 c 0
EndSplineSet
EndChar

StartChar: R
Encoding: 82 82 141
Width: 757
Flags: W
HStem: 11.4287 103.143<563.409 666.158>
LayerCount: 2
Fore
SplineSet
61.5029296875 99.4287109375 m 1
 72.3603515625 270.286132812 82.3603515625 440.857421875 90.6455078125 611.713867188 c 0
 95.5029296875 678.571289062 174.360351562 680.286132812 224.645507812 694.857421875 c 0
 574.931640625 814.857421875 905.7890625 453.428710938 473.7890625 292 c 0
 453.502929688 280 341.7890625 293.142578125 374.645507812 254.571289062 c 0
 448.07421875 186.286132812 537.216796875 133.428710938 636.645507812 114.571289062 c 0
 693.7890625 114.857421875 729.7890625 50.2861328125 683.7890625 11.4287109375 c 0
 493.7890625 -33.4287109375 334.360351562 150.571289062 197.7890625 252.571289062 c 1
 166.645507812 195.428710938 189.216796875 106.286132812 168.645507812 40 c 0
 159.502929688 -6.857421875 88.3603515625 -14 67.216796875 25.4287109375 c 0
 55.216796875 48 60.07421875 74.5712890625 59.5029296875 99.142578125 c 1
 60.3603515625 99.142578125 61.216796875 99.142578125 62.07421875 99.142578125 c 1
 61.5029296875 99.4287109375 l 1
361.216796875 596.571289062 m 1
 346.645507812 595.142578125 316.360351562 596 288.07421875 589.428710938 c 0
 198.360351562 568.857421875 209.7890625 588 200.931640625 491.713867188 c 0
 161.216796875 364.286132812 433.502929688 388 498.645507812 425.713867188 c 0
 648.360351562 520.571289062 480.931640625 614.571289062 361.216796875 596.286132812 c 1
 361.216796875 596.571289062 l 1
EndSplineSet
EndChar

StartChar: glyph142
Encoding: 322 8211 142
Width: 761
VWidth: 0
Flags: W
HStem: 184.286 122<96.2772 197.164 415.494 638.81> 198.857 108<415.494 671.615>
LayerCount: 2
Fore
SplineSet
350.654296875 184.286132812 m 0x80
 286.940429688 184.286132812 223.2265625 184 159.2265625 184.286132812 c 0
 145.797851562 184.286132812 131.797851562 186 118.940429688 189.713867188 c 0
 93.7978515625 196.857421875 76.654296875 221.428710938 78.0830078125 246.286132812 c 0
 79.51171875 273.428710938 102.940429688 298.571289062 130.083007812 301.142578125 c 0
 141.51171875 302.286132812 152.940429688 302.286132812 164.083007812 301.713867188 c 0
 305.2265625 293.142578125 446.369140625 301.428710938 587.51171875 306.286132812 c 0x80
 603.51171875 306.857421875 619.51171875 307.713867188 635.2265625 306.857421875 c 0
 660.083007812 305.428710938 680.083007812 283.142578125 682.083007812 256.286132812 c 0
 684.083007812 229.713867188 667.2265625 204.286132812 643.51171875 198.857421875 c 0x40
 632.369140625 196.286132812 621.2265625 195.142578125 609.797851562 193.713867188 c 0
 523.797851562 183.142578125 437.2265625 183.428710938 350.654296875 184.286132812 c 0x80
EndSplineSet
EndChar

StartChar: glyph143
Encoding: 323 8212 143
Width: 1103
VWidth: 0
Flags: W
HStem: 204.286 110.856<91.0715 179.752 624.446 1013.52>
LayerCount: 2
Fore
SplineSet
584.038085938 315.713867188 m 1
 678.89453125 316.286132812 802.038085938 318.571289062 924.89453125 320 c 0
 943.180664062 320 961.465820312 320.857421875 979.465820312 318.857421875 c 0
 999.180664062 316.857421875 1012.03808594 303.713867188 1019.46582031 286 c 0
 1024.89453125 273.142578125 1025.18066406 259.428710938 1022.32324219 245.713867188 c 0
 1018.89453125 228.571289062 1008.609375 216.571289062 992.323242188 211.713867188 c 0
 972.609375 206 952.609375 202 931.751953125 203.713867188 c 0
 918.323242188 204.857421875 904.323242188 204.857421875 890.89453125 204.286132812 c 0
 654.038085938 194.571289062 417.180664062 197.142578125 180.609375 196.857421875 c 0
 162.323242188 196.857421875 144.038085938 196.857421875 126.038085938 198.286132812 c 0
 100.89453125 200.286132812 80.609375 222.571289062 78.3232421875 248.286132812 c 0
 75.4658203125 279.428710938 91.751953125 305.428710938 119.465820312 310.286132812 c 0
 139.465820312 313.713867188 160.038085938 314 180.609375 314 c 0
 305.751953125 314.571289062 431.180664062 314.286132812 584.323242188 315.142578125 c 1
 584.038085938 315.713867188 l 1
EndSplineSet
EndChar

StartChar: glyph144
Encoding: 324 8216 144
Width: 310
VWidth: 0
Flags: W
LayerCount: 2
Fore
SplineSet
61.140625 537.713867188 m 1
 63.140625 618.286132812 146.568359375 788 241.997070312 718.286132812 c 0
 304.568359375 640.286132812 138.568359375 600.857421875 182.568359375 495.713867188 c 0
 194.854492188 462 193.42578125 425.428710938 144.568359375 408.571289062 c 0
 77.9970703125 395.428710938 59.140625 484.857421875 61.140625 538 c 1
 61.140625 537.713867188 l 1
EndSplineSet
EndChar

StartChar: glyph145
Encoding: 325 8217 145
Width: 327
VWidth: 0
Flags: W
VStem: 131.107 129.144<531.514 672.002>
LayerCount: 2
Fore
SplineSet
260.250976562 613.713867188 m 2
 270.822265625 526 141.96484375 313.142578125 55.107421875 424 c 0
 22.822265625 516.857421875 193.393554688 520.571289062 131.107421875 668.571289062 c 0
 74.5361328125 807.142578125 263.107421875 812.857421875 260.250976562 614 c 2
 260.250976562 613.713867188 l 2
EndSplineSet
EndChar

StartChar: glyph146
Encoding: 326 8220 146
Width: 488
VWidth: 0
Flags: W
VStem: 229.513 117.714<502.286 564.857>
LayerCount: 2
Fore
SplineSet
229.2265625 564.571289062 m 1
 217.512695312 648.857421875 356.369140625 822.857421875 432.655273438 712.857421875 c 0
 459.512695312 633.428710938 317.512695312 629.428710938 347.2265625 538.857421875 c 0
 379.512695312 405.142578125 214.083984375 421.428710938 229.512695312 564.857421875 c 1
 229.2265625 564.571289062 l 1
65.7978515625 568.286132812 m 1
 60.083984375 645.713867188 135.797851562 786 220.083984375 721.428710938 c 0
 239.2265625 703.142578125 240.655273438 669.142578125 222.655273438 646.857421875 c 0
 124.940429688 566.571289062 240.369140625 524.571289062 183.2265625 457.713867188 c 0
 114.940429688 398.286132812 57.5126953125 509.428710938 65.7978515625 568.571289062 c 1
 65.7978515625 568.286132812 l 1
EndSplineSet
EndChar

StartChar: glyph147
Encoding: 327 8221 147
Width: 479
VWidth: 0
Flags: W
VStem: 142.354 118.285<615.951 711.592> 301.212 114.285<593.211 705.689>
LayerCount: 2
Fore
SplineSet
260.639648438 664.571289062 m 0
 264.068359375 587.428710938 170.068359375 440.857421875 83.783203125 479.142578125 c 0
 -4.216796875 546.857421875 145.211914062 595.142578125 142.354492188 664.857421875 c 0
 114.639648438 792.857421875 270.639648438 781.713867188 260.639648438 664.571289062 c 0
415.497070312 664.571289062 m 0
 420.354492188 574.571289062 353.497070312 412.286132812 253.783203125 475.428710938 c 0
 194.354492188 544 319.497070312 588 301.211914062 663.428710938 c 0
 284.354492188 774.571289062 424.068359375 767.428710938 415.497070312 664.571289062 c 0
EndSplineSet
EndChar

StartChar: S
Encoding: 83 83 148
Width: 765
Flags: W
HStem: 595.143 90.5713<430.9 531.667>
LayerCount: 2
Fore
SplineSet
348.836914062 110 m 1
 452.55078125 93.7138671875 678.836914062 198.857421875 555.694335938 314.286132812 c 0
 447.122070312 364.857421875 306.836914062 321.713867188 209.979492188 405.428710938 c 0
 131.979492188 469.428710938 121.408203125 595.142578125 214.836914062 666.571289062 c 0
 331.122070312 754.571289062 476.55078125 688.571289062 607.122070312 685.713867188 c 0
 659.122070312 680 668.265625 630.857421875 653.694335938 599.142578125 c 0
 591.408203125 523.428710938 435.979492188 618.857421875 345.122070312 595.142578125 c 0
 281.694335938 595.713867188 229.694335938 530 296.265625 485.713867188 c 0
 409.122070312 436.571289062 556.836914062 481.142578125 652.836914062 387.142578125 c 0
 743.122070312 302 710.836914062 151.142578125 620.55078125 78.5712890625 c 0
 470.836914062 -36.5712890625 205.979492188 -47.4287109375 73.1220703125 97.7138671875 c 0
 24.8369140625 156.286132812 45.6943359375 306 139.694335938 290.286132812 c 0
 268.265625 238.857421875 23.1220703125 129.713867188 349.122070312 110.286132812 c 1
 348.836914062 110 l 1
EndSplineSet
EndChar

StartChar: T
Encoding: 84 84 149
Width: 685
Flags: W
HStem: 287.429 20G<294.101 296.672 296.672 297.244> 307.143 21G<290.672 296.672> 591.714 122.286<422.224 624.077> 603.429 110<78.4873 175.529>
VStem: 296.672 123.143<307.143 583.629>
LayerCount: 2
Fore
SplineSet
296.671875 307.142578125 m 1x48
 284.671875 643.142578125 388.958007812 565.142578125 86.671875 603.428710938 c 0
 25.814453125 621.713867188 44.1005859375 713.428710938 102.958007812 713.428710938 c 0x58
 257.814453125 693.428710938 412.38671875 709.713867188 567.529296875 714 c 0
 604.38671875 718.857421875 645.243164062 700 644.100585938 657.428710938 c 0
 638.38671875 560.857421875 504.958007812 606.286132812 440.671875 591.713867188 c 0
 421.529296875 590 420.671875 569.428710938 419.814453125 554.571289062 c 0
 407.529296875 378.286132812 419.529296875 196.286132812 386.671875 22.857421875 c 1
 227.814453125 -102.857421875 300.38671875 231.428710938 294.100585938 307.428710938 c 1
 294.958007812 307.428710938 295.814453125 307.428710938 296.671875 307.428710938 c 1xa8
 296.671875 307.142578125 l 1x48
EndSplineSet
EndChar

StartChar: U
Encoding: 85 85 150
Width: 751
Flags: W
VStem: 78.457 98.2861<387.156 695.012> 587.886 102<552.568 690.59>
LayerCount: 2
Fore
SplineSet
692.171875 550.571289062 m 1
 747.885742188 -88 140.171875 -187.428710938 64.45703125 300.286132812 c 0
 47.314453125 415.713867188 63.0283203125 533.142578125 78.45703125 647.713867188 c 0
 81.8857421875 689.142578125 119.599609375 730.286132812 162.45703125 706 c 0
 230.743164062 663.142578125 172.45703125 566.571289062 176.743164062 501.428710938 c 0
 155.314453125 356 186.743164062 71.4287109375 391.314453125 116 c 0
 628.45703125 164.857421875 547.599609375 497.428710938 587.885742188 677.713867188 c 0
 603.028320312 723.428710938 673.314453125 722.286132812 689.885742188 679.713867188 c 0
 700.45703125 637.713867188 690.45703125 593.142578125 690.45703125 550.571289062 c 1
 691.028320312 550.571289062 691.599609375 550.571289062 691.885742188 550.571289062 c 2
 692.171875 550.571289062 l 1
EndSplineSet
EndChar

StartChar: V
Encoding: 86 86 151
Width: 736
Flags: W
LayerCount: 2
Fore
SplineSet
296.668945312 -4.5712890625 m 1
 256.3828125 -9.4287109375 236.954101562 34 232.09765625 69.4287109375 c 0
 194.954101562 272.571289062 110.668945312 462.286132812 48.09765625 656.286132812 c 0
 45.525390625 697.713867188 94.3828125 726.857421875 130.09765625 705.713867188 c 0
 224.668945312 574.571289062 256.3828125 396.571289062 308.954101562 243.142578125 c 0
 324.954101562 166.857421875 348.668945312 235.142578125 366.09765625 266.857421875 c 0
 444.09765625 408.571289062 512.954101562 556.286132812 596.954101562 694.571289062 c 0
 636.954101562 745.142578125 720.954101562 681.428710938 688.668945312 627.428710938 c 0
 586.954101562 440.857421875 487.240234375 253.428710938 393.525390625 62.857421875 c 0
 375.811523438 13.7138671875 350.3828125 -7.7138671875 296.3828125 -4.5712890625 c 1
 296.668945312 -4.5712890625 l 1
EndSplineSet
EndChar

StartChar: W
Encoding: 87 87 152
Width: 757
Flags: W
HStem: 334 21G<513.143 528.571>
LayerCount: 2
Fore
SplineSet
528.571289062 334.286132812 m 1
 598.286132812 390.571289062 547.71484375 780.286132812 693.428710938 700.286132812 c 0
 724.571289062 679.428710938 713.142578125 636.571289062 710.857421875 604.857421875 c 0
 680.857421875 512.571289062 630.286132812 -18.2861328125 542.857421875 -4.5712890625 c 0
 488.857421875 -8.2861328125 479.142578125 46.2861328125 469.428710938 86.2861328125 c 0
 441.71484375 196.857421875 414.286132812 307.428710938 386.286132812 418 c 0
 367.71484375 497.713867188 212 25.7138671875 176.571289062 7.7138671875 c 0
 133.428710938 -24.2861328125 86.2861328125 7.7138671875 83.4287109375 45.7138671875 c 0
 67.142578125 250.571289062 75.142578125 456.286132812 66 661.713867188 c 0
 68 698.857421875 105.142578125 720.857421875 140.857421875 706.857421875 c 0
 226.571289062 659.142578125 162 441.142578125 198.571289062 351.142578125 c 1
 265.71484375 444.286132812 294 578.571289062 348.571289062 684 c 0
 369.428710938 727.428710938 438.857421875 717.713867188 451.142578125 673.713867188 c 0
 477.428710938 560.571289062 497.142578125 445.428710938 529.142578125 334 c 1
 528.571289062 334.286132812 l 1
EndSplineSet
EndChar

StartChar: X
Encoding: 88 88 153
Width: 704
Flags: W
LayerCount: 2
Fore
SplineSet
370.135742188 484.286132812 m 2
 391.564453125 484.286132812 400.135742188 500 411.564453125 515.428710938 c 0
 461.278320312 583.713867188 509.850585938 652.857421875 559.278320312 721.428710938 c 0
 587.850585938 755.428710938 642.421875 745.428710938 660.421875 703.142578125 c 0
 672.993164062 673.713867188 644.70703125 647.142578125 631.278320312 623.142578125 c 0
 361.564453125 234 427.850585938 472.857421875 514.70703125 50.2861328125 c 0
 515.278320312 10.857421875 470.993164062 -20.2861328125 431.278320312 2.857421875 c 0
 376.993164062 26.2861328125 388.135742188 227.713867188 330.421875 224.571289062 c 0
 259.850585938 153.428710938 201.850585938 70 128.421875 1.7138671875 c 0
 78.1357421875 -33.7138671875 20.421875 48.2861328125 58.1357421875 89.7138671875 c 0
 131.278320312 180 213.278320312 264 283.278320312 356.571289062 c 0
 278.70703125 472.571289062 165.278320312 595.428710938 200.135742188 714.571289062 c 0
 322.135742188 830.857421875 321.564453125 547.713867188 370.135742188 484.571289062 c 2
 370.135742188 484.286132812 l 2
EndSplineSet
EndChar

StartChar: Y
Encoding: 89 89 154
Width: 611
Flags: W
VStem: 50.0029 109.143<590.566 682.068>
LayerCount: 2
Fore
SplineSet
570.002929688 636.286132812 m 1
 535.430664062 459.428710938 460.859375 292 351.430664062 147.713867188 c 0
 300.859375 102 246.859375 -47.7138671875 164.288085938 7.142578125 c 0
 86.57421875 72.857421875 273.145507812 200.286132812 293.716796875 274 c 0
 295.716796875 290.857421875 271.716796875 294.571289062 260.288085938 302 c 0
 126.288085938 360.857421875 70.2880859375 506 50.0029296875 641.713867188 c 0
 38.2880859375 707.713867188 132.57421875 742.571289062 159.145507812 674.857421875 c 0
 180.859375 568.286132812 229.145507812 379.142578125 367.430664062 401.142578125 c 0
 405.430664062 466 425.430664062 540 445.716796875 612 c 0
 456.002929688 654 463.716796875 724 523.716796875 709.713867188 c 0
 557.430664062 699.713867188 573.145507812 677.713867188 569.716796875 636 c 1
 570.002929688 636.286132812 l 1
EndSplineSet
EndChar

StartChar: Z
Encoding: 90 90 155
Width: 768
Flags: W
HStem: 309.429 114.571<525.633 675.833> 311.714 119.429<71.2417 228.27> 693.143 20G<565.045 732.617>
LayerCount: 2
Fore
SplineSet
346.90234375 431.713867188 m 2x60
 388.044921875 479.428710938 455.759765625 527.142578125 476.044921875 583.713867188 c 1
 367.759765625 590.286132812 253.188476562 576 143.188476562 595.713867188 c 0
 74.044921875 599.713867188 75.4736328125 707.428710938 143.759765625 709.713867188 c 0
 311.759765625 686.857421875 480.90234375 706.286132812 649.188476562 713.142578125 c 0
 816.044921875 660.571289062 562.90234375 517.142578125 525.759765625 446.286132812 c 0
 511.473632812 415.428710938 633.473632812 432.286132812 654.90234375 424 c 0
 717.759765625 419.428710938 724.90234375 317.428710938 661.473632812 309.428710938 c 0xa0
 572.044921875 293.713867188 457.188476562 346.286132812 381.759765625 291.428710938 c 0
 368.6171875 261.142578125 204.6171875 119.428710938 261.188476562 112 c 0
 362.331054688 100.571289062 670.044921875 183.142578125 706.331054688 64.2861328125 c 0
 715.188476562 5.142578125 650.6171875 -10.2861328125 605.188476562 5.7138671875 c 0
 312.6171875 42.5712890625 -211.668945312 -164 228.044921875 293.713867188 c 0
 233.759765625 326.286132812 181.188476562 308.286132812 162.044921875 311.713867188 c 0
 124.90234375 309.713867188 66.90234375 302.286132812 54.3310546875 346.286132812 c 0
 19.1884765625 476.286132812 272.044921875 412 346.90234375 431.142578125 c 2
 346.90234375 431.713867188 l 2x60
EndSplineSet
EndChar

StartChar: bracketleft
Encoding: 91 91 156
Width: 459
Flags: W
HStem: -157.143 112.571<168.292 344.291> 562 112.571<231.487 403.537>
LayerCount: 2
Fore
SplineSet
49.2861328125 -36 m 1
 71.857421875 198.286132812 90.142578125 439.142578125 131.857421875 669.142578125 c 0
 144.713867188 694.857421875 175 707.142578125 201.286132812 693.428710938 c 0
 253.857421875 668.857421875 313 684.857421875 369 674.571289062 c 0
 412.713867188 670.857421875 432.428710938 609.428710938 400.713867188 580 c 0
 360.713867188 547.428710938 297.286132812 573.142578125 248.428710938 562 c 0
 240.428710938 561.428710938 230.713867188 552 229.571289062 544.286132812 c 0
 207.857421875 397.713867188 194.142578125 250 176.428710938 102.857421875 c 0
 182.142578125 64.2861328125 137.857421875 -50 198.713867188 -44.5712890625 c 0
 252.428710938 -47.142578125 341.571289062 -10.5712890625 363 -80.5712890625 c 0
 378.713867188 -150.571289062 296.142578125 -155.428710938 247.286132812 -157.142578125 c 0
 196.713867188 -155.713867188 149 -176.571289062 98.7138671875 -175.713867188 c 0
 32.142578125 -165.428710938 55.2861328125 -83.7138671875 49 -36 c 1
 49.2861328125 -36 l 1
EndSplineSet
EndChar

StartChar: backslash
Encoding: 92 92 157
Width: 440
Flags: W
VStem: 272.505 124.286<-10.1048 59.6498>
LayerCount: 2
Fore
SplineSet
396.791015625 -14.2861328125 m 0
 371.076171875 -98.857421875 277.647460938 -56.2861328125 272.504882812 19.7138671875 c 0
 197.647460938 231.713867188 161.362304688 460.571289062 52.2197265625 658.571289062 c 0
 17.076171875 720.286132812 119.93359375 768.571289062 152.504882812 712.857421875 c 0
 274.504882812 489.428710938 329.076171875 229.428710938 396.791015625 -14.2861328125 c 0
EndSplineSet
EndChar

StartChar: bracketright
Encoding: 93 93 158
Width: 403
Flags: W
HStem: -158.857 106.286<67.6717 151.415> 687.143 20G<209.185 234.471>
LayerCount: 2
Fore
SplineSet
235.04296875 706 m 2
 297.328125 725.428710938 388.756835938 681.713867188 350.756835938 613.428710938 c 0
 304.756835938 554.571289062 318.185546875 467.713867188 302.756835938 396.857421875 c 0
 289.04296875 258.286132812 273.328125 120 269.614257812 -19.4287109375 c 0
 259.04296875 -63.142578125 295.328125 -124.571289062 251.899414062 -155.142578125 c 0
 198.470703125 -184.286132812 128.470703125 -180.857421875 73.04296875 -158.857421875 c 0
 22.7568359375 -138 32.185546875 -60.5712890625 85.6142578125 -52.5712890625 c 0
 113.04296875 -50 155.899414062 -64.2861328125 151.328125 -21.4287109375 c 0
 165.328125 151.428710938 175.614257812 324.571289062 199.328125 496.571289062 c 0
 195.899414062 522 220.470703125 573.142578125 191.04296875 583.428710938 c 0
 139.04296875 564.857421875 63.328125 579.713867188 82.185546875 650.857421875 c 0
 106.470703125 704.857421875 183.899414062 700.571289062 234.470703125 707.142578125 c 1
 234.470703125 707.142578125 234.470703125 706.857421875 234.470703125 706.571289062 c 2
 235.04296875 706 l 2
EndSplineSet
EndChar

StartChar: underscore
Encoding: 95 95 159
Width: 758
Flags: W
HStem: -172 133.429
LayerCount: 2
Fore
SplineSet
437.428710938 -38.5712890625 m 1
 512.286132812 -49.142578125 607.71484375 -14.2861328125 671.143554688 -58.2861328125 c 0
 698.286132812 -90.2861328125 681.428710938 -143.142578125 640.857421875 -150.571289062 c 0
 466 -163.428710938 289.143554688 -149.428710938 115.143554688 -172 c 0
 94.2861328125 -170.571289062 73.71484375 -148.571289062 70 -126.571289062 c 0
 70 -3.4287109375 351.143554688 -52 437.428710938 -39.7138671875 c 2
 437.428710938 -38.5712890625 l 1
EndSplineSet
EndChar

StartChar: a
Encoding: 97 97 160
Width: 738
Flags: W
LayerCount: 2
Fore
SplineSet
492.915039062 539.142578125 m 0
 850.342773438 568.571289062 434.342773438 206.286132812 666.915039062 92 c 0
 690.342773438 73.142578125 692.62890625 34.2861328125 672.057617188 12.5712890625 c 0
 610.342773438 -46 534.057617188 44.2861328125 498.62890625 93.142578125 c 0
 456.62890625 94 417.200195312 43.4287109375 376.342773438 26.5712890625 c 0
 294.915039062 -21.7138671875 192.915039062 -18.857421875 120.342773438 42.2861328125 c 0
 -106.799804688 260.571289062 252.057617188 575.713867188 492.915039062 539.142578125 c 0
462.915039062 427.142578125 m 0
 196.342773438 428.286132812 28.9150390625 51.4287109375 312.62890625 124.286132812 c 0
 427.771484375 170.286132812 491.771484375 280.571289062 508.342773438 399.713867188 c 0
 509.771484375 427.713867188 487.771484375 424.286132812 462.915039062 427.142578125 c 0
EndSplineSet
EndChar

StartChar: b
Encoding: 98 98 161
Width: 656
Flags: W
LayerCount: 2
Fore
SplineSet
209.572265625 439.713867188 m 1
 667.858398438 756.286132812 740.4296875 -43.142578125 300.71484375 -3.142578125 c 0
 256.143554688 -6 194.4296875 57.4287109375 161.858398438 21.142578125 c 0
 131.858398438 -22.857421875 56.71484375 -7.142578125 57.0009765625 48 c 0
 57.0009765625 75.4287109375 58.1435546875 102.857421875 60.4296875 130 c 0
 79.287109375 312.857421875 81.8583984375 500.286132812 123.287109375 679.428710938 c 0
 135.000976562 708.571289062 169.572265625 719.428710938 197.572265625 704.571289062 c 0
 275.287109375 652.571289062 187.858398438 516.857421875 209.572265625 439.428710938 c 1
 209.572265625 439.713867188 l 1
477.858398438 272.286132812 m 0
 485.572265625 359.713867188 429.572265625 432 349.858398438 380.571289062 c 0
 285.000976562 339.713867188 105.572265625 226 218.71484375 152.286132812 c 0
 339.858398438 66 474.143554688 122.571289062 477.858398438 272.286132812 c 0
EndSplineSet
EndChar

StartChar: c
Encoding: 99 99 162
Width: 602
Flags: W
LayerCount: 2
Fore
SplineSet
274.321289062 110.286132812 m 1
 340.606445312 112.286132812 404.606445312 126 441.749023438 182.857421875 c 0
 453.463867188 202.571289062 471.749023438 209.713867188 494.03515625 208.286132812 c 0
 549.463867188 205.142578125 557.463867188 141.142578125 529.463867188 103.428710938 c 0
 444.03515625 -9.7138671875 262.03515625 -37.4287109375 137.749023438 24.857421875 c 0
 -81.107421875 146.857421875 151.749023438 556.857421875 374.321289062 508.857421875 c 0
 530.03515625 474.857421875 400.606445312 221.428710938 318.606445312 375.428710938 c 0
 312.606445312 387.142578125 301.749023438 389.713867188 290.321289062 381.713867188 c 0
 195.749023438 321.713867188 78.892578125 99.7138671875 274.606445312 110.286132812 c 1
 274.321289062 110.286132812 l 1
EndSplineSet
EndChar

